<svg width="223" height="184" viewBox="0 0 223 184" fill="none" xmlns="http://www.w3.org/2000/svg">
<path d="M0 5C0 2.23858 2.23858 0 5 0H218C220.761 0 223 2.23858 223 5V179C223 181.761 220.761 184 218 184H5C2.23858 184 0 181.761 0 179V5Z" fill="white"/>
<path d="M24.8047 29H23.4854L18.4746 21.3301V29H17.1553V19.0469H18.4746L23.499 26.751V19.0469H24.8047V29ZM26.6025 25.2334C26.6025 24.5088 26.7438 23.8571 27.0264 23.2783C27.3135 22.6995 27.71 22.2529 28.2158 21.9385C28.7262 21.624 29.3073 21.4668 29.959 21.4668C30.9661 21.4668 31.7796 21.8154 32.3994 22.5127C33.0238 23.21 33.3359 24.1374 33.3359 25.2949V25.3838C33.3359 26.1038 33.1969 26.751 32.9189 27.3252C32.6455 27.8949 32.2513 28.3392 31.7363 28.6582C31.2259 28.9772 30.638 29.1367 29.9727 29.1367C28.9701 29.1367 28.1566 28.7881 27.5322 28.0908C26.9124 27.3936 26.6025 26.4707 26.6025 25.3223V25.2334ZM27.874 25.3838C27.874 26.2041 28.0632 26.8626 28.4414 27.3594C28.8242 27.8561 29.3346 28.1045 29.9727 28.1045C30.6152 28.1045 31.1257 27.8538 31.5039 27.3525C31.8822 26.8467 32.0713 26.1403 32.0713 25.2334C32.0713 24.4222 31.8776 23.766 31.4902 23.2646C31.1074 22.7588 30.597 22.5059 29.959 22.5059C29.3346 22.5059 28.8311 22.7542 28.4482 23.251C28.0654 23.7477 27.874 24.4587 27.874 25.3838ZM31.9824 20.373V20.4414H30.9365L29.9111 19.2793L28.8926 20.4414H27.8467V20.3594L29.5283 18.5H30.2939L31.9824 20.373ZM29.1865 30.6748C29.1865 30.4697 29.248 30.2965 29.3711 30.1553C29.4987 30.014 29.6855 29.9434 29.9316 29.9434C30.1777 29.9434 30.3646 30.014 30.4922 30.1553C30.6198 30.2965 30.6836 30.4697 30.6836 30.6748C30.6836 30.8799 30.6198 31.0508 30.4922 31.1875C30.3646 31.3242 30.1777 31.3926 29.9316 31.3926C29.6855 31.3926 29.4987 31.3242 29.3711 31.1875C29.248 31.0508 29.1865 30.8799 29.1865 30.6748ZM36.2959 29H35.0312V21.6035H36.2959V29ZM34.9287 19.6416C34.9287 19.4365 34.9902 19.2633 35.1133 19.1221C35.2409 18.9808 35.4277 18.9102 35.6738 18.9102C35.9199 18.9102 36.1068 18.9808 36.2344 19.1221C36.362 19.2633 36.4258 19.4365 36.4258 19.6416C36.4258 19.8467 36.362 20.0176 36.2344 20.1543C36.1068 20.291 35.9199 20.3594 35.6738 20.3594C35.4277 20.3594 35.2409 20.291 35.1133 20.1543C34.9902 20.0176 34.9287 19.8467 34.9287 19.6416ZM41.4912 25.2402C41.4912 24.1055 41.7601 23.194 42.2979 22.5059C42.8356 21.8132 43.5397 21.4668 44.4102 21.4668C45.276 21.4668 45.9619 21.763 46.4678 22.3555V18.5H47.7324V29H46.5703L46.5088 28.207C46.0029 28.8268 45.2988 29.1367 44.3965 29.1367C43.5397 29.1367 42.8402 28.7858 42.2979 28.084C41.7601 27.3822 41.4912 26.4661 41.4912 25.3359V25.2402ZM42.7559 25.3838C42.7559 26.2223 42.929 26.8786 43.2754 27.3525C43.6217 27.8265 44.1003 28.0635 44.7109 28.0635C45.513 28.0635 46.0986 27.7035 46.4678 26.9834V23.5859C46.0895 22.8887 45.5085 22.54 44.7246 22.54C44.1048 22.54 43.6217 22.7793 43.2754 23.2578C42.929 23.7363 42.7559 24.445 42.7559 25.3838ZM54.2676 28.2686C53.7754 28.8473 53.0531 29.1367 52.1006 29.1367C51.3122 29.1367 50.7106 28.9089 50.2959 28.4531C49.8857 27.9928 49.6784 27.3138 49.6738 26.416V21.6035H50.9385V26.3818C50.9385 27.5029 51.3942 28.0635 52.3057 28.0635C53.2718 28.0635 53.9144 27.7035 54.2334 26.9834V21.6035H55.498V29H54.2949L54.2676 28.2686ZM58.6221 21.6035L58.6631 22.5332C59.2282 21.8223 59.9665 21.4668 60.8779 21.4668C62.4411 21.4668 63.2295 22.3486 63.2432 24.1123V29H61.9785V24.1055C61.974 23.5723 61.8509 23.1781 61.6094 22.9229C61.3724 22.6676 61.001 22.54 60.4951 22.54C60.085 22.54 59.7249 22.6494 59.415 22.8682C59.1051 23.0869 58.8636 23.374 58.6904 23.7295V29H57.4258V21.6035H58.6221ZM64.8496 25.2402C64.8496 24.0872 65.1162 23.1712 65.6494 22.4922C66.1826 21.8086 66.889 21.4668 67.7686 21.4668C68.6709 21.4668 69.375 21.7858 69.8809 22.4238L69.9424 21.6035H71.0977V28.8223C71.0977 29.7793 70.8128 30.5335 70.2432 31.085C69.6781 31.6364 68.917 31.9121 67.96 31.9121C67.4268 31.9121 66.9049 31.7982 66.3945 31.5703C65.8841 31.3424 65.4945 31.0303 65.2256 30.6338L65.8818 29.875C66.4242 30.5449 67.0872 30.8799 67.8711 30.8799C68.4863 30.8799 68.9648 30.7067 69.3066 30.3604C69.653 30.014 69.8262 29.5264 69.8262 28.8975V28.2617C69.3203 28.8451 68.6299 29.1367 67.7549 29.1367C66.889 29.1367 66.1872 28.7881 65.6494 28.0908C65.1162 27.3936 64.8496 26.4434 64.8496 25.2402ZM66.1211 25.3838C66.1211 26.2178 66.292 26.874 66.6338 27.3525C66.9756 27.8265 67.4541 28.0635 68.0693 28.0635C68.8669 28.0635 69.4525 27.7012 69.8262 26.9766V23.5996C69.4388 22.8932 68.8577 22.54 68.083 22.54C67.4678 22.54 66.987 22.7793 66.6406 23.2578C66.2943 23.7363 66.1211 24.445 66.1211 25.3838ZM79.4512 28.1045C79.9023 28.1045 80.2965 27.9678 80.6338 27.6943C80.971 27.4209 81.1579 27.0791 81.1943 26.6689H82.3906C82.3678 27.0928 82.222 27.4961 81.9531 27.8789C81.6842 28.2617 81.3242 28.5671 80.873 28.7949C80.4264 29.0228 79.9525 29.1367 79.4512 29.1367C78.444 29.1367 77.6419 28.8018 77.0449 28.1318C76.4525 27.4574 76.1562 26.5368 76.1562 25.3701V25.1582C76.1562 24.4382 76.2884 23.7979 76.5527 23.2373C76.8171 22.6768 77.1953 22.2415 77.6875 21.9316C78.1842 21.6217 78.7699 21.4668 79.4443 21.4668C80.2738 21.4668 80.9619 21.7152 81.5088 22.2119C82.0602 22.7087 82.3542 23.3535 82.3906 24.1465H81.1943C81.1579 23.668 80.9756 23.276 80.6475 22.9707C80.3239 22.6608 79.9229 22.5059 79.4443 22.5059C78.8018 22.5059 78.3027 22.7383 77.9473 23.2031C77.5964 23.6634 77.4209 24.3311 77.4209 25.2061V25.4453C77.4209 26.2975 77.5964 26.9538 77.9473 27.4141C78.2982 27.8743 78.7995 28.1045 79.4512 28.1045ZM88.3789 29C88.306 28.8542 88.2467 28.5944 88.2012 28.2207C87.6133 28.8314 86.9115 29.1367 86.0957 29.1367C85.3665 29.1367 84.7673 28.9316 84.2979 28.5215C83.833 28.1068 83.6006 27.5827 83.6006 26.9492C83.6006 26.179 83.8923 25.582 84.4756 25.1582C85.0635 24.7298 85.8883 24.5156 86.9502 24.5156H88.1807V23.9346C88.1807 23.4925 88.0485 23.1416 87.7842 22.8818C87.5199 22.6175 87.1302 22.4854 86.6152 22.4854C86.1641 22.4854 85.7858 22.5993 85.4805 22.8271C85.1751 23.055 85.0225 23.3307 85.0225 23.6543H83.751C83.751 23.2852 83.8809 22.9297 84.1406 22.5879C84.4049 22.2415 84.7604 21.9681 85.207 21.7676C85.6582 21.5671 86.1527 21.4668 86.6904 21.4668C87.5426 21.4668 88.2103 21.681 88.6934 22.1094C89.1764 22.5332 89.4271 23.1188 89.4453 23.8662V27.2705C89.4453 27.9495 89.5319 28.4896 89.7051 28.8906V29H88.3789ZM86.2803 28.0361C86.6768 28.0361 87.0527 27.9336 87.4082 27.7285C87.7637 27.5234 88.0212 27.2568 88.1807 26.9287V25.4111H87.1895C85.64 25.4111 84.8652 25.8646 84.8652 26.7715C84.8652 27.168 84.9974 27.4779 85.2617 27.7012C85.526 27.9245 85.8656 28.0361 86.2803 28.0361ZM88.8984 20.373V20.4414H87.8525L86.8271 19.2793L85.8086 20.4414H84.7627V20.3594L86.4443 18.5H87.21L88.8984 20.373ZM95.9941 28.2686C95.502 28.8473 94.7796 29.1367 93.8271 29.1367C93.0387 29.1367 92.4372 28.9089 92.0225 28.4531C91.6123 27.9928 91.4049 27.3138 91.4004 26.416V21.6035H92.665V26.3818C92.665 27.5029 93.1208 28.0635 94.0322 28.0635C94.9984 28.0635 95.641 27.7035 95.96 26.9834V21.6035H97.2246V29H96.0215L95.9941 28.2686ZM103.89 22.499C104.45 21.8109 105.179 21.4668 106.077 21.4668C107.64 21.4668 108.429 22.3486 108.442 24.1123V29H107.178V24.1055C107.173 23.5723 107.05 23.1781 106.809 22.9229C106.572 22.6676 106.2 22.54 105.694 22.54C105.284 22.54 104.924 22.6494 104.614 22.8682C104.304 23.0869 104.063 23.374 103.89 23.7295V29H102.625V18.5H103.89V22.499ZM110.001 25.2334C110.001 24.5088 110.142 23.8571 110.425 23.2783C110.712 22.6995 111.108 22.2529 111.614 21.9385C112.125 21.624 112.706 21.4668 113.357 21.4668C114.365 21.4668 115.178 21.8154 115.798 22.5127C116.422 23.21 116.734 24.1374 116.734 25.2949V25.3838C116.734 26.1038 116.595 26.751 116.317 27.3252C116.044 27.8949 115.65 28.3392 115.135 28.6582C114.624 28.9772 114.036 29.1367 113.371 29.1367C112.368 29.1367 111.555 28.7881 110.931 28.0908C110.311 27.3936 110.001 26.4707 110.001 25.3223V25.2334ZM111.272 25.3838C111.272 26.2041 111.462 26.8626 111.84 27.3594C112.223 27.8561 112.733 28.1045 113.371 28.1045C114.014 28.1045 114.524 27.8538 114.902 27.3525C115.281 26.8467 115.47 26.1403 115.47 25.2334C115.47 24.4222 115.276 23.766 114.889 23.2646C114.506 22.7588 113.995 22.5059 113.357 22.5059C112.733 22.5059 112.229 22.7542 111.847 23.251C111.464 23.7477 111.272 24.4587 111.272 25.3838ZM112.886 20.4072L112.879 19.3613C113.221 19.3385 113.471 19.293 113.631 19.2246C113.79 19.1562 113.87 19.0332 113.87 18.8555C113.87 18.6777 113.765 18.5456 113.556 18.459C113.351 18.3678 113.077 18.3223 112.735 18.3223L112.783 17.5977C113.462 17.5977 113.977 17.7161 114.328 17.9531C114.679 18.1855 114.854 18.4954 114.854 18.8828C114.854 19.1608 114.766 19.391 114.588 19.5732C114.41 19.7555 114.146 19.8717 113.795 19.9219L113.788 20.4072H112.886ZM119.694 29H118.43V21.6035H119.694V29ZM118.327 19.6416C118.327 19.4365 118.389 19.2633 118.512 19.1221C118.639 18.9808 118.826 18.9102 119.072 18.9102C119.318 18.9102 119.505 18.9808 119.633 19.1221C119.76 19.2633 119.824 19.4365 119.824 19.6416C119.824 19.8467 119.76 20.0176 119.633 20.1543C119.505 20.291 119.318 20.3594 119.072 20.3594C118.826 20.3594 118.639 20.291 118.512 20.1543C118.389 20.0176 118.327 19.8467 118.327 19.6416ZM121.752 28.3369C121.752 28.1182 121.816 27.9359 121.943 27.79C122.076 27.6442 122.271 27.5713 122.531 27.5713C122.791 27.5713 122.987 27.6442 123.119 27.79C123.256 27.9359 123.324 28.1182 123.324 28.3369C123.324 28.5465 123.256 28.722 123.119 28.8633C122.987 29.0046 122.791 29.0752 122.531 29.0752C122.271 29.0752 122.076 29.0046 121.943 28.8633C121.816 28.722 121.752 28.5465 121.752 28.3369ZM125.443 28.3369C125.443 28.1182 125.507 27.9359 125.635 27.79C125.767 27.6442 125.963 27.5713 126.223 27.5713C126.482 27.5713 126.678 27.6442 126.811 27.79C126.947 27.9359 127.016 28.1182 127.016 28.3369C127.016 28.5465 126.947 28.722 126.811 28.8633C126.678 29.0046 126.482 29.0752 126.223 29.0752C125.963 29.0752 125.767 29.0046 125.635 28.8633C125.507 28.722 125.443 28.5465 125.443 28.3369ZM129.135 28.3369C129.135 28.1182 129.199 27.9359 129.326 27.79C129.458 27.6442 129.654 27.5713 129.914 27.5713C130.174 27.5713 130.37 27.6442 130.502 27.79C130.639 27.9359 130.707 28.1182 130.707 28.3369C130.707 28.5465 130.639 28.722 130.502 28.8633C130.37 29.0046 130.174 29.0752 129.914 29.0752C129.654 29.0752 129.458 29.0046 129.326 28.8633C129.199 28.722 129.135 28.5465 129.135 28.3369Z" fill="#8C8C8C"/>
<path d="M16 53C16 50.2386 18.2386 48 21 48H51C53.7614 48 56 50.2386 56 53V67C56 69.7614 53.7614 72 51 72H21C18.2386 72 16 69.7614 16 67V53Z" fill="#2EB553"/>
<path d="M31.0137 56.3945H28.2715V64H27.1523V56.3945H24.416V55.4688H31.0137V56.3945ZM38.3145 57.1562C38.3145 57.8594 38.1699 58.3555 37.8809 58.6445C37.5957 58.9297 37.1406 59.0801 36.5156 59.0957V64H35.4844L35.4609 63.373C35.0391 63.8691 34.4199 64.1172 33.6035 64.1172C32.9277 64.1172 32.4121 63.9219 32.0566 63.5312C31.7051 63.1367 31.5273 62.5547 31.5234 61.7852V57.6602H32.6074V61.7559C32.6074 62.7168 32.998 63.1973 33.7793 63.1973C34.6074 63.1973 35.1582 62.8887 35.4316 62.2715V57.6602H36.5156V58.4277C36.7812 58.4199 36.9805 58.3828 37.1133 58.3164C37.2461 58.2461 37.3398 58.1406 37.3945 58C37.4531 57.8594 37.4824 57.5781 37.4824 57.1562H38.3145ZM34.7461 56.8398H33.8145L32.3027 55.1172H33.6094L34.7461 56.8398ZM45.4043 64H44.3145V56.7754L42.1289 57.5781V56.5938L45.2344 55.4277H45.4043V64Z" fill="white"/>
<path d="M60 53C60 50.2386 62.2386 48 65 48H95C97.7614 48 100 50.2386 100 53V67C100 69.7614 97.7614 72 95 72H65C62.2386 72 60 69.7614 60 67V53Z" fill="#2EB553"/>
<path d="M75.0137 56.3945H72.2715V64H71.1523V56.3945H68.416V55.4688H75.0137V56.3945ZM82.3145 57.1562C82.3145 57.8594 82.1699 58.3555 81.8809 58.6445C81.5957 58.9297 81.1406 59.0801 80.5156 59.0957V64H79.4844L79.4609 63.373C79.0391 63.8691 78.4199 64.1172 77.6035 64.1172C76.9277 64.1172 76.4121 63.9219 76.0566 63.5312C75.7051 63.1367 75.5273 62.5547 75.5234 61.7852V57.6602H76.6074V61.7559C76.6074 62.7168 76.998 63.1973 77.7793 63.1973C78.6074 63.1973 79.1582 62.8887 79.4316 62.2715V57.6602H80.5156V58.4277C80.7812 58.4199 80.9805 58.3828 81.1133 58.3164C81.2461 58.2461 81.3398 58.1406 81.3945 58C81.4531 57.8594 81.4824 57.5781 81.4824 57.1562H82.3145ZM78.7461 56.8398H77.8145L76.3027 55.1172H77.6094L78.7461 56.8398ZM91.4316 64H85.8418V63.2207L88.7949 59.9395C89.2324 59.4434 89.5332 59.041 89.6973 58.7324C89.8652 58.4199 89.9492 58.0977 89.9492 57.7656C89.9492 57.3203 89.8145 56.9551 89.5449 56.6699C89.2754 56.3848 88.916 56.2422 88.4668 56.2422C87.9277 56.2422 87.5078 56.3965 87.207 56.7051C86.9102 57.0098 86.7617 57.4355 86.7617 57.9824H85.6777C85.6777 57.1973 85.9297 56.5625 86.4336 56.0781C86.9414 55.5938 87.6191 55.3516 88.4668 55.3516C89.2598 55.3516 89.8867 55.5605 90.3477 55.9785C90.8086 56.3926 91.0391 56.9453 91.0391 57.6367C91.0391 58.4766 90.5039 59.4766 89.4336 60.6367L87.1484 63.1152H91.4316V64Z" fill="white"/>
<path d="M104 53C104 50.2386 106.239 48 109 48H139C141.761 48 144 50.2386 144 53V67C144 69.7614 141.761 72 139 72H109C106.239 72 104 69.7614 104 67V53Z" fill="#2EB553"/>
<path d="M119.014 56.3945H116.271V64H115.152V56.3945H112.416V55.4688H119.014V56.3945ZM126.314 57.1562C126.314 57.8594 126.17 58.3555 125.881 58.6445C125.596 58.9297 125.141 59.0801 124.516 59.0957V64H123.484L123.461 63.373C123.039 63.8691 122.42 64.1172 121.604 64.1172C120.928 64.1172 120.412 63.9219 120.057 63.5312C119.705 63.1367 119.527 62.5547 119.523 61.7852V57.6602H120.607V61.7559C120.607 62.7168 120.998 63.1973 121.779 63.1973C122.607 63.1973 123.158 62.8887 123.432 62.2715V57.6602H124.516V58.4277C124.781 58.4199 124.98 58.3828 125.113 58.3164C125.246 58.2461 125.34 58.1406 125.395 58C125.453 57.8594 125.482 57.5781 125.482 57.1562H126.314ZM122.746 56.8398H121.814L120.303 55.1172H121.609L122.746 56.8398ZM131.418 59.207H132.232C132.744 59.1992 133.146 59.0645 133.439 58.8027C133.732 58.541 133.879 58.1875 133.879 57.7422C133.879 56.7422 133.381 56.2422 132.385 56.2422C131.916 56.2422 131.541 56.377 131.26 56.6465C130.982 56.9121 130.844 57.2656 130.844 57.707H129.76C129.76 57.0312 130.006 56.4707 130.498 56.0254C130.994 55.5762 131.623 55.3516 132.385 55.3516C133.189 55.3516 133.82 55.5645 134.277 55.9902C134.734 56.416 134.963 57.0078 134.963 57.7656C134.963 58.1367 134.842 58.4961 134.6 58.8438C134.361 59.1914 134.035 59.4512 133.621 59.623C134.09 59.7715 134.451 60.0176 134.705 60.3613C134.963 60.7051 135.092 61.125 135.092 61.6211C135.092 62.3867 134.842 62.9941 134.342 63.4434C133.842 63.8926 133.191 64.1172 132.391 64.1172C131.59 64.1172 130.938 63.9004 130.434 63.4668C129.934 63.0332 129.684 62.4609 129.684 61.75H130.773C130.773 62.1992 130.92 62.5586 131.213 62.8281C131.506 63.0977 131.898 63.2324 132.391 63.2324C132.914 63.2324 133.314 63.0957 133.592 62.8223C133.869 62.5488 134.008 62.1562 134.008 61.6445C134.008 61.1484 133.855 60.7676 133.551 60.502C133.246 60.2363 132.807 60.0996 132.232 60.0918H131.418V59.207Z" fill="white"/>
<path d="M148 53C148 50.2386 150.239 48 153 48H183C185.761 48 188 50.2386 188 53V67C188 69.7614 185.761 72 183 72H153C150.239 72 148 69.7614 148 67V53Z" fill="#2EB553"/>
<path d="M163.014 56.3945H160.271V64H159.152V56.3945H156.416V55.4688H163.014V56.3945ZM170.314 57.1562C170.314 57.8594 170.17 58.3555 169.881 58.6445C169.596 58.9297 169.141 59.0801 168.516 59.0957V64H167.484L167.461 63.373C167.039 63.8691 166.42 64.1172 165.604 64.1172C164.928 64.1172 164.412 63.9219 164.057 63.5312C163.705 63.1367 163.527 62.5547 163.523 61.7852V57.6602H164.607V61.7559C164.607 62.7168 164.998 63.1973 165.779 63.1973C166.607 63.1973 167.158 62.8887 167.432 62.2715V57.6602H168.516V58.4277C168.781 58.4199 168.98 58.3828 169.113 58.3164C169.246 58.2461 169.34 58.1406 169.395 58C169.453 57.8594 169.482 57.5781 169.482 57.1562H170.314ZM166.746 56.8398H165.814L164.303 55.1172H165.609L166.746 56.8398ZM178.418 61.1348H179.602V62.0195H178.418V64H177.328V62.0195H173.443V61.3809L177.264 55.4688H178.418V61.1348ZM174.674 61.1348H177.328V56.9512L177.199 57.1855L174.674 61.1348Z" fill="white"/>
<path d="M5 1H218V-1H5V1ZM222 5V179H224V5H222ZM218 183H5V185H218V183ZM1 179V5H-1V179H1ZM5 183C2.79086 183 1 181.209 1 179H-1C-1 182.314 1.6863 185 5 185V183ZM222 179C222 181.209 220.209 183 218 183V185C221.314 185 224 182.314 224 179H222ZM218 1C220.209 1 222 2.79086 222 5H224C224 1.68629 221.314 -1 218 -1V1ZM5 -1C1.68629 -1 -1 1.6863 -1 5H1C1 2.79086 2.79086 1 5 1V-1Z" fill="#E8E8E8"/>
</svg>
