<svg width="224" height="184" viewBox="0 0 224 184" fill="none" xmlns="http://www.w3.org/2000/svg">
<path d="M0 5C0 2.23858 2.23858 0 5 0H219C221.761 0 224 2.23858 224 5V179C224 181.761 221.761 184 219 184H4.99999C2.23857 184 0 181.761 0 179V5Z" fill="white"/>
<path d="M18.8506 22.0469L22.1045 30.168L25.3584 22.0469H27.0605V32H25.748V28.124L25.8711 23.9404L22.6035 32H21.5986L18.3379 23.9609L18.4678 28.124V32H17.1553V22.0469H18.8506ZM28.8447 28.2334C28.8447 27.5088 28.986 26.8571 29.2686 26.2783C29.5557 25.6995 29.9521 25.2529 30.458 24.9385C30.9684 24.624 31.5495 24.4668 32.2012 24.4668C33.2083 24.4668 34.0218 24.8154 34.6416 25.5127C35.266 26.21 35.5781 27.1374 35.5781 28.2949V28.3838C35.5781 29.1038 35.4391 29.751 35.1611 30.3252C34.8877 30.8949 34.4935 31.3392 33.9785 31.6582C33.4681 31.9772 32.8802 32.1367 32.2148 32.1367C31.2122 32.1367 30.3988 31.7881 29.7744 31.0908C29.1546 30.3936 28.8447 29.4707 28.8447 28.3223V28.2334ZM30.1162 28.3838C30.1162 29.2041 30.3053 29.8626 30.6836 30.3594C31.0664 30.8561 31.5768 31.1045 32.2148 31.1045C32.8574 31.1045 33.3678 30.8538 33.7461 30.3525C34.1243 29.8467 34.3135 29.1403 34.3135 28.2334C34.3135 27.4222 34.1198 26.766 33.7324 26.2646C33.3496 25.7588 32.8392 25.5059 32.2012 25.5059C31.5768 25.5059 31.0732 25.7542 30.6904 26.251C30.3076 26.7477 30.1162 27.4587 30.1162 28.3838ZM34.2246 23.373V23.4414H33.1787L32.1533 22.2793L31.1348 23.4414H30.0889V23.3594L31.7705 21.5H32.5361L34.2246 23.373ZM31.4287 33.6748C31.4287 33.4697 31.4902 33.2965 31.6133 33.1553C31.7409 33.014 31.9277 32.9434 32.1738 32.9434C32.4199 32.9434 32.6068 33.014 32.7344 33.1553C32.862 33.2965 32.9258 33.4697 32.9258 33.6748C32.9258 33.8799 32.862 34.0508 32.7344 34.1875C32.6068 34.3242 32.4199 34.3926 32.1738 34.3926C31.9277 34.3926 31.7409 34.3242 31.6133 34.1875C31.4902 34.0508 31.4287 33.8799 31.4287 33.6748ZM38.8799 22.8125V24.6035H40.2607V25.5811H38.8799V30.168C38.8799 30.4642 38.9414 30.6875 39.0645 30.8379C39.1875 30.9837 39.3971 31.0566 39.6934 31.0566C39.8392 31.0566 40.0397 31.0293 40.2949 30.9746V32C39.9622 32.0911 39.6387 32.1367 39.3242 32.1367C38.7591 32.1367 38.333 31.9658 38.0459 31.624C37.7588 31.2822 37.6152 30.7969 37.6152 30.168V25.5811H36.2686V24.6035H37.6152V22.8125H38.8799ZM52.4355 23.5713H51.1504V32H49.9883L49.9268 31.207C49.4209 31.8268 48.7168 32.1367 47.8145 32.1367C46.9577 32.1367 46.2581 31.7858 45.7158 31.084C45.1781 30.3822 44.9092 29.4661 44.9092 28.3359V28.2402C44.9092 27.1055 45.1781 26.194 45.7158 25.5059C46.2536 24.8132 46.9577 24.4668 47.8281 24.4668C48.694 24.4668 49.3799 24.763 49.8857 25.3555V23.5713H48.0811V22.5391H49.8857V21.5H51.1504V22.5391H52.4355V23.5713ZM46.1738 28.3838C46.1738 29.2223 46.347 29.8786 46.6934 30.3525C47.0397 30.8265 47.5182 31.0635 48.1289 31.0635C48.931 31.0635 49.5166 30.7035 49.8857 29.9834V26.5859C49.5075 25.8887 48.9264 25.54 48.1426 25.54C47.5228 25.54 47.0397 25.7793 46.6934 26.2578C46.347 26.7363 46.1738 27.445 46.1738 28.3838ZM53.249 28.2334C53.249 27.5088 53.3903 26.8571 53.6729 26.2783C53.96 25.6995 54.3564 25.2529 54.8623 24.9385C55.3727 24.624 55.9538 24.4668 56.6055 24.4668C57.6126 24.4668 58.4261 24.8154 59.0459 25.5127C59.6702 26.21 59.9824 27.1374 59.9824 28.2949V28.3838C59.9824 29.1038 59.8434 29.751 59.5654 30.3252C59.292 30.8949 58.8978 31.3392 58.3828 31.6582C57.8724 31.9772 57.2845 32.1367 56.6191 32.1367C55.6165 32.1367 54.8031 31.7881 54.1787 31.0908C53.5589 30.3936 53.249 29.4707 53.249 28.3223V28.2334ZM54.5205 28.3838C54.5205 29.2041 54.7096 29.8626 55.0879 30.3594C55.4707 30.8561 55.9811 31.1045 56.6191 31.1045C57.2617 31.1045 57.7721 30.8538 58.1504 30.3525C58.5286 29.8467 58.7178 29.1403 58.7178 28.2334C58.7178 27.4222 58.5241 26.766 58.1367 26.2646C57.7539 25.7588 57.2435 25.5059 56.6055 25.5059C55.9811 25.5059 55.4775 25.7542 55.0947 26.251C54.7119 26.7477 54.5205 27.4587 54.5205 28.3838ZM58.6289 23.373V23.4414H57.583L56.5576 22.2793L55.5391 23.4414H54.4932V23.3594L56.1748 21.5H56.9404L58.6289 23.373ZM55.833 33.6748C55.833 33.4697 55.8945 33.2965 56.0176 33.1553C56.1452 33.014 56.332 32.9434 56.5781 32.9434C56.8242 32.9434 57.0111 33.014 57.1387 33.1553C57.2663 33.2965 57.3301 33.4697 57.3301 33.6748C57.3301 33.8799 57.2663 34.0508 57.1387 34.1875C57.0111 34.3242 56.8242 34.3926 56.5781 34.3926C56.332 34.3926 56.1452 34.3242 56.0176 34.1875C55.8945 34.0508 55.833 33.8799 55.833 33.6748ZM62.9424 32H61.6777V24.6035H62.9424V32ZM61.5752 22.6416C61.5752 22.4365 61.6367 22.2633 61.7598 22.1221C61.8874 21.9808 62.0742 21.9102 62.3203 21.9102C62.5664 21.9102 62.7533 21.9808 62.8809 22.1221C63.0085 22.2633 63.0723 22.4365 63.0723 22.6416C63.0723 22.8467 63.0085 23.0176 62.8809 23.1543C62.7533 23.291 62.5664 23.3594 62.3203 23.3594C62.0742 23.3594 61.8874 23.291 61.7598 23.1543C61.6367 23.0176 61.5752 22.8467 61.5752 22.6416ZM74.707 28.3838C74.707 29.514 74.4473 30.4232 73.9277 31.1113C73.4082 31.7949 72.7109 32.1367 71.8359 32.1367C70.9017 32.1367 70.1794 31.8063 69.6689 31.1455L69.6074 32H68.4453V21.5H69.71V25.417C70.2204 24.7835 70.9245 24.4668 71.8223 24.4668C72.7201 24.4668 73.4242 24.8063 73.9346 25.4854C74.4495 26.1644 74.707 27.0941 74.707 28.2744V28.3838ZM73.4424 28.2402C73.4424 27.3789 73.276 26.7135 72.9434 26.2441C72.6107 25.7747 72.1322 25.54 71.5078 25.54C70.6738 25.54 70.0745 25.9274 69.71 26.7021V29.9014C70.0973 30.6761 70.7012 31.0635 71.5215 31.0635C72.1276 31.0635 72.5993 30.8288 72.9365 30.3594C73.2738 29.89 73.4424 29.1836 73.4424 28.2402ZM75.9717 28.2334C75.9717 27.5088 76.113 26.8571 76.3955 26.2783C76.6826 25.6995 77.0791 25.2529 77.585 24.9385C78.0954 24.624 78.6764 24.4668 79.3281 24.4668C80.3353 24.4668 81.1488 24.8154 81.7686 25.5127C82.3929 26.21 82.7051 27.1374 82.7051 28.2949V28.3838C82.7051 29.1038 82.5661 29.751 82.2881 30.3252C82.0146 30.8949 81.6204 31.3392 81.1055 31.6582C80.5951 31.9772 80.0072 32.1367 79.3418 32.1367C78.3392 32.1367 77.5257 31.7881 76.9014 31.0908C76.2816 30.3936 75.9717 29.4707 75.9717 28.3223V28.2334ZM77.2432 28.3838C77.2432 29.2041 77.4323 29.8626 77.8105 30.3594C78.1934 30.8561 78.7038 31.1045 79.3418 31.1045C79.9844 31.1045 80.4948 30.8538 80.873 30.3525C81.2513 29.8467 81.4404 29.1403 81.4404 28.2334C81.4404 27.4222 81.2467 26.766 80.8594 26.2646C80.4766 25.7588 79.9661 25.5059 79.3281 25.5059C78.7038 25.5059 78.2002 25.7542 77.8174 26.251C77.4346 26.7477 77.2432 27.4587 77.2432 28.3838ZM79.9023 21.5H81.4336L79.6016 23.5098H78.583L79.9023 21.5ZM85.4873 24.6035L85.5283 25.5332C86.0934 24.8223 86.8317 24.4668 87.7432 24.4668C89.3063 24.4668 90.0947 25.3486 90.1084 27.1123V32H88.8438V27.1055C88.8392 26.5723 88.7161 26.1781 88.4746 25.9229C88.2376 25.6676 87.8662 25.54 87.3604 25.54C86.9502 25.54 86.5902 25.6494 86.2803 25.8682C85.9704 26.0869 85.7288 26.374 85.5557 26.7295V32H84.291V24.6035H85.4873ZM91.7148 28.2402C91.7148 27.0872 91.9814 26.1712 92.5146 25.4922C93.0479 24.8086 93.7542 24.4668 94.6338 24.4668C95.5361 24.4668 96.2402 24.7858 96.7461 25.4238L96.8076 24.6035H97.9629V31.8223C97.9629 32.7793 97.6781 33.5335 97.1084 34.085C96.5433 34.6364 95.7822 34.9121 94.8252 34.9121C94.292 34.9121 93.7702 34.7982 93.2598 34.5703C92.7493 34.3424 92.3597 34.0303 92.0908 33.6338L92.7471 32.875C93.2894 33.5449 93.9525 33.8799 94.7363 33.8799C95.3516 33.8799 95.8301 33.7067 96.1719 33.3604C96.5182 33.014 96.6914 32.5264 96.6914 31.8975V31.2617C96.1855 31.8451 95.4951 32.1367 94.6201 32.1367C93.7542 32.1367 93.0524 31.7881 92.5146 31.0908C91.9814 30.3936 91.7148 29.4434 91.7148 28.2402ZM92.9863 28.3838C92.9863 29.2178 93.1572 29.874 93.499 30.3525C93.8408 30.8265 94.3193 31.0635 94.9346 31.0635C95.7321 31.0635 96.3177 30.7012 96.6914 29.9766V26.5996C96.304 25.8932 95.723 25.54 94.9482 25.54C94.333 25.54 93.8522 25.7793 93.5059 26.2578C93.1595 26.7363 92.9863 27.445 92.9863 28.3838ZM106.316 31.1045C106.768 31.1045 107.162 30.9678 107.499 30.6943C107.836 30.4209 108.023 30.0791 108.06 29.6689H109.256C109.233 30.0928 109.087 30.4961 108.818 30.8789C108.549 31.2617 108.189 31.5671 107.738 31.7949C107.292 32.0228 106.818 32.1367 106.316 32.1367C105.309 32.1367 104.507 31.8018 103.91 31.1318C103.318 30.4574 103.021 29.5368 103.021 28.3701V28.1582C103.021 27.4382 103.154 26.7979 103.418 26.2373C103.682 25.6768 104.061 25.2415 104.553 24.9316C105.049 24.6217 105.635 24.4668 106.31 24.4668C107.139 24.4668 107.827 24.7152 108.374 25.2119C108.925 25.7087 109.219 26.3535 109.256 27.1465H108.06C108.023 26.668 107.841 26.276 107.513 25.9707C107.189 25.6608 106.788 25.5059 106.31 25.5059C105.667 25.5059 105.168 25.7383 104.812 26.2031C104.462 26.6634 104.286 27.3311 104.286 28.2061V28.4453C104.286 29.2975 104.462 29.9538 104.812 30.4141C105.163 30.8743 105.665 31.1045 106.316 31.1045ZM110.343 28.2334C110.343 27.5088 110.484 26.8571 110.767 26.2783C111.054 25.6995 111.45 25.2529 111.956 24.9385C112.466 24.624 113.048 24.4668 113.699 24.4668C114.706 24.4668 115.52 24.8154 116.14 25.5127C116.764 26.21 117.076 27.1374 117.076 28.2949V28.3838C117.076 29.1038 116.937 29.751 116.659 30.3252C116.386 30.8949 115.992 31.3392 115.477 31.6582C114.966 31.9772 114.378 32.1367 113.713 32.1367C112.71 32.1367 111.897 31.7881 111.272 31.0908C110.653 30.3936 110.343 29.4707 110.343 28.3223V28.2334ZM111.614 28.3838C111.614 29.2041 111.803 29.8626 112.182 30.3594C112.564 30.8561 113.075 31.1045 113.713 31.1045C114.355 31.1045 114.866 30.8538 115.244 30.3525C115.622 29.8467 115.812 29.1403 115.812 28.2334C115.812 27.4222 115.618 26.766 115.23 26.2646C114.848 25.7588 114.337 25.5059 113.699 25.5059C113.075 25.5059 112.571 25.7542 112.188 26.251C111.806 26.7477 111.614 27.4587 111.614 28.3838ZM114.273 21.5H115.805L113.973 23.5098H112.954L114.273 21.5Z" fill="#8C8C8C"/>
<g filter="url(#filter0_i)">
<rect width="58" height="22" transform="translate(126 16)" fill="white"/>
<path d="M156.053 32H154.781V23.5713L152.231 24.5078V23.3594L155.854 21.999H156.053V32Z" fill="#2EB553"/>
</g>
<path d="M18.1533 62.6035L18.1943 63.5332C18.7594 62.8223 19.4977 62.4668 20.4092 62.4668C21.9723 62.4668 22.7607 63.3486 22.7744 65.1123V70H21.5098V65.1055C21.5052 64.5723 21.3822 64.1781 21.1406 63.9229C20.9036 63.6676 20.5322 63.54 20.0264 63.54C19.6162 63.54 19.2562 63.6494 18.9463 63.8682C18.6364 64.0869 18.3949 64.374 18.2217 64.7295V70H16.957V62.6035H18.1533ZM24.3809 66.2402C24.3809 65.0872 24.6475 64.1712 25.1807 63.4922C25.7139 62.8086 26.4202 62.4668 27.2998 62.4668C28.2021 62.4668 28.9062 62.7858 29.4121 63.4238L29.4736 62.6035H30.6289V69.8223C30.6289 70.7793 30.3441 71.5335 29.7744 72.085C29.2093 72.6364 28.4482 72.9121 27.4912 72.9121C26.958 72.9121 26.4362 72.7982 25.9258 72.5703C25.4154 72.3424 25.0257 72.0303 24.7568 71.6338L25.4131 70.875C25.9554 71.5449 26.6185 71.8799 27.4023 71.8799C28.0176 71.8799 28.4961 71.7067 28.8379 71.3604C29.1842 71.014 29.3574 70.5264 29.3574 69.8975V69.2617C28.8516 69.8451 28.1611 70.1367 27.2861 70.1367C26.4202 70.1367 25.7184 69.7881 25.1807 69.0908C24.6475 68.3936 24.3809 67.4434 24.3809 66.2402ZM25.6523 66.3838C25.6523 67.2178 25.8232 67.874 26.165 68.3525C26.5068 68.8265 26.9854 69.0635 27.6006 69.0635C28.3981 69.0635 28.9837 68.7012 29.3574 67.9766V64.5996C28.9701 63.8932 28.389 63.54 27.6143 63.54C26.999 63.54 26.5182 63.7793 26.1719 64.2578C25.8255 64.7363 25.6523 65.445 25.6523 66.3838ZM40.4385 62.0156C40.4385 62.8359 40.2699 63.4147 39.9326 63.752C39.5999 64.0846 39.069 64.2601 38.3398 64.2783V70H37.1367L37.1094 69.2686C36.6172 69.8473 35.8949 70.1367 34.9424 70.1367C34.154 70.1367 33.5524 69.9089 33.1377 69.4531C32.7275 68.9928 32.5202 68.3138 32.5156 67.416V62.6035H33.7803V67.3818C33.7803 68.5029 34.236 69.0635 35.1475 69.0635C36.1136 69.0635 36.7562 68.7035 37.0752 67.9834V62.6035H38.3398V63.499C38.6497 63.4899 38.8822 63.4466 39.0371 63.3691C39.1921 63.2871 39.3014 63.1641 39.3652 63C39.4336 62.8359 39.4678 62.5078 39.4678 62.0156H40.4385ZM40.876 66.2334C40.876 65.5088 41.015 64.8594 41.293 64.2852C41.5755 63.7064 41.972 63.2598 42.4824 62.9453C42.9974 62.6263 43.5807 62.4668 44.2324 62.4668C45.1758 62.4668 45.9574 62.7812 46.5771 63.4102C46.9007 63.3737 47.1354 63.2415 47.2812 63.0137C47.4271 62.7858 47.5 62.3802 47.5 61.7969H48.5254C48.5254 63.123 48.0537 63.9023 47.1104 64.1348C47.443 64.7637 47.6094 65.4632 47.6094 66.2334V66.3838C47.6094 67.1038 47.4681 67.7533 47.1855 68.332C46.903 68.9108 46.5065 69.3574 45.9961 69.6719C45.4857 69.9818 44.9023 70.1367 44.2461 70.1367C43.2344 70.1367 42.4186 69.7881 41.7988 69.0908C41.1836 68.389 40.876 67.4661 40.876 66.3223V66.2334ZM42.1406 66.3838C42.1406 67.2041 42.3298 67.8626 42.708 68.3594C43.0908 68.8561 43.6035 69.1045 44.2461 69.1045C44.8796 69.1045 45.3854 68.8561 45.7637 68.3594C46.1465 67.8581 46.3379 67.1859 46.3379 66.3428V66.2334C46.3379 65.4085 46.1442 64.7477 45.7568 64.251C45.374 63.7542 44.8659 63.5059 44.2324 63.5059C43.6035 63.5059 43.0977 63.7542 42.7148 64.251C42.332 64.7477 42.1406 65.4587 42.1406 66.3838ZM44.957 61.5098H43.8701L42.1064 59.5H43.6309L44.957 61.5098ZM50.583 70H49.3184V62.6035H50.583V70ZM49.2158 60.6416C49.2158 60.4365 49.2773 60.2633 49.4004 60.1221C49.528 59.9808 49.7148 59.9102 49.9609 59.9102C50.207 59.9102 50.3939 59.9808 50.5215 60.1221C50.6491 60.2633 50.7129 60.4365 50.7129 60.6416C50.7129 60.8467 50.6491 61.0176 50.5215 61.1543C50.3939 61.291 50.207 61.3594 49.9609 61.3594C49.7148 61.3594 49.528 61.291 49.4004 61.1543C49.2773 61.0176 49.2158 60.8467 49.2158 60.6416ZM58.5264 68.2842L60.3584 62.6035H61.6504L58.998 70H58.0342L55.3545 62.6035H56.6465L58.5264 68.2842ZM67.3242 70C67.2513 69.8542 67.1921 69.5944 67.1465 69.2207C66.5586 69.8314 65.8568 70.1367 65.041 70.1367C64.3118 70.1367 63.7126 69.9316 63.2432 69.5215C62.7783 69.1068 62.5459 68.5827 62.5459 67.9492C62.5459 67.179 62.8376 66.582 63.4209 66.1582C64.0088 65.7298 64.8337 65.5156 65.8955 65.5156H67.126V64.9346C67.126 64.4925 66.9938 64.1416 66.7295 63.8818C66.4652 63.6175 66.0755 63.4854 65.5605 63.4854C65.1094 63.4854 64.7311 63.5993 64.4258 63.8271C64.1204 64.055 63.9678 64.3307 63.9678 64.6543H62.6963C62.6963 64.2852 62.8262 63.9297 63.0859 63.5879C63.3503 63.2415 63.7057 62.9681 64.1523 62.7676C64.6035 62.5671 65.098 62.4668 65.6357 62.4668C66.488 62.4668 67.1556 62.681 67.6387 63.1094C68.1217 63.5332 68.3724 64.1188 68.3906 64.8662V68.2705C68.3906 68.9495 68.4772 69.4896 68.6504 69.8906V70H67.3242ZM65.2256 69.0361C65.6221 69.0361 65.998 68.9336 66.3535 68.7285C66.709 68.5234 66.9665 68.2568 67.126 67.9287V66.4111H66.1348C64.5853 66.4111 63.8105 66.8646 63.8105 67.7715C63.8105 68.168 63.9427 68.4779 64.207 68.7012C64.4714 68.9245 64.8109 69.0361 65.2256 69.0361ZM66.4971 61.5098H65.4102L63.6465 59.5H65.1709L66.4971 61.5098Z" fill="#8C8C8C"/>
<g filter="url(#filter1_i)">
<rect width="58" height="22" transform="translate(78 54)" fill="white"/>
<path d="M110.418 70H103.896V69.0908L107.342 65.2627C107.852 64.6839 108.203 64.2145 108.395 63.8545C108.59 63.4899 108.688 63.1139 108.688 62.7266C108.688 62.207 108.531 61.7809 108.217 61.4482C107.902 61.1156 107.483 60.9492 106.959 60.9492C106.33 60.9492 105.84 61.1292 105.489 61.4893C105.143 61.8447 104.97 62.3415 104.97 62.9795H103.705C103.705 62.0635 103.999 61.3229 104.587 60.7578C105.179 60.1927 105.97 59.9102 106.959 59.9102C107.884 59.9102 108.616 60.154 109.153 60.6416C109.691 61.1247 109.96 61.7695 109.96 62.5762C109.96 63.556 109.336 64.7227 108.087 66.0762L105.421 68.9678H110.418V70Z" fill="#2EB553"/>
</g>
<path d="M146.673 60.8125V62.6035H148.054V63.5811H146.673V68.168C146.673 68.4642 146.734 68.6875 146.857 68.8379C146.98 68.9837 147.19 69.0566 147.486 69.0566C147.632 69.0566 147.833 69.0293 148.088 68.9746V70C147.755 70.0911 147.432 70.1367 147.117 70.1367C146.552 70.1367 146.126 69.9658 145.839 69.624C145.552 69.2822 145.408 68.7969 145.408 68.168V63.5811H144.062V62.6035H145.408V60.8125H146.673ZM150.802 63.499C151.362 62.8109 152.091 62.4668 152.989 62.4668C154.552 62.4668 155.341 63.3486 155.354 65.1123V70H154.09V65.1055C154.085 64.5723 153.962 64.1781 153.721 63.9229C153.484 63.6676 153.112 63.54 152.606 63.54C152.196 63.54 151.836 63.6494 151.526 63.8682C151.216 64.0869 150.975 64.374 150.802 64.7295V70H149.537V59.5H150.802V63.499ZM161.814 69.2686C161.322 69.8473 160.6 70.1367 159.647 70.1367C158.859 70.1367 158.257 69.9089 157.843 69.4531C157.433 68.9928 157.225 68.3138 157.221 67.416V62.6035H158.485V67.3818C158.485 68.5029 158.941 69.0635 159.853 69.0635C160.819 69.0635 161.461 68.7035 161.78 67.9834V62.6035H163.045V70H161.842L161.814 69.2686ZM159.743 61.4072L159.736 60.3613C160.078 60.3385 160.329 60.293 160.488 60.2246C160.648 60.1562 160.728 60.0332 160.728 59.8555C160.728 59.6777 160.623 59.5456 160.413 59.459C160.208 59.3678 159.935 59.3223 159.593 59.3223L159.641 58.5977C160.32 58.5977 160.835 58.7161 161.186 58.9531C161.536 59.1855 161.712 59.4954 161.712 59.8828C161.712 60.1608 161.623 60.391 161.445 60.5732C161.268 60.7555 161.003 60.8717 160.652 60.9219L160.646 61.4072H159.743ZM169.635 62.6035L169.669 63.4238C170.211 62.7858 170.943 62.4668 171.863 62.4668C172.898 62.4668 173.602 62.8633 173.976 63.6562C174.222 63.3008 174.541 63.0137 174.933 62.7949C175.329 62.5762 175.796 62.4668 176.334 62.4668C177.956 62.4668 178.781 63.3258 178.809 65.0439V70H177.544V65.1191C177.544 64.5905 177.423 64.1963 177.182 63.9365C176.94 63.6722 176.535 63.54 175.965 63.54C175.495 63.54 175.106 63.6813 174.796 63.9639C174.486 64.2419 174.306 64.6178 174.256 65.0918V70H172.984V65.1533C172.984 64.0778 172.458 63.54 171.405 63.54C170.576 63.54 170.008 63.8932 169.703 64.5996V70H168.438V62.6035H169.635ZM180.388 66.2334C180.388 65.5088 180.529 64.8571 180.812 64.2783C181.099 63.6995 181.495 63.2529 182.001 62.9385C182.511 62.624 183.092 62.4668 183.744 62.4668C184.751 62.4668 185.565 62.8154 186.185 63.5127C186.809 64.21 187.121 65.1374 187.121 66.2949V66.3838C187.121 67.1038 186.982 67.751 186.704 68.3252C186.431 68.8949 186.036 69.3392 185.521 69.6582C185.011 69.9772 184.423 70.1367 183.758 70.1367C182.755 70.1367 181.942 69.7881 181.317 69.0908C180.698 68.3936 180.388 67.4707 180.388 66.3223V66.2334ZM181.659 66.3838C181.659 67.2041 181.848 67.8626 182.227 68.3594C182.609 68.8561 183.12 69.1045 183.758 69.1045C184.4 69.1045 184.911 68.8538 185.289 68.3525C185.667 67.8467 185.856 67.1403 185.856 66.2334C185.856 65.4222 185.663 64.766 185.275 64.2646C184.893 63.7588 184.382 63.5059 183.744 63.5059C183.12 63.5059 182.616 63.7542 182.233 64.251C181.851 64.7477 181.659 65.4587 181.659 66.3838ZM185.768 61.373V61.4414H184.722L183.696 60.2793L182.678 61.4414H181.632V61.3594L183.313 59.5H184.079L185.768 61.373ZM189.903 62.6035L189.944 63.5332C190.509 62.8223 191.248 62.4668 192.159 62.4668C193.722 62.4668 194.511 63.3486 194.524 65.1123V70H193.26V65.1055C193.255 64.5723 193.132 64.1781 192.891 63.9229C192.654 63.6676 192.282 63.54 191.776 63.54C191.366 63.54 191.006 63.6494 190.696 63.8682C190.386 64.0869 190.145 64.374 189.972 64.7295V70H188.707V62.6035H189.903Z" fill="#8C8C8C"/>
<path d="M5 1H219V-1H5V1ZM223 5V179H225V5H223ZM219 183H4.99999V185H219V183ZM1 179V5H-1V179H1ZM4.99999 183C2.79086 183 1 181.209 1 179H-1C-1 182.314 1.68628 185 4.99999 185V183ZM223 179C223 181.209 221.209 183 219 183V185C222.314 185 225 182.314 225 179H223ZM219 1C221.209 1 223 2.79086 223 5H225C225 1.68629 222.314 -1 219 -1V1ZM5 -1C1.68629 -1 -1 1.6863 -1 5H1C1 2.79086 2.79086 1 5 1V-1Z" fill="#E8E8E8"/>
<defs>
<filter id="filter0_i" x="126" y="16" width="58" height="22" filterUnits="userSpaceOnUse" color-interpolation-filters="sRGB">
<feFlood flood-opacity="0" result="BackgroundImageFix"/>
<feBlend mode="normal" in="SourceGraphic" in2="BackgroundImageFix" result="shape"/>
<feColorMatrix in="SourceAlpha" type="matrix" values="0 0 0 0 0 0 0 0 0 0 0 0 0 0 0 0 0 0 127 0" result="hardAlpha"/>
<feOffset dy="-1"/>
<feComposite in2="hardAlpha" operator="arithmetic" k2="-1" k3="1"/>
<feColorMatrix type="matrix" values="0 0 0 0 0.180392 0 0 0 0 0.709804 0 0 0 0 0.32549 0 0 0 1 0"/>
<feBlend mode="normal" in2="shape" result="effect1_innerShadow"/>
</filter>
<filter id="filter1_i" x="78" y="54" width="58" height="22" filterUnits="userSpaceOnUse" color-interpolation-filters="sRGB">
<feFlood flood-opacity="0" result="BackgroundImageFix"/>
<feBlend mode="normal" in="SourceGraphic" in2="BackgroundImageFix" result="shape"/>
<feColorMatrix in="SourceAlpha" type="matrix" values="0 0 0 0 0 0 0 0 0 0 0 0 0 0 0 0 0 0 127 0" result="hardAlpha"/>
<feOffset dy="-1"/>
<feComposite in2="hardAlpha" operator="arithmetic" k2="-1" k3="1"/>
<feColorMatrix type="matrix" values="0 0 0 0 0.180392 0 0 0 0 0.709804 0 0 0 0 0.32549 0 0 0 1 0"/>
<feBlend mode="normal" in2="shape" result="effect1_innerShadow"/>
</filter>
</defs>
</svg>
