<svg width="223" height="184" viewBox="0 0 223 184" fill="none" xmlns="http://www.w3.org/2000/svg">
<path d="M0 5C0 2.23858 2.23858 0 5 0H218C220.761 0 223 2.23858 223 5V179C223 181.761 220.761 184 218 184H5C2.23858 184 0 181.761 0 179V5Z" fill="white"/>
<path d="M24.8047 29H23.4854L18.4746 21.3301V29H17.1553V19.0469H18.4746L23.499 26.751V19.0469H24.8047V29ZM26.6025 25.2334C26.6025 24.5088 26.7438 23.8571 27.0264 23.2783C27.3135 22.6995 27.71 22.2529 28.2158 21.9385C28.7262 21.624 29.3073 21.4668 29.959 21.4668C30.9661 21.4668 31.7796 21.8154 32.3994 22.5127C33.0238 23.21 33.3359 24.1374 33.3359 25.2949V25.3838C33.3359 26.1038 33.1969 26.751 32.9189 27.3252C32.6455 27.8949 32.2513 28.3392 31.7363 28.6582C31.2259 28.9772 30.638 29.1367 29.9727 29.1367C28.9701 29.1367 28.1566 28.7881 27.5322 28.0908C26.9124 27.3936 26.6025 26.4707 26.6025 25.3223V25.2334ZM27.874 25.3838C27.874 26.2041 28.0632 26.8626 28.4414 27.3594C28.8242 27.8561 29.3346 28.1045 29.9727 28.1045C30.6152 28.1045 31.1257 27.8538 31.5039 27.3525C31.8822 26.8467 32.0713 26.1403 32.0713 25.2334C32.0713 24.4222 31.8776 23.766 31.4902 23.2646C31.1074 22.7588 30.597 22.5059 29.959 22.5059C29.3346 22.5059 28.8311 22.7542 28.4482 23.251C28.0654 23.7477 27.874 24.4587 27.874 25.3838ZM31.9824 20.373V20.4414H30.9365L29.9111 19.2793L28.8926 20.4414H27.8467V20.3594L29.5283 18.5H30.2939L31.9824 20.373ZM29.1865 30.6748C29.1865 30.4697 29.248 30.2965 29.3711 30.1553C29.4987 30.014 29.6855 29.9434 29.9316 29.9434C30.1777 29.9434 30.3646 30.014 30.4922 30.1553C30.6198 30.2965 30.6836 30.4697 30.6836 30.6748C30.6836 30.8799 30.6198 31.0508 30.4922 31.1875C30.3646 31.3242 30.1777 31.3926 29.9316 31.3926C29.6855 31.3926 29.4987 31.3242 29.3711 31.1875C29.248 31.0508 29.1865 30.8799 29.1865 30.6748ZM36.2959 29H35.0312V21.6035H36.2959V29ZM34.9287 19.6416C34.9287 19.4365 34.9902 19.2633 35.1133 19.1221C35.2409 18.9808 35.4277 18.9102 35.6738 18.9102C35.9199 18.9102 36.1068 18.9808 36.2344 19.1221C36.362 19.2633 36.4258 19.4365 36.4258 19.6416C36.4258 19.8467 36.362 20.0176 36.2344 20.1543C36.1068 20.291 35.9199 20.3594 35.6738 20.3594C35.4277 20.3594 35.2409 20.291 35.1133 20.1543C34.9902 20.0176 34.9287 19.8467 34.9287 19.6416ZM41.4912 25.2402C41.4912 24.1055 41.7601 23.194 42.2979 22.5059C42.8356 21.8132 43.5397 21.4668 44.4102 21.4668C45.276 21.4668 45.9619 21.763 46.4678 22.3555V18.5H47.7324V29H46.5703L46.5088 28.207C46.0029 28.8268 45.2988 29.1367 44.3965 29.1367C43.5397 29.1367 42.8402 28.7858 42.2979 28.084C41.7601 27.3822 41.4912 26.4661 41.4912 25.3359V25.2402ZM42.7559 25.3838C42.7559 26.2223 42.929 26.8786 43.2754 27.3525C43.6217 27.8265 44.1003 28.0635 44.7109 28.0635C45.513 28.0635 46.0986 27.7035 46.4678 26.9834V23.5859C46.0895 22.8887 45.5085 22.54 44.7246 22.54C44.1048 22.54 43.6217 22.7793 43.2754 23.2578C42.929 23.7363 42.7559 24.445 42.7559 25.3838ZM54.2676 28.2686C53.7754 28.8473 53.0531 29.1367 52.1006 29.1367C51.3122 29.1367 50.7106 28.9089 50.2959 28.4531C49.8857 27.9928 49.6784 27.3138 49.6738 26.416V21.6035H50.9385V26.3818C50.9385 27.5029 51.3942 28.0635 52.3057 28.0635C53.2718 28.0635 53.9144 27.7035 54.2334 26.9834V21.6035H55.498V29H54.2949L54.2676 28.2686ZM58.6221 21.6035L58.6631 22.5332C59.2282 21.8223 59.9665 21.4668 60.8779 21.4668C62.4411 21.4668 63.2295 22.3486 63.2432 24.1123V29H61.9785V24.1055C61.974 23.5723 61.8509 23.1781 61.6094 22.9229C61.3724 22.6676 61.001 22.54 60.4951 22.54C60.085 22.54 59.7249 22.6494 59.415 22.8682C59.1051 23.0869 58.8636 23.374 58.6904 23.7295V29H57.4258V21.6035H58.6221ZM64.8496 25.2402C64.8496 24.0872 65.1162 23.1712 65.6494 22.4922C66.1826 21.8086 66.889 21.4668 67.7686 21.4668C68.6709 21.4668 69.375 21.7858 69.8809 22.4238L69.9424 21.6035H71.0977V28.8223C71.0977 29.7793 70.8128 30.5335 70.2432 31.085C69.6781 31.6364 68.917 31.9121 67.96 31.9121C67.4268 31.9121 66.9049 31.7982 66.3945 31.5703C65.8841 31.3424 65.4945 31.0303 65.2256 30.6338L65.8818 29.875C66.4242 30.5449 67.0872 30.8799 67.8711 30.8799C68.4863 30.8799 68.9648 30.7067 69.3066 30.3604C69.653 30.014 69.8262 29.5264 69.8262 28.8975V28.2617C69.3203 28.8451 68.6299 29.1367 67.7549 29.1367C66.889 29.1367 66.1872 28.7881 65.6494 28.0908C65.1162 27.3936 64.8496 26.4434 64.8496 25.2402ZM66.1211 25.3838C66.1211 26.2178 66.292 26.874 66.6338 27.3525C66.9756 27.8265 67.4541 28.0635 68.0693 28.0635C68.8669 28.0635 69.4525 27.7012 69.8262 26.9766V23.5996C69.4388 22.8932 68.8577 22.54 68.083 22.54C67.4678 22.54 66.987 22.7793 66.6406 23.2578C66.2943 23.7363 66.1211 24.445 66.1211 25.3838ZM79.4512 28.1045C79.9023 28.1045 80.2965 27.9678 80.6338 27.6943C80.971 27.4209 81.1579 27.0791 81.1943 26.6689H82.3906C82.3678 27.0928 82.222 27.4961 81.9531 27.8789C81.6842 28.2617 81.3242 28.5671 80.873 28.7949C80.4264 29.0228 79.9525 29.1367 79.4512 29.1367C78.444 29.1367 77.6419 28.8018 77.0449 28.1318C76.4525 27.4574 76.1562 26.5368 76.1562 25.3701V25.1582C76.1562 24.4382 76.2884 23.7979 76.5527 23.2373C76.8171 22.6768 77.1953 22.2415 77.6875 21.9316C78.1842 21.6217 78.7699 21.4668 79.4443 21.4668C80.2738 21.4668 80.9619 21.7152 81.5088 22.2119C82.0602 22.7087 82.3542 23.3535 82.3906 24.1465H81.1943C81.1579 23.668 80.9756 23.276 80.6475 22.9707C80.3239 22.6608 79.9229 22.5059 79.4443 22.5059C78.8018 22.5059 78.3027 22.7383 77.9473 23.2031C77.5964 23.6634 77.4209 24.3311 77.4209 25.2061V25.4453C77.4209 26.2975 77.5964 26.9538 77.9473 27.4141C78.2982 27.8743 78.7995 28.1045 79.4512 28.1045ZM88.3789 29C88.306 28.8542 88.2467 28.5944 88.2012 28.2207C87.6133 28.8314 86.9115 29.1367 86.0957 29.1367C85.3665 29.1367 84.7673 28.9316 84.2979 28.5215C83.833 28.1068 83.6006 27.5827 83.6006 26.9492C83.6006 26.179 83.8923 25.582 84.4756 25.1582C85.0635 24.7298 85.8883 24.5156 86.9502 24.5156H88.1807V23.9346C88.1807 23.4925 88.0485 23.1416 87.7842 22.8818C87.5199 22.6175 87.1302 22.4854 86.6152 22.4854C86.1641 22.4854 85.7858 22.5993 85.4805 22.8271C85.1751 23.055 85.0225 23.3307 85.0225 23.6543H83.751C83.751 23.2852 83.8809 22.9297 84.1406 22.5879C84.4049 22.2415 84.7604 21.9681 85.207 21.7676C85.6582 21.5671 86.1527 21.4668 86.6904 21.4668C87.5426 21.4668 88.2103 21.681 88.6934 22.1094C89.1764 22.5332 89.4271 23.1188 89.4453 23.8662V27.2705C89.4453 27.9495 89.5319 28.4896 89.7051 28.8906V29H88.3789ZM86.2803 28.0361C86.6768 28.0361 87.0527 27.9336 87.4082 27.7285C87.7637 27.5234 88.0212 27.2568 88.1807 26.9287V25.4111H87.1895C85.64 25.4111 84.8652 25.8646 84.8652 26.7715C84.8652 27.168 84.9974 27.4779 85.2617 27.7012C85.526 27.9245 85.8656 28.0361 86.2803 28.0361ZM88.8984 20.373V20.4414H87.8525L86.8271 19.2793L85.8086 20.4414H84.7627V20.3594L86.4443 18.5H87.21L88.8984 20.373ZM95.9941 28.2686C95.502 28.8473 94.7796 29.1367 93.8271 29.1367C93.0387 29.1367 92.4372 28.9089 92.0225 28.4531C91.6123 27.9928 91.4049 27.3138 91.4004 26.416V21.6035H92.665V26.3818C92.665 27.5029 93.1208 28.0635 94.0322 28.0635C94.9984 28.0635 95.641 27.7035 95.96 26.9834V21.6035H97.2246V29H96.0215L95.9941 28.2686ZM103.89 22.499C104.45 21.8109 105.179 21.4668 106.077 21.4668C107.64 21.4668 108.429 22.3486 108.442 24.1123V29H107.178V24.1055C107.173 23.5723 107.05 23.1781 106.809 22.9229C106.572 22.6676 106.2 22.54 105.694 22.54C105.284 22.54 104.924 22.6494 104.614 22.8682C104.304 23.0869 104.063 23.374 103.89 23.7295V29H102.625V18.5H103.89V22.499ZM110.001 25.2334C110.001 24.5088 110.142 23.8571 110.425 23.2783C110.712 22.6995 111.108 22.2529 111.614 21.9385C112.125 21.624 112.706 21.4668 113.357 21.4668C114.365 21.4668 115.178 21.8154 115.798 22.5127C116.422 23.21 116.734 24.1374 116.734 25.2949V25.3838C116.734 26.1038 116.595 26.751 116.317 27.3252C116.044 27.8949 115.65 28.3392 115.135 28.6582C114.624 28.9772 114.036 29.1367 113.371 29.1367C112.368 29.1367 111.555 28.7881 110.931 28.0908C110.311 27.3936 110.001 26.4707 110.001 25.3223V25.2334ZM111.272 25.3838C111.272 26.2041 111.462 26.8626 111.84 27.3594C112.223 27.8561 112.733 28.1045 113.371 28.1045C114.014 28.1045 114.524 27.8538 114.902 27.3525C115.281 26.8467 115.47 26.1403 115.47 25.2334C115.47 24.4222 115.276 23.766 114.889 23.2646C114.506 22.7588 113.995 22.5059 113.357 22.5059C112.733 22.5059 112.229 22.7542 111.847 23.251C111.464 23.7477 111.272 24.4587 111.272 25.3838ZM112.886 20.4072L112.879 19.3613C113.221 19.3385 113.471 19.293 113.631 19.2246C113.79 19.1562 113.87 19.0332 113.87 18.8555C113.87 18.6777 113.765 18.5456 113.556 18.459C113.351 18.3678 113.077 18.3223 112.735 18.3223L112.783 17.5977C113.462 17.5977 113.977 17.7161 114.328 17.9531C114.679 18.1855 114.854 18.4954 114.854 18.8828C114.854 19.1608 114.766 19.391 114.588 19.5732C114.41 19.7555 114.146 19.8717 113.795 19.9219L113.788 20.4072H112.886ZM119.694 29H118.43V21.6035H119.694V29ZM118.327 19.6416C118.327 19.4365 118.389 19.2633 118.512 19.1221C118.639 18.9808 118.826 18.9102 119.072 18.9102C119.318 18.9102 119.505 18.9808 119.633 19.1221C119.76 19.2633 119.824 19.4365 119.824 19.6416C119.824 19.8467 119.76 20.0176 119.633 20.1543C119.505 20.291 119.318 20.3594 119.072 20.3594C118.826 20.3594 118.639 20.291 118.512 20.1543C118.389 20.0176 118.327 19.8467 118.327 19.6416ZM121.752 28.3369C121.752 28.1182 121.816 27.9359 121.943 27.79C122.076 27.6442 122.271 27.5713 122.531 27.5713C122.791 27.5713 122.987 27.6442 123.119 27.79C123.256 27.9359 123.324 28.1182 123.324 28.3369C123.324 28.5465 123.256 28.722 123.119 28.8633C122.987 29.0046 122.791 29.0752 122.531 29.0752C122.271 29.0752 122.076 29.0046 121.943 28.8633C121.816 28.722 121.752 28.5465 121.752 28.3369ZM125.443 28.3369C125.443 28.1182 125.507 27.9359 125.635 27.79C125.767 27.6442 125.963 27.5713 126.223 27.5713C126.482 27.5713 126.678 27.6442 126.811 27.79C126.947 27.9359 127.016 28.1182 127.016 28.3369C127.016 28.5465 126.947 28.722 126.811 28.8633C126.678 29.0046 126.482 29.0752 126.223 29.0752C125.963 29.0752 125.767 29.0046 125.635 28.8633C125.507 28.722 125.443 28.5465 125.443 28.3369ZM129.135 28.3369C129.135 28.1182 129.199 27.9359 129.326 27.79C129.458 27.6442 129.654 27.5713 129.914 27.5713C130.174 27.5713 130.37 27.6442 130.502 27.79C130.639 27.9359 130.707 28.1182 130.707 28.3369C130.707 28.5465 130.639 28.722 130.502 28.8633C130.37 29.0046 130.174 29.0752 129.914 29.0752C129.654 29.0752 129.458 29.0046 129.326 28.8633C129.199 28.722 129.135 28.5465 129.135 28.3369Z" fill="#8C8C8C"/>
<path d="M16 60C16 53.3726 21.3726 48 28 48C34.6274 48 40 53.3726 40 60C40 66.6274 34.6274 72 28 72C21.3726 72 16 66.6274 16 60Z" fill="#F6F6F6"/>
<path d="M30.085 62.4023H25.915L24.9785 65H23.625L27.4258 55.0469H28.5742L32.3818 65H31.0352L30.085 62.4023ZM26.3115 61.3223H29.6953L28 56.667L26.3115 61.3223Z" fill="#8C8C8C"/>
<path d="M53.3604 64.5V59.9473H52.0479V58.915H53.3604V54.5469H56.1699C57.0358 54.5469 57.8014 54.7383 58.4668 55.1211C59.1322 55.5039 59.6449 56.0485 60.0049 56.7549C60.3695 57.4613 60.554 58.2725 60.5586 59.1885V59.8242C60.5586 60.763 60.3763 61.5856 60.0117 62.292C59.6517 62.9984 59.1344 63.5407 58.46 63.9189C57.79 64.2972 57.0085 64.4909 56.1152 64.5H53.3604ZM56.3955 59.9473H54.6729V63.4268H56.0469C57.0586 63.4268 57.8447 63.1146 58.4053 62.4902C58.9704 61.8659 59.2552 60.9863 59.2598 59.8516V59.2158C59.2598 58.0856 58.9932 57.2083 58.46 56.584C57.9313 55.9551 57.1794 55.6361 56.2041 55.627H54.6729V58.915H56.3955V59.9473ZM66.916 64.5C66.8431 64.3542 66.7839 64.0944 66.7383 63.7207C66.1504 64.3314 65.4486 64.6367 64.6328 64.6367C63.9036 64.6367 63.3044 64.4316 62.835 64.0215C62.3701 63.6068 62.1377 63.0827 62.1377 62.4492C62.1377 61.679 62.4294 61.082 63.0127 60.6582C63.6006 60.2298 64.4255 60.0156 65.4873 60.0156H66.7178V59.4346C66.7178 58.9925 66.5856 58.6416 66.3213 58.3818C66.057 58.1175 65.6673 57.9854 65.1523 57.9854C64.7012 57.9854 64.3229 58.0993 64.0176 58.3271C63.7122 58.555 63.5596 58.8307 63.5596 59.1543H62.2881C62.2881 58.7852 62.418 58.4297 62.6777 58.0879C62.9421 57.7415 63.2975 57.4681 63.7441 57.2676C64.1953 57.0671 64.6898 56.9668 65.2275 56.9668C66.0798 56.9668 66.7474 57.181 67.2305 57.6094C67.7135 58.0332 67.9642 58.6188 67.9824 59.3662V62.7705C67.9824 63.4495 68.069 63.9896 68.2422 64.3906V64.5H66.916ZM64.8174 63.5361C65.2139 63.5361 65.5898 63.4336 65.9453 63.2285C66.3008 63.0234 66.5583 62.7568 66.7178 62.4287V60.9111H65.7266C64.1771 60.9111 63.4023 61.3646 63.4023 62.2715C63.4023 62.668 63.5345 62.9779 63.7988 63.2012C64.0632 63.4245 64.4027 63.5361 64.8174 63.5361ZM65.9863 54H67.5176L65.6855 56.0098H64.667L65.9863 54ZM76.2129 60.8838C76.2129 62.0094 75.9554 62.9163 75.4404 63.6045C74.9255 64.2926 74.2282 64.6367 73.3486 64.6367C72.4508 64.6367 71.7445 64.3519 71.2295 63.7822V67.3438H69.9648V57.1035H71.1201L71.1816 57.9238C71.6966 57.2858 72.4121 56.9668 73.3281 56.9668C74.2168 56.9668 74.9186 57.3018 75.4336 57.9717C75.9531 58.6416 76.2129 59.5736 76.2129 60.7676V60.8838ZM74.9482 60.7402C74.9482 59.9062 74.7705 59.2477 74.415 58.7646C74.0596 58.2816 73.5719 58.04 72.9521 58.04C72.1865 58.04 71.6123 58.3796 71.2295 59.0586V62.5928C71.6077 63.2673 72.1865 63.6045 72.9658 63.6045C73.5719 63.6045 74.0527 63.3652 74.4082 62.8867C74.7682 62.4036 74.9482 61.6882 74.9482 60.7402ZM85.8652 64.5C85.7923 64.3542 85.7331 64.0944 85.6875 63.7207C85.0996 64.3314 84.3978 64.6367 83.582 64.6367C82.8529 64.6367 82.2536 64.4316 81.7842 64.0215C81.3193 63.6068 81.0869 63.0827 81.0869 62.4492C81.0869 61.679 81.3786 61.082 81.9619 60.6582C82.5498 60.2298 83.3747 60.0156 84.4365 60.0156H85.667V59.4346C85.667 58.9925 85.5348 58.6416 85.2705 58.3818C85.0062 58.1175 84.6165 57.9854 84.1016 57.9854C83.6504 57.9854 83.2721 58.0993 82.9668 58.3271C82.6615 58.555 82.5088 58.8307 82.5088 59.1543H81.2373C81.2373 58.7852 81.3672 58.4297 81.627 58.0879C81.8913 57.7415 82.2467 57.4681 82.6934 57.2676C83.1445 57.0671 83.639 56.9668 84.1768 56.9668C85.029 56.9668 85.6966 57.181 86.1797 57.6094C86.6628 58.0332 86.9134 58.6188 86.9316 59.3662V62.7705C86.9316 63.4495 87.0182 63.9896 87.1914 64.3906V64.5H85.8652ZM83.7666 63.5361C84.1631 63.5361 84.5391 63.4336 84.8945 63.2285C85.25 63.0234 85.5075 62.7568 85.667 62.4287V60.9111H84.6758C83.1263 60.9111 82.3516 61.3646 82.3516 62.2715C82.3516 62.668 82.4837 62.9779 82.748 63.2012C83.0124 63.4245 83.3519 63.5361 83.7666 63.5361ZM84.9355 54H86.4668L84.6348 56.0098H83.6162L84.9355 54ZM90.1104 57.1035L90.1514 58.0332C90.7165 57.3223 91.4548 56.9668 92.3662 56.9668C93.9294 56.9668 94.7178 57.8486 94.7314 59.6123V64.5H93.4668V59.6055C93.4622 59.0723 93.3392 58.6781 93.0977 58.4229C92.8607 58.1676 92.4893 58.04 91.9834 58.04C91.5732 58.04 91.2132 58.1494 90.9033 58.3682C90.5934 58.5869 90.3519 58.874 90.1787 59.2295V64.5H88.9141V57.1035H90.1104ZM105.806 61.9023H101.636L100.699 64.5H99.3457L103.146 54.5469H104.295L108.103 64.5H106.756L105.806 61.9023ZM102.032 60.8223H105.416L103.721 56.167L102.032 60.8223Z" fill="#8C8C8C"/>
<path d="M16 92C16 85.3726 21.3726 80 28 80C34.6274 80 40 85.3726 40 92C40 98.6274 34.6274 104 28 104C21.3726 104 16 98.6274 16 92Z" fill="#2EB553"/>
<path d="M25.2939 97V87.0469H28.5479C29.6279 87.0469 30.4391 87.2702 30.9814 87.7168C31.5283 88.1634 31.8018 88.8242 31.8018 89.6992C31.8018 90.1641 31.6696 90.5765 31.4053 90.9365C31.141 91.292 30.7809 91.5677 30.3252 91.7637C30.863 91.9141 31.2868 92.2012 31.5967 92.625C31.9111 93.0443 32.0684 93.5456 32.0684 94.1289C32.0684 95.0221 31.779 95.724 31.2002 96.2344C30.6214 96.7448 29.8034 97 28.7461 97H25.2939ZM26.6064 92.3447V95.9268H28.7734C29.3841 95.9268 29.8649 95.7695 30.2158 95.4551C30.5713 95.1361 30.749 94.6986 30.749 94.1426C30.749 92.944 30.0973 92.3447 28.7939 92.3447H26.6064ZM26.6064 91.292H28.5889C29.1631 91.292 29.6211 91.1484 29.9629 90.8613C30.3092 90.5742 30.4824 90.1846 30.4824 89.6924C30.4824 89.1455 30.3229 88.749 30.0039 88.5029C29.6849 88.2523 29.1995 88.127 28.5479 88.127H26.6064V91.292Z" fill="white"/>
<path d="M53.3604 96.5V91.9473H52.0479V90.915H53.3604V86.5469H56.1699C57.0358 86.5469 57.8014 86.7383 58.4668 87.1211C59.1322 87.5039 59.6449 88.0485 60.0049 88.7549C60.3695 89.4613 60.554 90.2725 60.5586 91.1885V91.8242C60.5586 92.763 60.3763 93.5856 60.0117 94.292C59.6517 94.9984 59.1344 95.5407 58.46 95.9189C57.79 96.2972 57.0085 96.4909 56.1152 96.5H53.3604ZM56.3955 91.9473H54.6729V95.4268H56.0469C57.0586 95.4268 57.8447 95.1146 58.4053 94.4902C58.9704 93.8659 59.2552 92.9863 59.2598 91.8516V91.2158C59.2598 90.0856 58.9932 89.2083 58.46 88.584C57.9313 87.9551 57.1794 87.6361 56.2041 87.627H54.6729V90.915H56.3955V91.9473ZM66.916 96.5C66.8431 96.3542 66.7839 96.0944 66.7383 95.7207C66.1504 96.3314 65.4486 96.6367 64.6328 96.6367C63.9036 96.6367 63.3044 96.4316 62.835 96.0215C62.3701 95.6068 62.1377 95.0827 62.1377 94.4492C62.1377 93.679 62.4294 93.082 63.0127 92.6582C63.6006 92.2298 64.4255 92.0156 65.4873 92.0156H66.7178V91.4346C66.7178 90.9925 66.5856 90.6416 66.3213 90.3818C66.057 90.1175 65.6673 89.9854 65.1523 89.9854C64.7012 89.9854 64.3229 90.0993 64.0176 90.3271C63.7122 90.555 63.5596 90.8307 63.5596 91.1543H62.2881C62.2881 90.7852 62.418 90.4297 62.6777 90.0879C62.9421 89.7415 63.2975 89.4681 63.7441 89.2676C64.1953 89.0671 64.6898 88.9668 65.2275 88.9668C66.0798 88.9668 66.7474 89.181 67.2305 89.6094C67.7135 90.0332 67.9642 90.6188 67.9824 91.3662V94.7705C67.9824 95.4495 68.069 95.9896 68.2422 96.3906V96.5H66.916ZM64.8174 95.5361C65.2139 95.5361 65.5898 95.4336 65.9453 95.2285C66.3008 95.0234 66.5583 94.7568 66.7178 94.4287V92.9111H65.7266C64.1771 92.9111 63.4023 93.3646 63.4023 94.2715C63.4023 94.668 63.5345 94.9779 63.7988 95.2012C64.0632 95.4245 64.4027 95.5361 64.8174 95.5361ZM65.9863 86H67.5176L65.6855 88.0098H64.667L65.9863 86ZM76.2129 92.8838C76.2129 94.0094 75.9554 94.9163 75.4404 95.6045C74.9255 96.2926 74.2282 96.6367 73.3486 96.6367C72.4508 96.6367 71.7445 96.3519 71.2295 95.7822V99.3438H69.9648V89.1035H71.1201L71.1816 89.9238C71.6966 89.2858 72.4121 88.9668 73.3281 88.9668C74.2168 88.9668 74.9186 89.3018 75.4336 89.9717C75.9531 90.6416 76.2129 91.5736 76.2129 92.7676V92.8838ZM74.9482 92.7402C74.9482 91.9062 74.7705 91.2477 74.415 90.7646C74.0596 90.2816 73.5719 90.04 72.9521 90.04C72.1865 90.04 71.6123 90.3796 71.2295 91.0586V94.5928C71.6077 95.2673 72.1865 95.6045 72.9658 95.6045C73.5719 95.6045 74.0527 95.3652 74.4082 94.8867C74.7682 94.4036 74.9482 93.6882 74.9482 92.7402ZM85.8652 96.5C85.7923 96.3542 85.7331 96.0944 85.6875 95.7207C85.0996 96.3314 84.3978 96.6367 83.582 96.6367C82.8529 96.6367 82.2536 96.4316 81.7842 96.0215C81.3193 95.6068 81.0869 95.0827 81.0869 94.4492C81.0869 93.679 81.3786 93.082 81.9619 92.6582C82.5498 92.2298 83.3747 92.0156 84.4365 92.0156H85.667V91.4346C85.667 90.9925 85.5348 90.6416 85.2705 90.3818C85.0062 90.1175 84.6165 89.9854 84.1016 89.9854C83.6504 89.9854 83.2721 90.0993 82.9668 90.3271C82.6615 90.555 82.5088 90.8307 82.5088 91.1543H81.2373C81.2373 90.7852 81.3672 90.4297 81.627 90.0879C81.8913 89.7415 82.2467 89.4681 82.6934 89.2676C83.1445 89.0671 83.639 88.9668 84.1768 88.9668C85.029 88.9668 85.6966 89.181 86.1797 89.6094C86.6628 90.0332 86.9134 90.6188 86.9316 91.3662V94.7705C86.9316 95.4495 87.0182 95.9896 87.1914 96.3906V96.5H85.8652ZM83.7666 95.5361C84.1631 95.5361 84.5391 95.4336 84.8945 95.2285C85.25 95.0234 85.5075 94.7568 85.667 94.4287V92.9111H84.6758C83.1263 92.9111 82.3516 93.3646 82.3516 94.2715C82.3516 94.668 82.4837 94.9779 82.748 95.2012C83.0124 95.4245 83.3519 95.5361 83.7666 95.5361ZM84.9355 86H86.4668L84.6348 88.0098H83.6162L84.9355 86ZM90.1104 89.1035L90.1514 90.0332C90.7165 89.3223 91.4548 88.9668 92.3662 88.9668C93.9294 88.9668 94.7178 89.8486 94.7314 91.6123V96.5H93.4668V91.6055C93.4622 91.0723 93.3392 90.6781 93.0977 90.4229C92.8607 90.1676 92.4893 90.04 91.9834 90.04C91.5732 90.04 91.2132 90.1494 90.9033 90.3682C90.5934 90.5869 90.3519 90.874 90.1787 91.2295V96.5H88.9141V89.1035H90.1104ZM100.31 96.5V86.5469H103.563C104.644 86.5469 105.455 86.7702 105.997 87.2168C106.544 87.6634 106.817 88.3242 106.817 89.1992C106.817 89.6641 106.685 90.0765 106.421 90.4365C106.157 90.792 105.797 91.0677 105.341 91.2637C105.879 91.4141 106.302 91.7012 106.612 92.125C106.927 92.5443 107.084 93.0456 107.084 93.6289C107.084 94.5221 106.795 95.224 106.216 95.7344C105.637 96.2448 104.819 96.5 103.762 96.5H100.31ZM101.622 91.8447V95.4268H103.789C104.4 95.4268 104.881 95.2695 105.231 94.9551C105.587 94.6361 105.765 94.1986 105.765 93.6426C105.765 92.444 105.113 91.8447 103.81 91.8447H101.622ZM101.622 90.792H103.604C104.179 90.792 104.637 90.6484 104.979 90.3613C105.325 90.0742 105.498 89.6846 105.498 89.1924C105.498 88.6455 105.339 88.249 105.02 88.0029C104.701 87.7523 104.215 87.627 103.563 87.627H101.622V90.792Z" fill="#2EB553"/>
<path d="M16 124C16 117.373 21.3726 112 28 112C34.6274 112 40 117.373 40 124C40 130.627 34.6274 136 28 136C21.3726 136 16 130.627 16 124Z" fill="#F6F6F6"/>
<path d="M31.917 125.842C31.7939 126.895 31.4043 127.708 30.748 128.282C30.0964 128.852 29.2282 129.137 28.1436 129.137C26.9678 129.137 26.0244 128.715 25.3135 127.872C24.6071 127.029 24.2539 125.901 24.2539 124.488V123.531C24.2539 122.606 24.418 121.793 24.7461 121.091C25.0788 120.389 25.5482 119.851 26.1543 119.478C26.7604 119.099 27.4622 118.91 28.2598 118.91C29.3171 118.91 30.1647 119.206 30.8027 119.799C31.4408 120.387 31.8122 121.202 31.917 122.246H30.5977C30.4837 121.453 30.2354 120.879 29.8525 120.523C29.4743 120.168 28.9434 119.99 28.2598 119.99C27.4212 119.99 26.7627 120.3 26.2842 120.92C25.8102 121.54 25.5732 122.422 25.5732 123.565V124.529C25.5732 125.609 25.7988 126.468 26.25 127.106C26.7012 127.744 27.3324 128.063 28.1436 128.063C28.8727 128.063 29.431 127.899 29.8184 127.571C30.2103 127.239 30.4701 126.662 30.5977 125.842H31.917Z" fill="#8C8C8C"/>
<path d="M53.3604 128.5V123.947H52.0479V122.915H53.3604V118.547H56.1699C57.0358 118.547 57.8014 118.738 58.4668 119.121C59.1322 119.504 59.6449 120.049 60.0049 120.755C60.3695 121.461 60.554 122.272 60.5586 123.188V123.824C60.5586 124.763 60.3763 125.586 60.0117 126.292C59.6517 126.998 59.1344 127.541 58.46 127.919C57.79 128.297 57.0085 128.491 56.1152 128.5H53.3604ZM56.3955 123.947H54.6729V127.427H56.0469C57.0586 127.427 57.8447 127.115 58.4053 126.49C58.9704 125.866 59.2552 124.986 59.2598 123.852V123.216C59.2598 122.086 58.9932 121.208 58.46 120.584C57.9313 119.955 57.1794 119.636 56.2041 119.627H54.6729V122.915H56.3955V123.947ZM66.916 128.5C66.8431 128.354 66.7839 128.094 66.7383 127.721C66.1504 128.331 65.4486 128.637 64.6328 128.637C63.9036 128.637 63.3044 128.432 62.835 128.021C62.3701 127.607 62.1377 127.083 62.1377 126.449C62.1377 125.679 62.4294 125.082 63.0127 124.658C63.6006 124.23 64.4255 124.016 65.4873 124.016H66.7178V123.435C66.7178 122.993 66.5856 122.642 66.3213 122.382C66.057 122.118 65.6673 121.985 65.1523 121.985C64.7012 121.985 64.3229 122.099 64.0176 122.327C63.7122 122.555 63.5596 122.831 63.5596 123.154H62.2881C62.2881 122.785 62.418 122.43 62.6777 122.088C62.9421 121.742 63.2975 121.468 63.7441 121.268C64.1953 121.067 64.6898 120.967 65.2275 120.967C66.0798 120.967 66.7474 121.181 67.2305 121.609C67.7135 122.033 67.9642 122.619 67.9824 123.366V126.771C67.9824 127.45 68.069 127.99 68.2422 128.391V128.5H66.916ZM64.8174 127.536C65.2139 127.536 65.5898 127.434 65.9453 127.229C66.3008 127.023 66.5583 126.757 66.7178 126.429V124.911H65.7266C64.1771 124.911 63.4023 125.365 63.4023 126.271C63.4023 126.668 63.5345 126.978 63.7988 127.201C64.0632 127.424 64.4027 127.536 64.8174 127.536ZM65.9863 118H67.5176L65.6855 120.01H64.667L65.9863 118ZM76.2129 124.884C76.2129 126.009 75.9554 126.916 75.4404 127.604C74.9255 128.293 74.2282 128.637 73.3486 128.637C72.4508 128.637 71.7445 128.352 71.2295 127.782V131.344H69.9648V121.104H71.1201L71.1816 121.924C71.6966 121.286 72.4121 120.967 73.3281 120.967C74.2168 120.967 74.9186 121.302 75.4336 121.972C75.9531 122.642 76.2129 123.574 76.2129 124.768V124.884ZM74.9482 124.74C74.9482 123.906 74.7705 123.248 74.415 122.765C74.0596 122.282 73.5719 122.04 72.9521 122.04C72.1865 122.04 71.6123 122.38 71.2295 123.059V126.593C71.6077 127.267 72.1865 127.604 72.9658 127.604C73.5719 127.604 74.0527 127.365 74.4082 126.887C74.7682 126.404 74.9482 125.688 74.9482 124.74ZM85.8652 128.5C85.7923 128.354 85.7331 128.094 85.6875 127.721C85.0996 128.331 84.3978 128.637 83.582 128.637C82.8529 128.637 82.2536 128.432 81.7842 128.021C81.3193 127.607 81.0869 127.083 81.0869 126.449C81.0869 125.679 81.3786 125.082 81.9619 124.658C82.5498 124.23 83.3747 124.016 84.4365 124.016H85.667V123.435C85.667 122.993 85.5348 122.642 85.2705 122.382C85.0062 122.118 84.6165 121.985 84.1016 121.985C83.6504 121.985 83.2721 122.099 82.9668 122.327C82.6615 122.555 82.5088 122.831 82.5088 123.154H81.2373C81.2373 122.785 81.3672 122.43 81.627 122.088C81.8913 121.742 82.2467 121.468 82.6934 121.268C83.1445 121.067 83.639 120.967 84.1768 120.967C85.029 120.967 85.6966 121.181 86.1797 121.609C86.6628 122.033 86.9134 122.619 86.9316 123.366V126.771C86.9316 127.45 87.0182 127.99 87.1914 128.391V128.5H85.8652ZM83.7666 127.536C84.1631 127.536 84.5391 127.434 84.8945 127.229C85.25 127.023 85.5075 126.757 85.667 126.429V124.911H84.6758C83.1263 124.911 82.3516 125.365 82.3516 126.271C82.3516 126.668 82.4837 126.978 82.748 127.201C83.0124 127.424 83.3519 127.536 83.7666 127.536ZM84.9355 118H86.4668L84.6348 120.01H83.6162L84.9355 118ZM90.1104 121.104L90.1514 122.033C90.7165 121.322 91.4548 120.967 92.3662 120.967C93.9294 120.967 94.7178 121.849 94.7314 123.612V128.5H93.4668V123.605C93.4622 123.072 93.3392 122.678 93.0977 122.423C92.8607 122.168 92.4893 122.04 91.9834 122.04C91.5732 122.04 91.2132 122.149 90.9033 122.368C90.5934 122.587 90.3519 122.874 90.1787 123.229V128.5H88.9141V121.104H90.1104ZM107.631 125.342C107.508 126.395 107.118 127.208 106.462 127.782C105.81 128.352 104.942 128.637 103.857 128.637C102.682 128.637 101.738 128.215 101.027 127.372C100.321 126.529 99.9678 125.401 99.9678 123.988V123.031C99.9678 122.106 100.132 121.293 100.46 120.591C100.793 119.889 101.262 119.351 101.868 118.978C102.474 118.599 103.176 118.41 103.974 118.41C105.031 118.41 105.879 118.706 106.517 119.299C107.155 119.887 107.526 120.702 107.631 121.746H106.312C106.198 120.953 105.949 120.379 105.566 120.023C105.188 119.668 104.657 119.49 103.974 119.49C103.135 119.49 102.477 119.8 101.998 120.42C101.524 121.04 101.287 121.922 101.287 123.065V124.029C101.287 125.109 101.513 125.968 101.964 126.606C102.415 127.244 103.046 127.563 103.857 127.563C104.587 127.563 105.145 127.399 105.532 127.071C105.924 126.739 106.184 126.162 106.312 125.342H107.631Z" fill="#8C8C8C"/>
<path d="M16 156C16 149.373 21.3726 144 28 144C34.6274 144 40 149.373 40 156C40 162.627 34.6274 168 28 168C21.3726 168 16 162.627 16 156Z" fill="#F6F6F6"/>
<path d="M24.5615 161V151.047H27.3711C28.237 151.047 29.0026 151.238 29.668 151.621C30.3333 152.004 30.846 152.549 31.2061 153.255C31.5706 153.961 31.7552 154.772 31.7598 155.688V156.324C31.7598 157.263 31.5775 158.086 31.2129 158.792C30.8529 159.498 30.3356 160.041 29.6611 160.419C28.9912 160.797 28.2096 160.991 27.3164 161H24.5615ZM25.874 152.127V159.927H27.2549C28.2666 159.927 29.0527 159.612 29.6133 158.983C30.1784 158.354 30.4609 157.459 30.4609 156.297V155.716C30.4609 154.586 30.1943 153.708 29.6611 153.084C29.1325 152.455 28.3805 152.136 27.4053 152.127H25.874Z" fill="#8C8C8C"/>
<path d="M53.3604 160.5V155.947H52.0479V154.915H53.3604V150.547H56.1699C57.0358 150.547 57.8014 150.738 58.4668 151.121C59.1322 151.504 59.6449 152.049 60.0049 152.755C60.3695 153.461 60.554 154.272 60.5586 155.188V155.824C60.5586 156.763 60.3763 157.586 60.0117 158.292C59.6517 158.998 59.1344 159.541 58.46 159.919C57.79 160.297 57.0085 160.491 56.1152 160.5H53.3604ZM56.3955 155.947H54.6729V159.427H56.0469C57.0586 159.427 57.8447 159.115 58.4053 158.49C58.9704 157.866 59.2552 156.986 59.2598 155.852V155.216C59.2598 154.086 58.9932 153.208 58.46 152.584C57.9313 151.955 57.1794 151.636 56.2041 151.627H54.6729V154.915H56.3955V155.947ZM66.916 160.5C66.8431 160.354 66.7839 160.094 66.7383 159.721C66.1504 160.331 65.4486 160.637 64.6328 160.637C63.9036 160.637 63.3044 160.432 62.835 160.021C62.3701 159.607 62.1377 159.083 62.1377 158.449C62.1377 157.679 62.4294 157.082 63.0127 156.658C63.6006 156.23 64.4255 156.016 65.4873 156.016H66.7178V155.435C66.7178 154.993 66.5856 154.642 66.3213 154.382C66.057 154.118 65.6673 153.985 65.1523 153.985C64.7012 153.985 64.3229 154.099 64.0176 154.327C63.7122 154.555 63.5596 154.831 63.5596 155.154H62.2881C62.2881 154.785 62.418 154.43 62.6777 154.088C62.9421 153.742 63.2975 153.468 63.7441 153.268C64.1953 153.067 64.6898 152.967 65.2275 152.967C66.0798 152.967 66.7474 153.181 67.2305 153.609C67.7135 154.033 67.9642 154.619 67.9824 155.366V158.771C67.9824 159.45 68.069 159.99 68.2422 160.391V160.5H66.916ZM64.8174 159.536C65.2139 159.536 65.5898 159.434 65.9453 159.229C66.3008 159.023 66.5583 158.757 66.7178 158.429V156.911H65.7266C64.1771 156.911 63.4023 157.365 63.4023 158.271C63.4023 158.668 63.5345 158.978 63.7988 159.201C64.0632 159.424 64.4027 159.536 64.8174 159.536ZM65.9863 150H67.5176L65.6855 152.01H64.667L65.9863 150ZM76.2129 156.884C76.2129 158.009 75.9554 158.916 75.4404 159.604C74.9255 160.293 74.2282 160.637 73.3486 160.637C72.4508 160.637 71.7445 160.352 71.2295 159.782V163.344H69.9648V153.104H71.1201L71.1816 153.924C71.6966 153.286 72.4121 152.967 73.3281 152.967C74.2168 152.967 74.9186 153.302 75.4336 153.972C75.9531 154.642 76.2129 155.574 76.2129 156.768V156.884ZM74.9482 156.74C74.9482 155.906 74.7705 155.248 74.415 154.765C74.0596 154.282 73.5719 154.04 72.9521 154.04C72.1865 154.04 71.6123 154.38 71.2295 155.059V158.593C71.6077 159.267 72.1865 159.604 72.9658 159.604C73.5719 159.604 74.0527 159.365 74.4082 158.887C74.7682 158.404 74.9482 157.688 74.9482 156.74ZM85.8652 160.5C85.7923 160.354 85.7331 160.094 85.6875 159.721C85.0996 160.331 84.3978 160.637 83.582 160.637C82.8529 160.637 82.2536 160.432 81.7842 160.021C81.3193 159.607 81.0869 159.083 81.0869 158.449C81.0869 157.679 81.3786 157.082 81.9619 156.658C82.5498 156.23 83.3747 156.016 84.4365 156.016H85.667V155.435C85.667 154.993 85.5348 154.642 85.2705 154.382C85.0062 154.118 84.6165 153.985 84.1016 153.985C83.6504 153.985 83.2721 154.099 82.9668 154.327C82.6615 154.555 82.5088 154.831 82.5088 155.154H81.2373C81.2373 154.785 81.3672 154.43 81.627 154.088C81.8913 153.742 82.2467 153.468 82.6934 153.268C83.1445 153.067 83.639 152.967 84.1768 152.967C85.029 152.967 85.6966 153.181 86.1797 153.609C86.6628 154.033 86.9134 154.619 86.9316 155.366V158.771C86.9316 159.45 87.0182 159.99 87.1914 160.391V160.5H85.8652ZM83.7666 159.536C84.1631 159.536 84.5391 159.434 84.8945 159.229C85.25 159.023 85.5075 158.757 85.667 158.429V156.911H84.6758C83.1263 156.911 82.3516 157.365 82.3516 158.271C82.3516 158.668 82.4837 158.978 82.748 159.201C83.0124 159.424 83.3519 159.536 83.7666 159.536ZM84.9355 150H86.4668L84.6348 152.01H83.6162L84.9355 150ZM90.1104 153.104L90.1514 154.033C90.7165 153.322 91.4548 152.967 92.3662 152.967C93.9294 152.967 94.7178 153.849 94.7314 155.612V160.5H93.4668V155.605C93.4622 155.072 93.3392 154.678 93.0977 154.423C92.8607 154.168 92.4893 154.04 91.9834 154.04C91.5732 154.04 91.2132 154.149 90.9033 154.368C90.5934 154.587 90.3519 154.874 90.1787 155.229V160.5H88.9141V153.104H90.1104ZM100.31 160.5V150.547H103.119C103.985 150.547 104.751 150.738 105.416 151.121C106.081 151.504 106.594 152.049 106.954 152.755C107.319 153.461 107.503 154.272 107.508 155.188V155.824C107.508 156.763 107.326 157.586 106.961 158.292C106.601 158.998 106.084 159.541 105.409 159.919C104.739 160.297 103.958 160.491 103.064 160.5H100.31ZM101.622 151.627V159.427H103.003C104.015 159.427 104.801 159.112 105.361 158.483C105.926 157.854 106.209 156.959 106.209 155.797V155.216C106.209 154.086 105.942 153.208 105.409 152.584C104.881 151.955 104.129 151.636 103.153 151.627H101.622Z" fill="#8C8C8C"/>
<path d="M5 1H218V-1H5V1ZM222 5V179H224V5H222ZM218 183H5V185H218V183ZM1 179V5H-1V179H1ZM5 183C2.79086 183 1 181.209 1 179H-1C-1 182.314 1.6863 185 5 185V183ZM222 179C222 181.209 220.209 183 218 183V185C221.314 185 224 182.314 224 179H222ZM218 1C220.209 1 222 2.79086 222 5H224C224 1.68629 221.314 -1 218 -1V1ZM5 -1C1.68629 -1 -1 1.6863 -1 5H1C1 2.79086 2.79086 1 5 1V-1Z" fill="#E8E8E8"/>
</svg>
