<svg width="216" height="178" viewBox="0 0 216 178" fill="none" xmlns="http://www.w3.org/2000/svg">
  <rect width="216" height="178" rx="4" fill="white" />
  <path
    d="M17.5723 20.0469H18.8506L22.1113 28.1611L25.3652 20.0469H26.6504L22.6035 30H21.6055L17.5723 20.0469ZM17.1553 20.0469H18.2832L18.4678 26.1172V30H17.1553V20.0469ZM25.9326 20.0469H27.0605V30H25.748V26.1172L25.9326 20.0469ZM28.8516 26.3838V26.2266C28.8516 25.6934 28.929 25.1989 29.084 24.7432C29.2389 24.2829 29.4622 23.8841 29.7539 23.5469C30.0456 23.2051 30.3988 22.9408 30.8135 22.7539C31.2282 22.5625 31.693 22.4668 32.208 22.4668C32.7275 22.4668 33.1947 22.5625 33.6094 22.7539C34.0286 22.9408 34.3841 23.2051 34.6758 23.5469C34.972 23.8841 35.1976 24.2829 35.3525 24.7432C35.5075 25.1989 35.585 25.6934 35.585 26.2266V26.3838C35.585 26.917 35.5075 27.4115 35.3525 27.8672C35.1976 28.3229 34.972 28.7217 34.6758 29.0635C34.3841 29.4007 34.0309 29.665 33.6162 29.8564C33.2061 30.0433 32.7412 30.1367 32.2217 30.1367C31.7021 30.1367 31.235 30.0433 30.8203 29.8564C30.4056 29.665 30.0501 29.4007 29.7539 29.0635C29.4622 28.7217 29.2389 28.3229 29.084 27.8672C28.929 27.4115 28.8516 26.917 28.8516 26.3838ZM30.1162 26.2266V26.3838C30.1162 26.7529 30.1595 27.1016 30.2461 27.4297C30.3327 27.7533 30.4626 28.0404 30.6357 28.291C30.8135 28.5417 31.0345 28.7399 31.2988 28.8857C31.5632 29.027 31.8708 29.0977 32.2217 29.0977C32.568 29.0977 32.8711 29.027 33.1309 28.8857C33.3952 28.7399 33.6139 28.5417 33.7871 28.291C33.9603 28.0404 34.0902 27.7533 34.1768 27.4297C34.2679 27.1016 34.3135 26.7529 34.3135 26.3838V26.2266C34.3135 25.862 34.2679 25.5179 34.1768 25.1943C34.0902 24.8662 33.958 24.5768 33.7803 24.3262C33.6071 24.071 33.3883 23.8704 33.124 23.7246C32.8643 23.5788 32.5589 23.5059 32.208 23.5059C31.8617 23.5059 31.5563 23.5788 31.292 23.7246C31.0322 23.8704 30.8135 24.071 30.6357 24.3262C30.4626 24.5768 30.3327 24.8662 30.2461 25.1943C30.1595 25.5179 30.1162 25.862 30.1162 26.2266ZM32.5361 19.5L34.2314 21.3662V21.4346H33.1787L32.1533 20.2793L31.1348 21.4346H30.0957V21.3594L31.7705 19.5H32.5361ZM31.4287 31.6885C31.4287 31.4834 31.4902 31.3102 31.6133 31.1689C31.7409 31.0277 31.9277 30.957 32.1738 30.957C32.4154 30.957 32.5999 31.0277 32.7275 31.1689C32.8597 31.3102 32.9258 31.4834 32.9258 31.6885C32.9258 31.8844 32.8597 32.0508 32.7275 32.1875C32.5999 32.3288 32.4154 32.3994 32.1738 32.3994C31.9277 32.3994 31.7409 32.3288 31.6133 32.1875C31.4902 32.0508 31.4287 31.8844 31.4287 31.6885ZM40.2676 22.6035V23.5742H36.2686V22.6035H40.2676ZM37.6221 20.8057H38.8867V28.168C38.8867 28.4186 38.9255 28.6077 39.0029 28.7354C39.0804 28.863 39.1807 28.9473 39.3037 28.9883C39.4268 29.0293 39.5589 29.0498 39.7002 29.0498C39.805 29.0498 39.9144 29.0407 40.0283 29.0225C40.1468 28.9997 40.2357 28.9814 40.2949 28.9678L40.3018 30C40.2015 30.0319 40.0693 30.0615 39.9053 30.0889C39.7458 30.1208 39.5521 30.1367 39.3242 30.1367C39.0143 30.1367 38.7295 30.0752 38.4697 29.9521C38.21 29.8291 38.0026 29.624 37.8477 29.3369C37.6973 29.0452 37.6221 28.6533 37.6221 28.1611V20.8057ZM49.8857 28.5645V19.5H51.1572V30H49.9951L49.8857 28.5645ZM44.9092 26.3838V26.2402C44.9092 25.6751 44.9775 25.1624 45.1143 24.7021C45.2555 24.2373 45.4538 23.8385 45.709 23.5059C45.9688 23.1732 46.2764 22.918 46.6318 22.7402C46.9919 22.5579 47.3929 22.4668 47.835 22.4668C48.2998 22.4668 48.7054 22.5488 49.0518 22.7129C49.4027 22.8724 49.6989 23.1071 49.9404 23.417C50.1865 23.7223 50.3802 24.0915 50.5215 24.5244C50.6628 24.9574 50.7607 25.4473 50.8154 25.9941V26.623C50.7653 27.1654 50.6673 27.653 50.5215 28.0859C50.3802 28.5189 50.1865 28.888 49.9404 29.1934C49.6989 29.4987 49.4027 29.7334 49.0518 29.8975C48.7008 30.057 48.2907 30.1367 47.8213 30.1367C47.3883 30.1367 46.9919 30.0433 46.6318 29.8564C46.2764 29.6696 45.9688 29.4076 45.709 29.0703C45.4538 28.7331 45.2555 28.3366 45.1143 27.8809C44.9775 27.4206 44.9092 26.9215 44.9092 26.3838ZM46.1807 26.2402V26.3838C46.1807 26.7529 46.2171 27.0993 46.29 27.4229C46.3675 27.7464 46.486 28.0312 46.6455 28.2773C46.805 28.5234 47.0078 28.7171 47.2539 28.8584C47.5 28.9951 47.7939 29.0635 48.1357 29.0635C48.555 29.0635 48.8991 28.9746 49.168 28.7969C49.4414 28.6191 49.6602 28.3844 49.8242 28.0928C49.9883 27.8011 50.1159 27.4844 50.207 27.1426V25.4951C50.1523 25.2445 50.0726 25.0029 49.9678 24.7705C49.8675 24.5335 49.7354 24.3239 49.5713 24.1416C49.4118 23.9548 49.2135 23.8066 48.9766 23.6973C48.7441 23.5879 48.4684 23.5332 48.1494 23.5332C47.8031 23.5332 47.5046 23.6061 47.2539 23.752C47.0078 23.8932 46.805 24.0892 46.6455 24.3398C46.486 24.5859 46.3675 24.873 46.29 25.2012C46.2171 25.5247 46.1807 25.8711 46.1807 26.2402ZM52.4424 20.5322V21.5713H48.0879V20.5322H52.4424ZM53.2559 26.3838V26.2266C53.2559 25.6934 53.3333 25.1989 53.4883 24.7432C53.6432 24.2829 53.8665 23.8841 54.1582 23.5469C54.4499 23.2051 54.8031 22.9408 55.2178 22.7539C55.6325 22.5625 56.0973 22.4668 56.6123 22.4668C57.1318 22.4668 57.599 22.5625 58.0137 22.7539C58.4329 22.9408 58.7884 23.2051 59.0801 23.5469C59.3763 23.8841 59.6019 24.2829 59.7568 24.7432C59.9118 25.1989 59.9893 25.6934 59.9893 26.2266V26.3838C59.9893 26.917 59.9118 27.4115 59.7568 27.8672C59.6019 28.3229 59.3763 28.7217 59.0801 29.0635C58.7884 29.4007 58.4352 29.665 58.0205 29.8564C57.6104 30.0433 57.1455 30.1367 56.626 30.1367C56.1064 30.1367 55.6393 30.0433 55.2246 29.8564C54.8099 29.665 54.4544 29.4007 54.1582 29.0635C53.8665 28.7217 53.6432 28.3229 53.4883 27.8672C53.3333 27.4115 53.2559 26.917 53.2559 26.3838ZM54.5205 26.2266V26.3838C54.5205 26.7529 54.5638 27.1016 54.6504 27.4297C54.737 27.7533 54.8669 28.0404 55.04 28.291C55.2178 28.5417 55.4388 28.7399 55.7031 28.8857C55.9674 29.027 56.2751 29.0977 56.626 29.0977C56.9723 29.0977 57.2754 29.027 57.5352 28.8857C57.7995 28.7399 58.0182 28.5417 58.1914 28.291C58.3646 28.0404 58.4945 27.7533 58.5811 27.4297C58.6722 27.1016 58.7178 26.7529 58.7178 26.3838V26.2266C58.7178 25.862 58.6722 25.5179 58.5811 25.1943C58.4945 24.8662 58.3623 24.5768 58.1846 24.3262C58.0114 24.071 57.7926 23.8704 57.5283 23.7246C57.2686 23.5788 56.9632 23.5059 56.6123 23.5059C56.266 23.5059 55.9606 23.5788 55.6963 23.7246C55.4365 23.8704 55.2178 24.071 55.04 24.3262C54.8669 24.5768 54.737 24.8662 54.6504 25.1943C54.5638 25.5179 54.5205 25.862 54.5205 26.2266ZM56.9404 19.5L58.6357 21.3662V21.4346H57.583L56.5576 20.2793L55.5391 21.4346H54.5V21.3594L56.1748 19.5H56.9404ZM55.833 31.6885C55.833 31.4834 55.8945 31.3102 56.0176 31.1689C56.1452 31.0277 56.332 30.957 56.5781 30.957C56.8197 30.957 57.0042 31.0277 57.1318 31.1689C57.264 31.3102 57.3301 31.4834 57.3301 31.6885C57.3301 31.8844 57.264 32.0508 57.1318 32.1875C57.0042 32.3288 56.8197 32.3994 56.5781 32.3994C56.332 32.3994 56.1452 32.3288 56.0176 32.1875C55.8945 32.0508 55.833 31.8844 55.833 31.6885ZM62.9492 22.6035V30H61.6777V22.6035H62.9492ZM61.582 20.6416C61.582 20.4365 61.6436 20.2633 61.7666 20.1221C61.8942 19.9808 62.0811 19.9102 62.3271 19.9102C62.5687 19.9102 62.7533 19.9808 62.8809 20.1221C63.013 20.2633 63.0791 20.4365 63.0791 20.6416C63.0791 20.8376 63.013 21.0062 62.8809 21.1475C62.7533 21.2842 62.5687 21.3525 62.3271 21.3525C62.0811 21.3525 61.8942 21.2842 61.7666 21.1475C61.6436 21.0062 61.582 20.8376 61.582 20.6416ZM68.4453 19.5H69.7168V28.5645L69.6074 30H68.4453V19.5ZM74.7139 26.2402V26.3838C74.7139 26.9215 74.6501 27.4206 74.5225 27.8809C74.3949 28.3366 74.208 28.7331 73.9619 29.0703C73.7158 29.4076 73.415 29.6696 73.0596 29.8564C72.7041 30.0433 72.2962 30.1367 71.8359 30.1367C71.3665 30.1367 70.9541 30.057 70.5986 29.8975C70.2477 29.7334 69.9515 29.4987 69.71 29.1934C69.4684 28.888 69.2747 28.5189 69.1289 28.0859C68.9876 27.653 68.8896 27.1654 68.835 26.623V25.9941C68.8896 25.4473 68.9876 24.9574 69.1289 24.5244C69.2747 24.0915 69.4684 23.7223 69.71 23.417C69.9515 23.1071 70.2477 22.8724 70.5986 22.7129C70.9495 22.5488 71.3574 22.4668 71.8223 22.4668C72.2871 22.4668 72.6995 22.5579 73.0596 22.7402C73.4196 22.918 73.7204 23.1732 73.9619 23.5059C74.208 23.8385 74.3949 24.2373 74.5225 24.7021C74.6501 25.1624 74.7139 25.6751 74.7139 26.2402ZM73.4424 26.3838V26.2402C73.4424 25.8711 73.4082 25.5247 73.3398 25.2012C73.2715 24.873 73.1621 24.5859 73.0117 24.3398C72.8613 24.0892 72.6631 23.8932 72.417 23.752C72.1709 23.6061 71.8678 23.5332 71.5078 23.5332C71.1888 23.5332 70.9108 23.5879 70.6738 23.6973C70.4414 23.8066 70.2432 23.9548 70.0791 24.1416C69.915 24.3239 69.7806 24.5335 69.6758 24.7705C69.5755 25.0029 69.5003 25.2445 69.4502 25.4951V27.1426C69.5231 27.4616 69.6416 27.7692 69.8057 28.0654C69.9743 28.3571 70.1976 28.5964 70.4756 28.7832C70.7581 28.9701 71.1068 29.0635 71.5215 29.0635C71.8633 29.0635 72.1549 28.9951 72.3965 28.8584C72.6426 28.7171 72.8408 28.5234 72.9912 28.2773C73.1462 28.0312 73.2601 27.7464 73.333 27.4229C73.4059 27.0993 73.4424 26.7529 73.4424 26.3838ZM75.9785 26.3838V26.2266C75.9785 25.6934 76.056 25.1989 76.2109 24.7432C76.3659 24.2829 76.5892 23.8841 76.8809 23.5469C77.1725 23.2051 77.5257 22.9408 77.9404 22.7539C78.3551 22.5625 78.82 22.4668 79.335 22.4668C79.8545 22.4668 80.3216 22.5625 80.7363 22.7539C81.1556 22.9408 81.5111 23.2051 81.8027 23.5469C82.099 23.8841 82.3245 24.2829 82.4795 24.7432C82.6344 25.1989 82.7119 25.6934 82.7119 26.2266V26.3838C82.7119 26.917 82.6344 27.4115 82.4795 27.8672C82.3245 28.3229 82.099 28.7217 81.8027 29.0635C81.5111 29.4007 81.1579 29.665 80.7432 29.8564C80.333 30.0433 79.8682 30.1367 79.3486 30.1367C78.8291 30.1367 78.362 30.0433 77.9473 29.8564C77.5326 29.665 77.1771 29.4007 76.8809 29.0635C76.5892 28.7217 76.3659 28.3229 76.2109 27.8672C76.056 27.4115 75.9785 26.917 75.9785 26.3838ZM77.2432 26.2266V26.3838C77.2432 26.7529 77.2865 27.1016 77.373 27.4297C77.4596 27.7533 77.5895 28.0404 77.7627 28.291C77.9404 28.5417 78.1615 28.7399 78.4258 28.8857C78.6901 29.027 78.9977 29.0977 79.3486 29.0977C79.695 29.0977 79.998 29.027 80.2578 28.8857C80.5221 28.7399 80.7409 28.5417 80.9141 28.291C81.0872 28.0404 81.2171 27.7533 81.3037 27.4297C81.3949 27.1016 81.4404 26.7529 81.4404 26.3838V26.2266C81.4404 25.862 81.3949 25.5179 81.3037 25.1943C81.2171 24.8662 81.085 24.5768 80.9072 24.3262C80.734 24.071 80.5153 23.8704 80.251 23.7246C79.9912 23.5788 79.6859 23.5059 79.335 23.5059C78.9886 23.5059 78.6833 23.5788 78.4189 23.7246C78.1592 23.8704 77.9404 24.071 77.7627 24.3262C77.5895 24.5768 77.4596 24.8662 77.373 25.1943C77.2865 25.5179 77.2432 25.862 77.2432 26.2266ZM78.583 21.5098L79.9092 19.5H81.4336L79.6016 21.5098H78.583ZM85.5625 24.1826V30H84.2979V22.6035H85.4941L85.5625 24.1826ZM85.2617 26.0215L84.7354 26.001C84.7399 25.4951 84.8151 25.028 84.9609 24.5996C85.1068 24.1667 85.3118 23.7907 85.5762 23.4717C85.8405 23.1527 86.1549 22.9066 86.5195 22.7334C86.8887 22.5557 87.2965 22.4668 87.7432 22.4668C88.1077 22.4668 88.4359 22.5169 88.7275 22.6172C89.0192 22.7129 89.2676 22.8678 89.4727 23.082C89.6823 23.2962 89.8418 23.5742 89.9512 23.916C90.0605 24.2533 90.1152 24.6657 90.1152 25.1533V30H88.8438V25.1396C88.8438 24.7523 88.7868 24.4424 88.6729 24.21C88.5589 23.973 88.3926 23.8021 88.1738 23.6973C87.9551 23.5879 87.6862 23.5332 87.3672 23.5332C87.0527 23.5332 86.7656 23.5993 86.5059 23.7314C86.2507 23.8636 86.0296 24.0459 85.8428 24.2783C85.6605 24.5107 85.5169 24.7773 85.4121 25.0781C85.3118 25.3743 85.2617 25.6888 85.2617 26.0215ZM96.8281 22.6035H97.9766V29.8428C97.9766 30.4945 97.8444 31.0505 97.5801 31.5107C97.3158 31.971 96.9466 32.3197 96.4727 32.5566C96.0033 32.7982 95.4609 32.9189 94.8457 32.9189C94.5905 32.9189 94.2897 32.8779 93.9434 32.7959C93.6016 32.7184 93.2643 32.584 92.9316 32.3926C92.6035 32.2057 92.3278 31.9528 92.1045 31.6338L92.7676 30.8818C93.0775 31.2555 93.401 31.5153 93.7383 31.6611C94.0801 31.807 94.4173 31.8799 94.75 31.8799C95.151 31.8799 95.4974 31.8047 95.7891 31.6543C96.0807 31.5039 96.3063 31.2806 96.4658 30.9844C96.6299 30.6927 96.7119 30.3327 96.7119 29.9043V24.2305L96.8281 22.6035ZM91.7354 26.3838V26.2402C91.7354 25.6751 91.8014 25.1624 91.9336 24.7021C92.0703 24.2373 92.264 23.8385 92.5146 23.5059C92.7699 23.1732 93.0775 22.918 93.4375 22.7402C93.7975 22.5579 94.2031 22.4668 94.6543 22.4668C95.1191 22.4668 95.5247 22.5488 95.8711 22.7129C96.222 22.8724 96.5182 23.1071 96.7598 23.417C97.0059 23.7223 97.1995 24.0915 97.3408 24.5244C97.4821 24.9574 97.5801 25.4473 97.6348 25.9941V26.623C97.5846 27.1654 97.4867 27.653 97.3408 28.0859C97.1995 28.5189 97.0059 28.888 96.7598 29.1934C96.5182 29.4987 96.222 29.7334 95.8711 29.8975C95.5202 30.057 95.11 30.1367 94.6406 30.1367C94.1986 30.1367 93.7975 30.0433 93.4375 29.8564C93.082 29.6696 92.7767 29.4076 92.5215 29.0703C92.2663 28.7331 92.0703 28.3366 91.9336 27.8809C91.8014 27.4206 91.7354 26.9215 91.7354 26.3838ZM93 26.2402V26.3838C93 26.7529 93.0365 27.0993 93.1094 27.4229C93.1868 27.7464 93.3031 28.0312 93.458 28.2773C93.6175 28.5234 93.8203 28.7171 94.0664 28.8584C94.3125 28.9951 94.6064 29.0635 94.9482 29.0635C95.3675 29.0635 95.7139 28.9746 95.9873 28.7969C96.2607 28.6191 96.4772 28.3844 96.6367 28.0928C96.8008 27.8011 96.9284 27.4844 97.0195 27.1426V25.4951C96.9694 25.2445 96.8919 25.0029 96.7871 24.7705C96.6868 24.5335 96.5547 24.3239 96.3906 24.1416C96.2311 23.9548 96.0329 23.8066 95.7959 23.6973C95.5589 23.5879 95.2809 23.5332 94.9619 23.5332C94.6156 23.5332 94.3171 23.6061 94.0664 23.752C93.8203 23.8932 93.6175 24.0892 93.458 24.3398C93.3031 24.5859 93.1868 24.873 93.1094 25.2012C93.0365 25.5247 93 25.8711 93 26.2402ZM106.33 29.0977C106.631 29.0977 106.909 29.0361 107.164 28.9131C107.419 28.79 107.629 28.6214 107.793 28.4072C107.957 28.1885 108.05 27.9401 108.073 27.6621H109.276C109.254 28.0996 109.105 28.5075 108.832 28.8857C108.563 29.2594 108.21 29.5625 107.772 29.7949C107.335 30.0228 106.854 30.1367 106.33 30.1367C105.774 30.1367 105.289 30.0387 104.874 29.8428C104.464 29.6468 104.122 29.3779 103.849 29.0361C103.58 28.6943 103.377 28.3024 103.24 27.8604C103.108 27.4137 103.042 26.9421 103.042 26.4453V26.1582C103.042 25.6615 103.108 25.1921 103.24 24.75C103.377 24.3034 103.58 23.9092 103.849 23.5674C104.122 23.2256 104.464 22.9567 104.874 22.7607C105.289 22.5648 105.774 22.4668 106.33 22.4668C106.909 22.4668 107.415 22.5853 107.848 22.8223C108.281 23.0547 108.62 23.3737 108.866 23.7793C109.117 24.1803 109.254 24.6361 109.276 25.1465H108.073C108.05 24.8411 107.964 24.5654 107.813 24.3193C107.668 24.0732 107.467 23.8773 107.212 23.7314C106.961 23.5811 106.667 23.5059 106.33 23.5059C105.943 23.5059 105.617 23.5833 105.353 23.7383C105.093 23.8887 104.885 24.0938 104.73 24.3535C104.58 24.6087 104.471 24.8936 104.402 25.208C104.339 25.5179 104.307 25.8346 104.307 26.1582V26.4453C104.307 26.7689 104.339 27.0879 104.402 27.4023C104.466 27.7168 104.573 28.0016 104.724 28.2568C104.879 28.512 105.086 28.7171 105.346 28.8721C105.61 29.0225 105.938 29.0977 106.33 29.0977ZM110.363 26.3838V26.2266C110.363 25.6934 110.441 25.1989 110.596 24.7432C110.751 24.2829 110.974 23.8841 111.266 23.5469C111.557 23.2051 111.91 22.9408 112.325 22.7539C112.74 22.5625 113.205 22.4668 113.72 22.4668C114.239 22.4668 114.706 22.5625 115.121 22.7539C115.54 22.9408 115.896 23.2051 116.188 23.5469C116.484 23.8841 116.709 24.2829 116.864 24.7432C117.019 25.1989 117.097 25.6934 117.097 26.2266V26.3838C117.097 26.917 117.019 27.4115 116.864 27.8672C116.709 28.3229 116.484 28.7217 116.188 29.0635C115.896 29.4007 115.543 29.665 115.128 29.8564C114.718 30.0433 114.253 30.1367 113.733 30.1367C113.214 30.1367 112.747 30.0433 112.332 29.8564C111.917 29.665 111.562 29.4007 111.266 29.0635C110.974 28.7217 110.751 28.3229 110.596 27.8672C110.441 27.4115 110.363 26.917 110.363 26.3838ZM111.628 26.2266V26.3838C111.628 26.7529 111.671 27.1016 111.758 27.4297C111.844 27.7533 111.974 28.0404 112.147 28.291C112.325 28.5417 112.546 28.7399 112.811 28.8857C113.075 29.027 113.382 29.0977 113.733 29.0977C114.08 29.0977 114.383 29.027 114.643 28.8857C114.907 28.7399 115.126 28.5417 115.299 28.291C115.472 28.0404 115.602 27.7533 115.688 27.4297C115.78 27.1016 115.825 26.7529 115.825 26.3838V26.2266C115.825 25.862 115.78 25.5179 115.688 25.1943C115.602 24.8662 115.47 24.5768 115.292 24.3262C115.119 24.071 114.9 23.8704 114.636 23.7246C114.376 23.5788 114.071 23.5059 113.72 23.5059C113.373 23.5059 113.068 23.5788 112.804 23.7246C112.544 23.8704 112.325 24.071 112.147 24.3262C111.974 24.5768 111.844 24.8662 111.758 25.1943C111.671 25.5179 111.628 25.862 111.628 26.2266ZM112.968 21.5098L114.294 19.5H115.818L113.986 21.5098H112.968Z"
    fill="#595959" />
  <rect x="125.625" y="15.625" width="48.75" height="18.75" rx="2.375" fill="white" stroke="#2EB553"
    stroke-width="0.75" stroke-dasharray="2 2" />
  <path
    d="M18.2285 54.1826V60H16.9639V52.6035H18.1602L18.2285 54.1826ZM17.9277 56.0215L17.4014 56.001C17.4059 55.4951 17.4811 55.028 17.627 54.5996C17.7728 54.1667 17.9779 53.7907 18.2422 53.4717C18.5065 53.1527 18.821 52.9066 19.1855 52.7334C19.5547 52.5557 19.9626 52.4668 20.4092 52.4668C20.7738 52.4668 21.1019 52.5169 21.3936 52.6172C21.6852 52.7129 21.9336 52.8678 22.1387 53.082C22.3483 53.2962 22.5078 53.5742 22.6172 53.916C22.7266 54.2533 22.7812 54.6657 22.7812 55.1533V60H21.5098V55.1396C21.5098 54.7523 21.4528 54.4424 21.3389 54.21C21.2249 53.973 21.0586 53.8021 20.8398 53.6973C20.6211 53.5879 20.3522 53.5332 20.0332 53.5332C19.7188 53.5332 19.4316 53.5993 19.1719 53.7314C18.9167 53.8636 18.6956 54.0459 18.5088 54.2783C18.3265 54.5107 18.1829 54.7773 18.0781 55.0781C17.9779 55.3743 17.9277 55.6888 17.9277 56.0215ZM29.4941 52.6035H30.6426V59.8428C30.6426 60.4945 30.5104 61.0505 30.2461 61.5107C29.9818 61.971 29.6126 62.3197 29.1387 62.5566C28.6693 62.7982 28.127 62.9189 27.5117 62.9189C27.2565 62.9189 26.9557 62.8779 26.6094 62.7959C26.2676 62.7184 25.9303 62.584 25.5977 62.3926C25.2695 62.2057 24.9938 61.9528 24.7705 61.6338L25.4336 60.8818C25.7435 61.2555 26.0671 61.5153 26.4043 61.6611C26.7461 61.807 27.0833 61.8799 27.416 61.8799C27.8171 61.8799 28.1634 61.8047 28.4551 61.6543C28.7467 61.5039 28.9723 61.2806 29.1318 60.9844C29.2959 60.6927 29.3779 60.3327 29.3779 59.9043V54.2305L29.4941 52.6035ZM24.4014 56.3838V56.2402C24.4014 55.6751 24.4674 55.1624 24.5996 54.7021C24.7363 54.2373 24.93 53.8385 25.1807 53.5059C25.4359 53.1732 25.7435 52.918 26.1035 52.7402C26.4635 52.5579 26.8691 52.4668 27.3203 52.4668C27.7852 52.4668 28.1908 52.5488 28.5371 52.7129C28.888 52.8724 29.1842 53.1071 29.4258 53.417C29.6719 53.7223 29.8656 54.0915 30.0068 54.5244C30.1481 54.9574 30.2461 55.4473 30.3008 55.9941V56.623C30.2507 57.1654 30.1527 57.653 30.0068 58.0859C29.8656 58.5189 29.6719 58.888 29.4258 59.1934C29.1842 59.4987 28.888 59.7334 28.5371 59.8975C28.1862 60.057 27.776 60.1367 27.3066 60.1367C26.8646 60.1367 26.4635 60.0433 26.1035 59.8564C25.748 59.6696 25.4427 59.4076 25.1875 59.0703C24.9323 58.7331 24.7363 58.3366 24.5996 57.8809C24.4674 57.4206 24.4014 56.9215 24.4014 56.3838ZM25.666 56.2402V56.3838C25.666 56.7529 25.7025 57.0993 25.7754 57.4229C25.8529 57.7464 25.9691 58.0312 26.124 58.2773C26.2835 58.5234 26.4863 58.7171 26.7324 58.8584C26.9785 58.9951 27.2725 59.0635 27.6143 59.0635C28.0335 59.0635 28.3799 58.9746 28.6533 58.7969C28.9268 58.6191 29.1432 58.3844 29.3027 58.0928C29.4668 57.8011 29.5944 57.4844 29.6855 57.1426V55.4951C29.6354 55.2445 29.5579 55.0029 29.4531 54.7705C29.3529 54.5335 29.2207 54.3239 29.0566 54.1416C28.8971 53.9548 28.6989 53.8066 28.4619 53.6973C28.2249 53.5879 27.9469 53.5332 27.6279 53.5332C27.2816 53.5332 26.9831 53.6061 26.7324 53.752C26.4863 53.8932 26.2835 54.0892 26.124 54.3398C25.9691 54.5859 25.8529 54.873 25.7754 55.2012C25.7025 55.5247 25.666 55.8711 25.666 56.2402ZM39.4883 52.0088H40.459C40.459 52.5055 40.3929 52.9225 40.2607 53.2598C40.1331 53.597 39.9076 53.8499 39.584 54.0186C39.2604 54.1872 38.8047 54.2715 38.2168 54.2715V53.4922C38.627 53.4922 38.9209 53.4421 39.0986 53.3418C39.2764 53.237 39.3857 53.0752 39.4268 52.8564C39.4678 52.6377 39.4883 52.3551 39.4883 52.0088ZM37.0889 58.291V52.6035H38.3604V60H37.1504L37.0889 58.291ZM37.3281 56.7324L37.8545 56.7188C37.8545 57.2109 37.8021 57.6667 37.6973 58.0859C37.597 58.5007 37.4329 58.8607 37.2051 59.166C36.9772 59.4714 36.6787 59.7106 36.3096 59.8838C35.9404 60.0524 35.4915 60.1367 34.9629 60.1367C34.6029 60.1367 34.2725 60.0843 33.9717 59.9795C33.6755 59.8747 33.4202 59.7129 33.2061 59.4941C32.9919 59.2754 32.8255 58.9906 32.707 58.6396C32.5931 58.2887 32.5361 57.8672 32.5361 57.375V52.6035H33.8008V57.3887C33.8008 57.7214 33.8372 57.9971 33.9102 58.2158C33.9876 58.43 34.0902 58.6009 34.2178 58.7285C34.3499 58.8516 34.4958 58.9382 34.6553 58.9883C34.8193 59.0384 34.988 59.0635 35.1611 59.0635C35.6989 59.0635 36.125 58.9609 36.4395 58.7559C36.7539 58.5462 36.9795 58.266 37.1162 57.915C37.2575 57.5596 37.3281 57.1654 37.3281 56.7324ZM47.5205 51.79H48.5391C48.5391 52.2913 48.4707 52.7243 48.334 53.0889C48.1973 53.4489 47.9694 53.7269 47.6504 53.9229C47.3314 54.1188 46.8984 54.2168 46.3516 54.2168V53.4238C46.6934 53.4238 46.9463 53.3555 47.1104 53.2188C47.279 53.082 47.3883 52.8906 47.4385 52.6445C47.4932 52.3984 47.5205 52.1136 47.5205 51.79ZM40.8965 56.3838V56.2266C40.8965 55.6934 40.974 55.1989 41.1289 54.7432C41.2839 54.2829 41.5072 53.8841 41.7988 53.5469C42.0905 53.2051 42.4437 52.9408 42.8584 52.7539C43.2731 52.5625 43.738 52.4668 44.2529 52.4668C44.7725 52.4668 45.2396 52.5625 45.6543 52.7539C46.0736 52.9408 46.429 53.2051 46.7207 53.5469C47.0124 53.8841 47.2357 54.2829 47.3906 54.7432C47.5456 55.1989 47.623 55.6934 47.623 56.2266V56.3838C47.623 56.917 47.5456 57.4115 47.3906 57.8672C47.2357 58.3229 47.0124 58.7217 46.7207 59.0635C46.429 59.4007 46.0758 59.665 45.6611 59.8564C45.251 60.0433 44.7861 60.1367 44.2666 60.1367C43.7471 60.1367 43.2799 60.0433 42.8652 59.8564C42.4505 59.665 42.0951 59.4007 41.7988 59.0635C41.5072 58.7217 41.2839 58.3229 41.1289 57.8672C40.974 57.4115 40.8965 56.917 40.8965 56.3838ZM42.1611 56.2266V56.3838C42.1611 56.7529 42.2044 57.1016 42.291 57.4297C42.3776 57.7533 42.5075 58.0404 42.6807 58.291C42.8584 58.5417 43.0794 58.7399 43.3438 58.8857C43.6081 59.027 43.9157 59.0977 44.2666 59.0977C44.613 59.0977 44.916 59.027 45.1758 58.8857C45.4401 58.7399 45.6589 58.5417 45.832 58.291C46.0052 58.0404 46.1351 57.7533 46.2217 57.4297C46.3128 57.1016 46.3584 56.7529 46.3584 56.3838V56.2266C46.3584 55.862 46.3128 55.5179 46.2217 55.1943C46.1351 54.8662 46.0029 54.5768 45.8252 54.3262C45.652 54.071 45.4333 53.8704 45.1689 53.7246C44.9092 53.5788 44.6038 53.5059 44.2529 53.5059C43.9066 53.5059 43.6012 53.5788 43.3369 53.7246C43.0771 53.8704 42.8584 54.071 42.6807 54.3262C42.5075 54.5768 42.3776 54.8662 42.291 55.1943C42.2044 55.5179 42.1611 55.862 42.1611 56.2266ZM43.6445 49.5L44.9639 51.5098H43.877L42.1133 49.5H43.6445ZM50.6172 52.6035V60H49.3457V52.6035H50.6172ZM49.25 50.6416C49.25 50.4365 49.3115 50.2633 49.4346 50.1221C49.5622 49.9808 49.749 49.9102 49.9951 49.9102C50.2367 49.9102 50.4212 49.9808 50.5488 50.1221C50.681 50.2633 50.7471 50.4365 50.7471 50.6416C50.7471 50.8376 50.681 51.0062 50.5488 51.1475C50.4212 51.2842 50.2367 51.3525 49.9951 51.3525C49.749 51.3525 49.5622 51.2842 49.4346 51.1475C49.3115 51.0062 49.25 50.8376 49.25 50.6416ZM58.3691 58.8584L60.3926 52.6035H61.6846L59.0254 60H58.1777L58.3691 58.8584ZM56.6807 52.6035L58.7656 58.8926L58.9092 60H58.0615L55.3818 52.6035H56.6807ZM67.1533 58.7354V54.9277C67.1533 54.6361 67.0941 54.3831 66.9756 54.1689C66.8617 53.9502 66.6885 53.7816 66.4561 53.6631C66.2236 53.5446 65.9365 53.4854 65.5947 53.4854C65.2757 53.4854 64.9954 53.54 64.7539 53.6494C64.5169 53.7588 64.3301 53.9023 64.1934 54.0801C64.0612 54.2578 63.9951 54.4492 63.9951 54.6543H62.7305C62.7305 54.39 62.7988 54.1279 62.9355 53.8682C63.0723 53.6084 63.2682 53.3737 63.5234 53.1641C63.7832 52.9499 64.0931 52.7812 64.4531 52.6582C64.8177 52.5306 65.2233 52.4668 65.6699 52.4668C66.2077 52.4668 66.6816 52.5579 67.0918 52.7402C67.5065 52.9225 67.8301 53.1982 68.0625 53.5674C68.2995 53.932 68.418 54.39 68.418 54.9414V58.3867C68.418 58.6328 68.4385 58.8949 68.4795 59.1729C68.5251 59.4508 68.5911 59.6901 68.6777 59.8906V60H67.3584C67.2946 59.8542 67.2445 59.6605 67.208 59.4189C67.1715 59.1729 67.1533 58.945 67.1533 58.7354ZM67.3721 55.5156L67.3857 56.4043H66.1074C65.7474 56.4043 65.4261 56.4339 65.1436 56.4932C64.861 56.5479 64.624 56.6322 64.4326 56.7461C64.2412 56.86 64.0954 57.0036 63.9951 57.1768C63.8949 57.3454 63.8447 57.5436 63.8447 57.7715C63.8447 58.0039 63.8971 58.2158 64.002 58.4072C64.1068 58.5986 64.264 58.7513 64.4736 58.8652C64.6878 58.9746 64.9499 59.0293 65.2598 59.0293C65.6471 59.0293 65.9889 58.9473 66.2852 58.7832C66.5814 58.6191 66.8161 58.4186 66.9893 58.1816C67.167 57.9447 67.2627 57.7145 67.2764 57.4912L67.8164 58.0996C67.7845 58.291 67.6979 58.5029 67.5566 58.7354C67.4154 58.9678 67.2262 59.1911 66.9893 59.4053C66.7568 59.6149 66.4788 59.7904 66.1553 59.9316C65.8363 60.0684 65.4762 60.1367 65.0752 60.1367C64.5739 60.1367 64.1341 60.0387 63.7559 59.8428C63.3822 59.6468 63.0905 59.3848 62.8809 59.0566C62.6758 58.724 62.5732 58.3525 62.5732 57.9424C62.5732 57.5459 62.6507 57.1973 62.8057 56.8965C62.9606 56.5911 63.1839 56.3382 63.4756 56.1377C63.7673 55.9326 64.1182 55.7777 64.5283 55.6729C64.9385 55.568 65.3965 55.5156 65.9023 55.5156H67.3721ZM65.2051 49.5L66.5244 51.5098H65.4375L63.6738 49.5H65.2051Z"
    fill="#595959" />
  <rect x="77.625" y="45.625" width="48.75" height="18.75" rx="2.375" fill="white" stroke="#2EB553"
    stroke-width="0.75" stroke-dasharray="2 2" />
  <path
    d="M138.061 52.6035V53.5742H134.062V52.6035H138.061ZM135.415 50.8057H136.68V58.168C136.68 58.4186 136.718 58.6077 136.796 58.7354C136.873 58.863 136.974 58.9473 137.097 58.9883C137.22 59.0293 137.352 59.0498 137.493 59.0498C137.598 59.0498 137.707 59.0407 137.821 59.0225C137.94 58.9997 138.029 58.9814 138.088 58.9678L138.095 60C137.994 60.0319 137.862 60.0615 137.698 60.0889C137.539 60.1208 137.345 60.1367 137.117 60.1367C136.807 60.1367 136.522 60.0752 136.263 59.9521C136.003 59.8291 135.796 59.624 135.641 59.3369C135.49 59.0452 135.415 58.6533 135.415 58.1611V50.8057ZM140.809 49.5V60H139.544V49.5H140.809ZM140.508 56.0215L139.981 56.001C139.986 55.4951 140.061 55.028 140.207 54.5996C140.353 54.1667 140.558 53.7907 140.822 53.4717C141.087 53.1527 141.401 52.9066 141.766 52.7334C142.135 52.5557 142.543 52.4668 142.989 52.4668C143.354 52.4668 143.682 52.5169 143.974 52.6172C144.265 52.7129 144.514 52.8678 144.719 53.082C144.928 53.2962 145.088 53.5742 145.197 53.916C145.307 54.2533 145.361 54.6657 145.361 55.1533V60H144.09V55.1396C144.09 54.7523 144.033 54.4424 143.919 54.21C143.805 53.973 143.639 53.8021 143.42 53.6973C143.201 53.5879 142.932 53.5332 142.613 53.5332C142.299 53.5332 142.012 53.5993 141.752 53.7314C141.497 53.8636 141.276 54.0459 141.089 54.2783C140.907 54.5107 140.763 54.7773 140.658 55.0781C140.558 55.3743 140.508 55.6888 140.508 56.0215ZM151.78 58.291V52.6035H153.052V60H151.842L151.78 58.291ZM152.02 56.7324L152.546 56.7188C152.546 57.2109 152.493 57.6667 152.389 58.0859C152.288 58.5007 152.124 58.8607 151.896 59.166C151.669 59.4714 151.37 59.7106 151.001 59.8838C150.632 60.0524 150.183 60.1367 149.654 60.1367C149.294 60.1367 148.964 60.0843 148.663 59.9795C148.367 59.8747 148.112 59.7129 147.897 59.4941C147.683 59.2754 147.517 58.9906 147.398 58.6396C147.285 58.2887 147.228 57.8672 147.228 57.375V52.6035H148.492V57.3887C148.492 57.7214 148.529 57.9971 148.602 58.2158C148.679 58.43 148.782 58.6009 148.909 58.7285C149.041 58.8516 149.187 58.9382 149.347 58.9883C149.511 59.0384 149.679 59.0635 149.853 59.0635C150.39 59.0635 150.816 58.9609 151.131 58.7559C151.445 58.5462 151.671 58.266 151.808 57.915C151.949 57.5596 152.02 57.1654 152.02 56.7324ZM150.646 51.4004H149.736L149.729 50.3613C149.962 50.3477 150.151 50.3249 150.297 50.293C150.443 50.2565 150.55 50.2041 150.618 50.1357C150.687 50.0628 150.721 49.9671 150.721 49.8486C150.721 49.7529 150.691 49.6732 150.632 49.6094C150.573 49.541 150.491 49.4863 150.386 49.4453C150.281 49.3997 150.16 49.3678 150.023 49.3496C149.887 49.3314 149.741 49.3223 149.586 49.3223L149.634 48.5977C149.971 48.5977 150.267 48.6273 150.522 48.6865C150.782 48.7458 150.999 48.8324 151.172 48.9463C151.35 49.0602 151.482 49.1969 151.568 49.3564C151.66 49.5114 151.705 49.6846 151.705 49.876C151.705 50.2223 151.596 50.4753 151.377 50.6348C151.158 50.7897 150.917 50.8854 150.652 50.9219L150.646 51.4004ZM159.71 54.0732V60H158.438V52.6035H159.642L159.71 54.0732ZM159.45 56.0215L158.862 56.001C158.867 55.4951 158.933 55.028 159.061 54.5996C159.188 54.1667 159.377 53.7907 159.628 53.4717C159.879 53.1527 160.191 52.9066 160.564 52.7334C160.938 52.5557 161.371 52.4668 161.863 52.4668C162.21 52.4668 162.529 52.5169 162.82 52.6172C163.112 52.7129 163.365 52.8656 163.579 53.0752C163.793 53.2848 163.96 53.5537 164.078 53.8818C164.197 54.21 164.256 54.6064 164.256 55.0713V60H162.991V55.1328C162.991 54.7454 162.925 54.4355 162.793 54.2031C162.665 53.9707 162.483 53.8021 162.246 53.6973C162.009 53.5879 161.731 53.5332 161.412 53.5332C161.038 53.5332 160.726 53.5993 160.476 53.7314C160.225 53.8636 160.024 54.0459 159.874 54.2783C159.724 54.5107 159.614 54.7773 159.546 55.0781C159.482 55.3743 159.45 55.6888 159.45 56.0215ZM164.242 55.3242L163.395 55.584C163.399 55.1784 163.465 54.7887 163.593 54.415C163.725 54.0413 163.914 53.7087 164.16 53.417C164.411 53.1253 164.718 52.8952 165.083 52.7266C165.448 52.5534 165.865 52.4668 166.334 52.4668C166.73 52.4668 167.081 52.5192 167.387 52.624C167.697 52.7288 167.956 52.8906 168.166 53.1094C168.38 53.3236 168.542 53.5993 168.651 53.9365C168.761 54.2738 168.815 54.6748 168.815 55.1396V60H167.544V55.126C167.544 54.7113 167.478 54.39 167.346 54.1621C167.218 53.9297 167.036 53.7679 166.799 53.6768C166.566 53.5811 166.288 53.5332 165.965 53.5332C165.687 53.5332 165.441 53.5811 165.227 53.6768C165.012 53.7725 164.832 53.9046 164.687 54.0732C164.541 54.2373 164.429 54.4264 164.352 54.6406C164.279 54.8548 164.242 55.0827 164.242 55.3242ZM170.395 56.3838V56.2266C170.395 55.6934 170.472 55.1989 170.627 54.7432C170.782 54.2829 171.005 53.8841 171.297 53.5469C171.589 53.2051 171.942 52.9408 172.356 52.7539C172.771 52.5625 173.236 52.4668 173.751 52.4668C174.271 52.4668 174.738 52.5625 175.152 52.7539C175.572 52.9408 175.927 53.2051 176.219 53.5469C176.515 53.8841 176.741 54.2829 176.896 54.7432C177.05 55.1989 177.128 55.6934 177.128 56.2266V56.3838C177.128 56.917 177.05 57.4115 176.896 57.8672C176.741 58.3229 176.515 58.7217 176.219 59.0635C175.927 59.4007 175.574 59.665 175.159 59.8564C174.749 60.0433 174.284 60.1367 173.765 60.1367C173.245 60.1367 172.778 60.0433 172.363 59.8564C171.949 59.665 171.593 59.4007 171.297 59.0635C171.005 58.7217 170.782 58.3229 170.627 57.8672C170.472 57.4115 170.395 56.917 170.395 56.3838ZM171.659 56.2266V56.3838C171.659 56.7529 171.702 57.1016 171.789 57.4297C171.876 57.7533 172.006 58.0404 172.179 58.291C172.356 58.5417 172.577 58.7399 172.842 58.8857C173.106 59.027 173.414 59.0977 173.765 59.0977C174.111 59.0977 174.414 59.027 174.674 58.8857C174.938 58.7399 175.157 58.5417 175.33 58.291C175.503 58.0404 175.633 57.7533 175.72 57.4297C175.811 57.1016 175.856 56.7529 175.856 56.3838V56.2266C175.856 55.862 175.811 55.5179 175.72 55.1943C175.633 54.8662 175.501 54.5768 175.323 54.3262C175.15 54.071 174.931 53.8704 174.667 53.7246C174.407 53.5788 174.102 53.5059 173.751 53.5059C173.405 53.5059 173.099 53.5788 172.835 53.7246C172.575 53.8704 172.356 54.071 172.179 54.3262C172.006 54.5768 171.876 54.8662 171.789 55.1943C171.702 55.5179 171.659 55.862 171.659 56.2266ZM174.079 49.5L175.774 51.3662V51.4346H174.722L173.696 50.2793L172.678 51.4346H171.639V51.3594L173.313 49.5H174.079ZM179.979 54.1826V60H178.714V52.6035H179.91L179.979 54.1826ZM179.678 56.0215L179.151 56.001C179.156 55.4951 179.231 55.028 179.377 54.5996C179.523 54.1667 179.728 53.7907 179.992 53.4717C180.257 53.1527 180.571 52.9066 180.936 52.7334C181.305 52.5557 181.713 52.4668 182.159 52.4668C182.524 52.4668 182.852 52.5169 183.144 52.6172C183.435 52.7129 183.684 52.8678 183.889 53.082C184.098 53.2962 184.258 53.5742 184.367 53.916C184.477 54.2533 184.531 54.6657 184.531 55.1533V60H183.26V55.1396C183.26 54.7523 183.203 54.4424 183.089 54.21C182.975 53.973 182.809 53.8021 182.59 53.6973C182.371 53.5879 182.102 53.5332 181.783 53.5332C181.469 53.5332 181.182 53.5993 180.922 53.7314C180.667 53.8636 180.446 54.0459 180.259 54.2783C180.076 54.5107 179.933 54.7773 179.828 55.0781C179.728 55.3743 179.678 55.6888 179.678 56.0215Z"
    fill="#595959" />
  <rect x="16.25" y="88.25" width="47.5" height="17.5" rx="1.75" fill="white" />
  <path
    d="M40.2344 93.2246L37.4102 101H36.2559L39.5078 92.4688H40.252L40.2344 93.2246ZM42.6016 101L39.7715 93.2246L39.7539 92.4688H40.498L43.7617 101H42.6016ZM42.4551 97.8418V98.7676H37.6621V97.8418H42.4551Z"
    fill="#595959" />
  <rect x="16.25" y="88.25" width="47.5" height="17.5" rx="1.75" stroke="#B8B8B8" stroke-width="0.5" />
  <rect x="72.25" y="88.25" width="47.5" height="17.5" rx="1.75" fill="white" />
  <path
    d="M96.293 97.0098H94.1309L94.1191 96.1016H96.082C96.4062 96.1016 96.6895 96.0469 96.9316 95.9375C97.1738 95.8281 97.3613 95.6719 97.4941 95.4688C97.6309 95.2617 97.6992 95.0156 97.6992 94.7305C97.6992 94.418 97.6387 94.1641 97.5176 93.9688C97.4004 93.7695 97.2188 93.625 96.9727 93.5352C96.7305 93.4414 96.4219 93.3945 96.0469 93.3945H94.3828V101H93.252V92.4688H96.0469C96.4844 92.4688 96.875 92.5137 97.2188 92.6035C97.5625 92.6895 97.8535 92.8262 98.0918 93.0137C98.334 93.1973 98.5176 93.4316 98.6426 93.7168C98.7676 94.002 98.8301 94.3438 98.8301 94.7422C98.8301 95.0938 98.7402 95.4121 98.5605 95.6973C98.3809 95.9785 98.1309 96.209 97.8105 96.3887C97.4941 96.5684 97.123 96.6836 96.6973 96.7344L96.293 97.0098ZM96.2402 101H93.6855L94.3242 100.08H96.2402C96.5996 100.08 96.9043 100.018 97.1543 99.8926C97.4082 99.7676 97.6016 99.5918 97.7344 99.3652C97.8672 99.1348 97.9336 98.8633 97.9336 98.5508C97.9336 98.2344 97.877 97.9609 97.7637 97.7305C97.6504 97.5 97.4727 97.3223 97.2305 97.1973C96.9883 97.0723 96.6758 97.0098 96.293 97.0098H94.6816L94.6934 96.1016H96.8965L97.1367 96.4297C97.5469 96.4648 97.8945 96.582 98.1797 96.7812C98.4648 96.9766 98.6816 97.2266 98.8301 97.5312C98.9824 97.8359 99.0586 98.1719 99.0586 98.5391C99.0586 99.0703 98.9414 99.5195 98.707 99.8867C98.4766 100.25 98.1504 100.527 97.7285 100.719C97.3066 100.906 96.8105 101 96.2402 101Z"
    fill="#595959" />
  <rect x="72.25" y="88.25" width="47.5" height="17.5" rx="1.75" stroke="#B8B8B8" stroke-width="0.5" />
  <rect x="128.25" y="88.25" width="47.5" height="17.5" rx="1.75" fill="white" />
  <path
    d="M154.232 98.2871H155.357C155.299 98.8262 155.145 99.3086 154.895 99.7344C154.645 100.16 154.291 100.498 153.834 100.748C153.377 100.994 152.807 101.117 152.123 101.117C151.623 101.117 151.168 101.023 150.758 100.836C150.352 100.648 150.002 100.383 149.709 100.039C149.416 99.6914 149.189 99.2754 149.029 98.791C148.873 98.3027 148.795 97.7598 148.795 97.1621V96.3125C148.795 95.7148 148.873 95.1738 149.029 94.6895C149.189 94.2012 149.418 93.7832 149.715 93.4355C150.016 93.0879 150.377 92.8203 150.799 92.6328C151.221 92.4453 151.695 92.3516 152.223 92.3516C152.867 92.3516 153.412 92.4727 153.857 92.7148C154.303 92.957 154.648 93.293 154.895 93.7227C155.145 94.1484 155.299 94.6426 155.357 95.2051H154.232C154.178 94.8066 154.076 94.4648 153.928 94.1797C153.779 93.8906 153.568 93.668 153.295 93.5117C153.021 93.3555 152.664 93.2773 152.223 93.2773C151.844 93.2773 151.51 93.3496 151.221 93.4941C150.936 93.6387 150.695 93.8438 150.5 94.1094C150.309 94.375 150.164 94.6934 150.066 95.0645C149.969 95.4355 149.92 95.8477 149.92 96.3008V97.1621C149.92 97.5801 149.963 97.9727 150.049 98.3398C150.139 98.707 150.273 99.0293 150.453 99.3066C150.633 99.584 150.861 99.8027 151.139 99.9629C151.416 100.119 151.744 100.197 152.123 100.197C152.604 100.197 152.986 100.121 153.271 99.9688C153.557 99.8164 153.771 99.5977 153.916 99.3125C154.064 99.0273 154.17 98.6855 154.232 98.2871Z"
    fill="#595959" />
  <rect x="128.25" y="88.25" width="47.5" height="17.5" rx="1.75" stroke="#B8B8B8"
    stroke-width="0.5" />
  <rect x="16.25" y="114.25" width="47.5" height="17.5" rx="1.75" fill="white" />
  <path
    d="M39.3613 127H37.5801L37.5918 126.08H39.3613C39.9707 126.08 40.4785 125.953 40.8848 125.699C41.291 125.441 41.5957 125.082 41.7988 124.621C42.0059 124.156 42.1094 123.613 42.1094 122.992V122.471C42.1094 121.982 42.0508 121.549 41.9336 121.17C41.8164 120.787 41.6445 120.465 41.418 120.203C41.1914 119.938 40.9141 119.736 40.5859 119.6C40.2617 119.463 39.8887 119.395 39.4668 119.395H37.5449V118.469H39.4668C40.0254 118.469 40.5352 118.562 40.9961 118.75C41.457 118.934 41.8535 119.201 42.1855 119.553C42.5215 119.9 42.7793 120.322 42.959 120.818C43.1387 121.311 43.2285 121.865 43.2285 122.482V122.992C43.2285 123.609 43.1387 124.166 42.959 124.662C42.7793 125.154 42.5195 125.574 42.1797 125.922C41.8438 126.27 41.4375 126.537 40.9609 126.725C40.4883 126.908 39.9551 127 39.3613 127ZM38.1836 118.469V127H37.0527V118.469H38.1836Z"
    fill="#595959" />
  <rect x="16.25" y="114.25" width="47.5" height="17.5" rx="1.75" stroke="#B8B8B8"
    stroke-width="0.5" />
  <rect x="72.25" y="114.25" width="46.5" height="17.5" rx="1.75" fill="white" />
  <path
    d="M98.5 126.08V127H93.9824V126.08H98.5ZM94.2109 118.469V127H93.0801V118.469H94.2109ZM97.9023 122.137V123.057H93.9824V122.137H97.9023ZM98.4414 118.469V119.395H93.9824V118.469H98.4414Z"
    fill="#595959" />
  <rect x="72.25" y="114.25" width="46.5" height="17.5" rx="1.75" stroke="#B8B8B8"
    stroke-width="0.5" />
</svg>
