<svg width="224" height="184" viewBox="0 0 224 184" fill="none" xmlns="http://www.w3.org/2000/svg">
<g clip-path="url(#clip0_1_30)">
<path d="M0 5C0 2.23858 2.23858 0 5 0H219C221.761 0 224 2.23858 224 5V92V179C224 181.761 221.761 184 219 184H4.99999C2.23857 184 0 181.761 0 179V5Z" fill="white"/>
<path d="M31.3096 69.5H29.6553V61.5088L27.2148 62.3428V60.9414L31.0977 59.5127H31.3096V69.5ZM35.9102 67.75C36.2201 67.75 36.4593 67.8389 36.6279 68.0166C36.7965 68.1898 36.8809 68.4085 36.8809 68.6729C36.8809 68.9326 36.7965 69.1491 36.6279 69.3223C36.4593 69.4909 36.2201 69.5752 35.9102 69.5752C35.6139 69.5752 35.3792 69.4909 35.2061 69.3223C35.0329 69.1536 34.9463 68.9372 34.9463 68.6729C34.9463 68.4085 35.0306 68.1898 35.1992 68.0166C35.3678 67.8389 35.6048 67.75 35.9102 67.75Z" fill="#2EB553"/>
<path d="M52.4766 65.8418C52.3535 66.8945 51.9639 67.708 51.3076 68.2822C50.6559 68.8519 49.7878 69.1367 48.7031 69.1367C47.5273 69.1367 46.584 68.7152 45.873 67.8721C45.1667 67.029 44.8135 65.901 44.8135 64.4883V63.5312C44.8135 62.6061 44.9775 61.7926 45.3057 61.0908C45.6383 60.389 46.1077 59.8512 46.7139 59.4775C47.32 59.0993 48.0218 58.9102 48.8193 58.9102C49.8766 58.9102 50.7243 59.2064 51.3623 59.7988C52.0003 60.3867 52.3717 61.2025 52.4766 62.2461H51.1572C51.0433 61.4531 50.7949 60.8789 50.4121 60.5234C50.0339 60.168 49.5029 59.9902 48.8193 59.9902C47.9808 59.9902 47.3223 60.3001 46.8438 60.9199C46.3698 61.5397 46.1328 62.4215 46.1328 63.5654V64.5293C46.1328 65.6094 46.3584 66.4684 46.8096 67.1064C47.2607 67.7445 47.8919 68.0635 48.7031 68.0635C49.4323 68.0635 49.9906 67.8994 50.3779 67.5713C50.7699 67.2386 51.0296 66.6621 51.1572 65.8418H52.4766ZM58.6426 69C58.5697 68.8542 58.5104 68.5944 58.4648 68.2207C57.877 68.8314 57.1751 69.1367 56.3594 69.1367C55.6302 69.1367 55.0309 68.9316 54.5615 68.5215C54.0967 68.1068 53.8643 67.5827 53.8643 66.9492C53.8643 66.179 54.1559 65.582 54.7393 65.1582C55.3271 64.7298 56.152 64.5156 57.2139 64.5156H58.4443V63.9346C58.4443 63.4925 58.3122 63.1416 58.0479 62.8818C57.7835 62.6175 57.3939 62.4854 56.8789 62.4854C56.4277 62.4854 56.0495 62.5993 55.7441 62.8271C55.4388 63.055 55.2861 63.3307 55.2861 63.6543H54.0146C54.0146 63.2852 54.1445 62.9297 54.4043 62.5879C54.6686 62.2415 55.0241 61.9681 55.4707 61.7676C55.9219 61.5671 56.4163 61.4668 56.9541 61.4668C57.8063 61.4668 58.474 61.681 58.957 62.1094C59.4401 62.5332 59.6908 63.1188 59.709 63.8662V67.2705C59.709 67.9495 59.7956 68.4896 59.9688 68.8906V69H58.6426ZM56.5439 68.0361C56.9404 68.0361 57.3164 67.9336 57.6719 67.7285C58.0273 67.5234 58.2848 67.2568 58.4443 66.9287V65.4111H57.4531C55.9036 65.4111 55.1289 65.8646 55.1289 66.7715C55.1289 67.168 55.2611 67.4779 55.5254 67.7012C55.7897 67.9245 56.1292 68.0361 56.5439 68.0361ZM59.1621 60.373V60.4414H58.1162L57.0908 59.2793L56.0723 60.4414H55.0264V60.3594L56.708 58.5H57.4736L59.1621 60.373ZM66.2578 68.2686C65.7656 68.8473 65.0433 69.1367 64.0908 69.1367C63.3024 69.1367 62.7008 68.9089 62.2861 68.4531C61.876 67.9928 61.6686 67.3138 61.6641 66.416V61.6035H62.9287V66.3818C62.9287 67.5029 63.3844 68.0635 64.2959 68.0635C65.262 68.0635 65.9046 67.7035 66.2236 66.9834V61.6035H67.4883V69H66.2852L66.2578 68.2686ZM76.915 69H75.6436V60.5713L73.0938 61.5078V60.3594L76.7168 58.999H76.915V69Z" fill="#8C8C8C"/>
<path d="M19.1443 49H144.856V47H19.1443V49ZM147.619 53V76H149V53H147.619ZM144.856 80H19.1443V82H144.856V80ZM16.3814 76V53H15V76H16.3814ZM19.1443 80C17.6185 80 16.3814 78.2091 16.3814 76H15C15 79.3137 16.8555 82 19.1443 82V80ZM147.619 76C147.619 78.2091 146.381 80 144.856 80V82C147.145 82 149 79.3137 149 76H147.619ZM144.856 49C146.381 49 147.619 50.7909 147.619 53H149C149 49.6863 147.145 47 144.856 47V49ZM19.1443 47C16.8555 47 15 49.6863 15 53H16.3814C16.3814 50.7909 17.6185 49 19.1443 49V47Z" fill="#E8E8E8"/>
<path d="M33.5039 110.5H26.8115V109.358L30.127 105.742C30.6055 105.209 30.945 104.765 31.1455 104.409C31.3506 104.049 31.4531 103.689 31.4531 103.329C31.4531 102.855 31.3187 102.472 31.0498 102.181C30.7855 101.889 30.4277 101.743 29.9766 101.743C29.4388 101.743 29.0218 101.907 28.7256 102.235C28.4294 102.563 28.2812 103.012 28.2812 103.582H26.6201C26.6201 102.976 26.7568 102.431 27.0303 101.948C27.3083 101.461 27.7025 101.082 28.2129 100.813C28.7279 100.545 29.3203 100.41 29.9902 100.41C30.9564 100.41 31.7174 100.654 32.2734 101.142C32.834 101.625 33.1143 102.295 33.1143 103.151C33.1143 103.648 32.973 104.17 32.6904 104.717C32.4124 105.259 31.9544 105.877 31.3164 106.569L28.8828 109.174H33.5039V110.5ZM35.9102 108.75C36.2201 108.75 36.4593 108.839 36.6279 109.017C36.7965 109.19 36.8809 109.409 36.8809 109.673C36.8809 109.933 36.7965 110.149 36.6279 110.322C36.4593 110.491 36.2201 110.575 35.9102 110.575C35.6139 110.575 35.3792 110.491 35.2061 110.322C35.0329 110.154 34.9463 109.937 34.9463 109.673C34.9463 109.409 35.0306 109.19 35.1992 109.017C35.3678 108.839 35.6048 108.75 35.9102 108.75Z" fill="#2EB553"/>
<path d="M52.4766 106.842C52.3535 107.895 51.9639 108.708 51.3076 109.282C50.6559 109.852 49.7878 110.137 48.7031 110.137C47.5273 110.137 46.584 109.715 45.873 108.872C45.1667 108.029 44.8135 106.901 44.8135 105.488V104.531C44.8135 103.606 44.9775 102.793 45.3057 102.091C45.6383 101.389 46.1077 100.851 46.7139 100.478C47.32 100.099 48.0218 99.9102 48.8193 99.9102C49.8766 99.9102 50.7243 100.206 51.3623 100.799C52.0003 101.387 52.3717 102.202 52.4766 103.246H51.1572C51.0433 102.453 50.7949 101.879 50.4121 101.523C50.0339 101.168 49.5029 100.99 48.8193 100.99C47.9808 100.99 47.3223 101.3 46.8438 101.92C46.3698 102.54 46.1328 103.422 46.1328 104.565V105.529C46.1328 106.609 46.3584 107.468 46.8096 108.106C47.2607 108.744 47.8919 109.063 48.7031 109.063C49.4323 109.063 49.9906 108.899 50.3779 108.571C50.7699 108.239 51.0296 107.662 51.1572 106.842H52.4766ZM58.6426 110C58.5697 109.854 58.5104 109.594 58.4648 109.221C57.877 109.831 57.1751 110.137 56.3594 110.137C55.6302 110.137 55.0309 109.932 54.5615 109.521C54.0967 109.107 53.8643 108.583 53.8643 107.949C53.8643 107.179 54.1559 106.582 54.7393 106.158C55.3271 105.73 56.152 105.516 57.2139 105.516H58.4443V104.935C58.4443 104.493 58.3122 104.142 58.0479 103.882C57.7835 103.618 57.3939 103.485 56.8789 103.485C56.4277 103.485 56.0495 103.599 55.7441 103.827C55.4388 104.055 55.2861 104.331 55.2861 104.654H54.0146C54.0146 104.285 54.1445 103.93 54.4043 103.588C54.6686 103.242 55.0241 102.968 55.4707 102.768C55.9219 102.567 56.4163 102.467 56.9541 102.467C57.8063 102.467 58.474 102.681 58.957 103.109C59.4401 103.533 59.6908 104.119 59.709 104.866V108.271C59.709 108.95 59.7956 109.49 59.9688 109.891V110H58.6426ZM56.5439 109.036C56.9404 109.036 57.3164 108.934 57.6719 108.729C58.0273 108.523 58.2848 108.257 58.4443 107.929V106.411H57.4531C55.9036 106.411 55.1289 106.865 55.1289 107.771C55.1289 108.168 55.2611 108.478 55.5254 108.701C55.7897 108.924 56.1292 109.036 56.5439 109.036ZM59.1621 101.373V101.441H58.1162L57.0908 100.279L56.0723 101.441H55.0264V101.359L56.708 99.5H57.4736L59.1621 101.373ZM66.2578 109.269C65.7656 109.847 65.0433 110.137 64.0908 110.137C63.3024 110.137 62.7008 109.909 62.2861 109.453C61.876 108.993 61.6686 108.314 61.6641 107.416V102.604H62.9287V107.382C62.9287 108.503 63.3844 109.063 64.2959 109.063C65.262 109.063 65.9046 108.703 66.2236 107.983V102.604H67.4883V110H66.2852L66.2578 109.269ZM79.2803 110H72.7588V109.091L76.2041 105.263C76.7145 104.684 77.0654 104.215 77.2568 103.854C77.4528 103.49 77.5508 103.114 77.5508 102.727C77.5508 102.207 77.3936 101.781 77.0791 101.448C76.7646 101.116 76.3454 100.949 75.8213 100.949C75.1924 100.949 74.7025 101.129 74.3516 101.489C74.0052 101.845 73.832 102.341 73.832 102.979H72.5674C72.5674 102.063 72.8613 101.323 73.4492 100.758C74.0417 100.193 74.8324 99.9102 75.8213 99.9102C76.7464 99.9102 77.4779 100.154 78.0156 100.642C78.5534 101.125 78.8223 101.77 78.8223 102.576C78.8223 103.556 78.1979 104.723 76.9492 106.076L74.2832 108.968H79.2803V110Z" fill="#8C8C8C"/>
<path d="M19.1443 90H144.856V88H19.1443V90ZM147.619 94V117H149V94H147.619ZM144.856 121H19.1443V123H144.856V121ZM16.3814 117V94H15V117H16.3814ZM19.1443 121C17.6185 121 16.3814 119.209 16.3814 117H15C15 120.314 16.8555 123 19.1443 123V121ZM147.619 117C147.619 119.209 146.381 121 144.856 121V123C147.145 123 149 120.314 149 117H147.619ZM144.856 90C146.381 90 147.619 91.7909 147.619 94H149C149 90.6863 147.145 88 144.856 88V90ZM19.1443 88C16.8555 88 15 90.6863 15 94H16.3814C16.3814 91.7909 17.6185 90 19.1443 90V88Z" fill="#E8E8E8"/>
<path d="M28.7324 145.765H29.7441C30.2546 145.76 30.6579 145.628 30.9541 145.368C31.2549 145.108 31.4053 144.732 31.4053 144.24C31.4053 143.766 31.2799 143.399 31.0293 143.14C30.7832 142.875 30.4049 142.743 29.8945 142.743C29.4479 142.743 29.0811 142.873 28.7939 143.133C28.5068 143.388 28.3633 143.723 28.3633 144.138H26.7021C26.7021 143.627 26.8366 143.162 27.1055 142.743C27.3789 142.324 27.7572 141.998 28.2402 141.766C28.7279 141.529 29.2725 141.41 29.874 141.41C30.8675 141.41 31.6468 141.661 32.2119 142.162C32.7816 142.659 33.0664 143.352 33.0664 144.24C33.0664 144.687 32.9229 145.108 32.6357 145.505C32.3532 145.897 31.9863 146.193 31.5352 146.394C32.082 146.58 32.4967 146.874 32.7793 147.275C33.0664 147.676 33.21 148.155 33.21 148.711C33.21 149.604 32.9023 150.315 32.2871 150.844C31.6764 151.372 30.8721 151.637 29.874 151.637C28.917 151.637 28.1331 151.382 27.5225 150.871C26.9118 150.361 26.6064 149.682 26.6064 148.834H28.2676C28.2676 149.271 28.4134 149.627 28.7051 149.9C29.0013 150.174 29.3978 150.311 29.8945 150.311C30.4095 150.311 30.8151 150.174 31.1113 149.9C31.4076 149.627 31.5557 149.23 31.5557 148.711C31.5557 148.187 31.4007 147.784 31.0908 147.501C30.7809 147.218 30.3206 147.077 29.71 147.077H28.7324V145.765ZM35.9102 149.75C36.2201 149.75 36.4593 149.839 36.6279 150.017C36.7965 150.19 36.8809 150.409 36.8809 150.673C36.8809 150.933 36.7965 151.149 36.6279 151.322C36.4593 151.491 36.2201 151.575 35.9102 151.575C35.6139 151.575 35.3792 151.491 35.2061 151.322C35.0329 151.154 34.9463 150.937 34.9463 150.673C34.9463 150.409 35.0306 150.19 35.1992 150.017C35.3678 149.839 35.6048 149.75 35.9102 149.75Z" fill="#2EB553"/>
<path d="M52.4766 147.842C52.3535 148.895 51.9639 149.708 51.3076 150.282C50.6559 150.852 49.7878 151.137 48.7031 151.137C47.5273 151.137 46.584 150.715 45.873 149.872C45.1667 149.029 44.8135 147.901 44.8135 146.488V145.531C44.8135 144.606 44.9775 143.793 45.3057 143.091C45.6383 142.389 46.1077 141.851 46.7139 141.478C47.32 141.099 48.0218 140.91 48.8193 140.91C49.8766 140.91 50.7243 141.206 51.3623 141.799C52.0003 142.387 52.3717 143.202 52.4766 144.246H51.1572C51.0433 143.453 50.7949 142.879 50.4121 142.523C50.0339 142.168 49.5029 141.99 48.8193 141.99C47.9808 141.99 47.3223 142.3 46.8438 142.92C46.3698 143.54 46.1328 144.422 46.1328 145.565V146.529C46.1328 147.609 46.3584 148.468 46.8096 149.106C47.2607 149.744 47.8919 150.063 48.7031 150.063C49.4323 150.063 49.9906 149.899 50.3779 149.571C50.7699 149.239 51.0296 148.662 51.1572 147.842H52.4766ZM58.6426 151C58.5697 150.854 58.5104 150.594 58.4648 150.221C57.877 150.831 57.1751 151.137 56.3594 151.137C55.6302 151.137 55.0309 150.932 54.5615 150.521C54.0967 150.107 53.8643 149.583 53.8643 148.949C53.8643 148.179 54.1559 147.582 54.7393 147.158C55.3271 146.73 56.152 146.516 57.2139 146.516H58.4443V145.935C58.4443 145.493 58.3122 145.142 58.0479 144.882C57.7835 144.618 57.3939 144.485 56.8789 144.485C56.4277 144.485 56.0495 144.599 55.7441 144.827C55.4388 145.055 55.2861 145.331 55.2861 145.654H54.0146C54.0146 145.285 54.1445 144.93 54.4043 144.588C54.6686 144.242 55.0241 143.968 55.4707 143.768C55.9219 143.567 56.4163 143.467 56.9541 143.467C57.8063 143.467 58.474 143.681 58.957 144.109C59.4401 144.533 59.6908 145.119 59.709 145.866V149.271C59.709 149.95 59.7956 150.49 59.9688 150.891V151H58.6426ZM56.5439 150.036C56.9404 150.036 57.3164 149.934 57.6719 149.729C58.0273 149.523 58.2848 149.257 58.4443 148.929V147.411H57.4531C55.9036 147.411 55.1289 147.865 55.1289 148.771C55.1289 149.168 55.2611 149.478 55.5254 149.701C55.7897 149.924 56.1292 150.036 56.5439 150.036ZM59.1621 142.373V142.441H58.1162L57.0908 141.279L56.0723 142.441H55.0264V142.359L56.708 140.5H57.4736L59.1621 142.373ZM66.2578 150.269C65.7656 150.847 65.0433 151.137 64.0908 151.137C63.3024 151.137 62.7008 150.909 62.2861 150.453C61.876 149.993 61.6686 149.314 61.6641 148.416V143.604H62.9287V148.382C62.9287 149.503 63.3844 150.063 64.2959 150.063C65.262 150.063 65.9046 149.703 66.2236 148.983V143.604H67.4883V151H66.2852L66.2578 150.269ZM74.5977 145.408H75.5479C76.1449 145.399 76.6143 145.242 76.9561 144.937C77.2979 144.631 77.4688 144.219 77.4688 143.699C77.4688 142.533 76.8877 141.949 75.7256 141.949C75.1787 141.949 74.7412 142.106 74.4131 142.421C74.0895 142.731 73.9277 143.143 73.9277 143.658H72.6631C72.6631 142.87 72.9502 142.216 73.5244 141.696C74.1032 141.172 74.8369 140.91 75.7256 140.91C76.6644 140.91 77.4004 141.159 77.9336 141.655C78.4668 142.152 78.7334 142.842 78.7334 143.727C78.7334 144.16 78.5921 144.579 78.3096 144.984C78.0316 145.39 77.651 145.693 77.168 145.894C77.7148 146.067 78.1364 146.354 78.4326 146.755C78.7334 147.156 78.8838 147.646 78.8838 148.225C78.8838 149.118 78.5921 149.826 78.0088 150.351C77.4255 150.875 76.6667 151.137 75.7324 151.137C74.7982 151.137 74.0371 150.884 73.4492 150.378C72.8659 149.872 72.5742 149.204 72.5742 148.375H73.8457C73.8457 148.899 74.0166 149.318 74.3584 149.633C74.7002 149.947 75.1582 150.104 75.7324 150.104C76.3431 150.104 76.8102 149.945 77.1338 149.626C77.4574 149.307 77.6191 148.849 77.6191 148.252C77.6191 147.673 77.4414 147.229 77.0859 146.919C76.7305 146.609 76.2178 146.45 75.5479 146.44H74.5977V145.408Z" fill="#8C8C8C"/>
<path d="M19.1443 131H144.856V129H19.1443V131ZM147.619 135V158H149V135H147.619ZM144.856 162H19.1443V164H144.856V162ZM16.3814 158V135H15V158H16.3814ZM19.1443 162C17.6185 162 16.3814 160.209 16.3814 158H15C15 161.314 16.8555 164 19.1443 164V162ZM147.619 158C147.619 160.209 146.381 162 144.856 162V164C147.145 164 149 161.314 149 158H147.619ZM144.856 131C146.381 131 147.619 132.791 147.619 135H149C149 131.686 147.145 129 144.856 129V131ZM19.1443 129C16.8555 129 15 131.686 15 135H16.3814C16.3814 132.791 17.6185 131 19.1443 131V129Z" fill="#E8E8E8"/>
<path d="M5 1H219V-1H5V1ZM223 5V179H225V5H223ZM219 183H4.99999V185H219V183ZM1 179V5H-1V179H1ZM4.99999 183C2.79086 183 1 181.209 1 179H-1C-1 182.314 1.68628 185 4.99999 185V183ZM223 179C223 181.209 221.209 183 219 183V185C222.314 185 225 182.314 225 179H223ZM219 1C221.209 1 223 2.79086 223 5H225C225 1.68629 222.314 -1 219 -1V1ZM5 -1C1.68629 -1 -1 1.6863 -1 5H1C1 2.79086 2.79086 1 5 1V-1Z" fill="#E8E8E8"/>
<path d="M22.6494 26.4023H21.3301L16.3193 18.7324V26.4023H15V16.4492H16.3193L21.3437 24.1533V16.4492H22.6494V26.4023ZM24.4472 22.6357C24.4472 21.9111 24.5885 21.2594 24.8711 20.6806C25.1582 20.1018 25.5547 19.6552 26.0605 19.3408C26.5709 19.0263 27.152 18.8691 27.8037 18.8691C28.8108 18.8691 29.6243 19.2177 30.2441 19.915C30.8685 20.6123 31.1806 21.5397 31.1806 22.6972V22.7861C31.1806 23.5061 31.0416 24.1533 30.7636 24.7275C30.4902 25.2972 30.096 25.7415 29.581 26.0605C29.0706 26.3795 28.4827 26.539 27.8174 26.539C26.8148 26.539 26.0013 26.1904 25.3769 25.4931C24.7571 24.7959 24.4472 23.873 24.4472 22.7246V22.6357ZM25.7187 22.7861C25.7187 23.6064 25.9079 24.2649 26.2861 24.7617C26.6689 25.2584 27.1793 25.5068 27.8174 25.5068C28.4599 25.5068 28.9704 25.2561 29.3486 24.7548C29.7269 24.249 29.916 23.5426 29.916 22.6357C29.916 21.8245 29.7223 21.1683 29.3349 20.6669C28.9521 20.1611 28.4417 19.9082 27.8037 19.9082C27.1793 19.9082 26.6758 20.1565 26.2929 20.6533C25.9101 21.15 25.7187 21.861 25.7187 22.7861ZM29.8271 17.7753V17.8437H28.7812L27.7558 16.6816L26.7373 17.8437H25.6914V17.7617L27.373 15.9023H28.1386L29.8271 17.7753ZM27.0312 28.0771C27.0312 27.872 27.0927 27.6988 27.2158 27.5576C27.3434 27.4163 27.5302 27.3457 27.7763 27.3457C28.0224 27.3457 28.2093 27.4163 28.3369 27.5576C28.4645 27.6988 28.5283 27.872 28.5283 28.0771C28.5283 28.2822 28.4645 28.4531 28.3369 28.5898C28.2093 28.7265 28.0224 28.7949 27.7763 28.7949C27.5302 28.7949 27.3434 28.7265 27.2158 28.5898C27.0927 28.4531 27.0312 28.2822 27.0312 28.0771ZM34.1406 26.4023H32.8759V19.0058H34.1406V26.4023ZM32.7734 17.0439C32.7734 16.8388 32.8349 16.6656 32.958 16.5244C33.0856 16.3831 33.2724 16.3125 33.5185 16.3125C33.7646 16.3125 33.9515 16.3831 34.0791 16.5244C34.2067 16.6656 34.2705 16.8388 34.2705 17.0439C34.2705 17.249 34.2067 17.4199 34.0791 17.5566C33.9515 17.6933 33.7646 17.7617 33.5185 17.7617C33.2724 17.7617 33.0856 17.6933 32.958 17.5566C32.8349 17.4199 32.7734 17.249 32.7734 17.0439ZM39.3359 22.6425C39.3359 21.5078 39.6048 20.5963 40.1426 19.9082C40.6803 19.2155 41.3844 18.8691 42.2549 18.8691C43.1207 18.8691 43.8066 19.1653 44.3125 19.7578V15.9023H45.5771V26.4023H44.415L44.3535 25.6093C43.8476 26.2291 43.1435 26.539 42.2412 26.539C41.3844 26.539 40.6849 26.1881 40.1426 25.4863C39.6048 24.7845 39.3359 23.8684 39.3359 22.7382V22.6425ZM40.6006 22.7861C40.6006 23.6246 40.7737 24.2809 41.1201 24.7548C41.4664 25.2288 41.945 25.4658 42.5556 25.4658C43.3577 25.4658 43.9433 25.1058 44.3125 24.3857V20.9882C43.9342 20.291 43.3532 19.9423 42.5693 19.9423C41.9495 19.9423 41.4664 20.1816 41.1201 20.6601C40.7737 21.1386 40.6006 21.8473 40.6006 22.7861ZM52.1123 25.6709C51.6201 26.2496 50.8978 26.539 49.9453 26.539C49.1569 26.539 48.5553 26.3112 48.1406 25.8554C47.7304 25.3951 47.5231 24.7161 47.5185 23.8183V19.0058H48.7832V23.7841C48.7832 24.9052 49.2389 25.4658 50.1504 25.4658C51.1165 25.4658 51.7591 25.1058 52.0781 24.3857V19.0058H53.3427V26.4023H52.1396L52.1123 25.6709ZM56.4668 19.0058L56.5078 19.9355C57.0729 19.2246 57.8112 18.8691 58.7226 18.8691C60.2858 18.8691 61.0742 19.7509 61.0879 21.5146V26.4023H59.8232V21.5078C59.8187 20.9746 59.6956 20.5804 59.4541 20.3252C59.2171 20.0699 58.8457 19.9423 58.3398 19.9423C57.9297 19.9423 57.5696 20.0517 57.2597 20.2705C56.9498 20.4892 56.7083 20.7763 56.5351 21.1318V26.4023H55.2705V19.0058H56.4668ZM62.6943 22.6425C62.6943 21.4895 62.9609 20.5735 63.4941 19.8945C64.0273 19.2109 64.7337 18.8691 65.6133 18.8691C66.5156 18.8691 67.2197 19.1881 67.7256 19.8261L67.7871 19.0058H68.9424V26.2246C68.9424 27.1816 68.6575 27.9358 68.0879 28.4873C67.5228 29.0387 66.7617 29.3144 65.8047 29.3144C65.2715 29.3144 64.7496 29.2005 64.2392 28.9726C63.7288 28.7447 63.3392 28.4326 63.0703 28.0361L63.7265 27.2773C64.2689 27.9472 64.9319 28.2822 65.7158 28.2822C66.331 28.2822 66.8095 28.109 67.1513 27.7627C67.4977 27.4163 67.6709 26.9287 67.6709 26.2998V25.664C67.165 26.2474 66.4746 26.539 65.5996 26.539C64.7337 26.539 64.0319 26.1904 63.4941 25.4931C62.9609 24.7959 62.6943 23.8457 62.6943 22.6425ZM63.9658 22.7861C63.9658 23.6201 64.1367 24.2763 64.4785 24.7548C64.8203 25.2288 65.2988 25.4658 65.914 25.4658C66.7116 25.4658 67.2972 25.1035 67.6709 24.3789V21.0019C67.2835 20.2955 66.7024 19.9423 65.9277 19.9423C65.3125 19.9423 64.8317 20.1816 64.4853 20.6601C64.139 21.1386 63.9658 21.8473 63.9658 22.7861ZM77.2959 25.5068C77.747 25.5068 78.1412 25.3701 78.4785 25.0966C78.8157 24.8232 79.0026 24.4814 79.039 24.0712H80.2353C80.2125 24.4951 80.0667 24.8984 79.7978 25.2812C79.5289 25.664 79.1689 25.9694 78.7177 26.1972C78.2711 26.4251 77.7972 26.539 77.2959 26.539C76.2887 26.539 75.4866 26.2041 74.8896 25.5341C74.2972 24.8597 74.0009 23.9391 74.0009 22.7724V22.5605C74.0009 21.8405 74.1331 21.2002 74.3974 20.6396C74.6618 20.0791 75.04 19.6438 75.5322 19.3339C76.0289 19.024 76.6146 18.8691 77.289 18.8691C78.1185 18.8691 78.8066 19.1175 79.3535 19.6142C79.9049 20.111 80.1989 20.7558 80.2353 21.5488H79.039C79.0026 21.0703 78.8203 20.6783 78.4922 20.373C78.1686 20.0631 77.7676 19.9082 77.289 19.9082C76.6465 19.9082 76.1474 20.1406 75.792 20.6054C75.4411 21.0657 75.2656 21.7334 75.2656 22.6084V22.8476C75.2656 23.6998 75.4411 24.3561 75.792 24.8164C76.1429 25.2766 76.6442 25.5068 77.2959 25.5068ZM86.2236 26.4023C86.1507 26.2565 86.0914 25.9967 86.0459 25.623C85.458 26.2337 84.7562 26.539 83.9404 26.539C83.2112 26.539 82.612 26.3339 82.1426 25.9238C81.6777 25.5091 81.4453 24.985 81.4453 24.3515C81.4453 23.5813 81.737 22.9843 82.3203 22.5605C82.9082 22.1321 83.733 21.9179 84.7949 21.9179H86.0254V21.3369C86.0254 20.8948 85.8932 20.5439 85.6289 20.2841C85.3646 20.0198 84.9749 19.8877 84.4599 19.8877C84.0088 19.8877 83.6305 20.0016 83.3252 20.2294C83.0198 20.4573 82.8672 20.733 82.8672 21.0566H81.5957C81.5957 20.6875 81.7256 20.332 81.9853 19.9902C82.2496 19.6438 82.6051 19.3704 83.0517 19.1699C83.5029 18.9694 83.9974 18.8691 84.5351 18.8691C85.3873 18.8691 86.055 19.0833 86.5381 19.5117C87.0211 19.9355 87.2718 20.5211 87.29 21.2685V24.6728C87.29 25.3518 87.3766 25.8919 87.5498 26.2929V26.4023H86.2236ZM84.125 25.4384C84.5215 25.4384 84.8974 25.3359 85.2529 25.1308C85.6084 24.9257 85.8659 24.6591 86.0254 24.331V22.8134H85.0342C83.4847 22.8134 82.7099 23.2669 82.7099 24.1738C82.7099 24.5703 82.8421 24.8802 83.1064 25.1035C83.3707 25.3268 83.7103 25.4384 84.125 25.4384ZM86.7431 17.7753V17.8437H85.6972L84.6718 16.6816L83.6533 17.8437H82.6074V17.7617L84.289 15.9023H85.0547L86.7431 17.7753ZM93.8388 25.6709C93.3467 26.2496 92.6243 26.539 91.6718 26.539C90.8834 26.539 90.2819 26.3112 89.8672 25.8554C89.457 25.3951 89.2496 24.7161 89.2451 23.8183V19.0058H90.5097V23.7841C90.5097 24.9052 90.9655 25.4658 91.8769 25.4658C92.8431 25.4658 93.4857 25.1058 93.8047 24.3857V19.0058H95.0693V26.4023H93.8662L93.8388 25.6709ZM101.735 19.9013C102.295 19.2132 103.024 18.8691 103.922 18.8691C105.485 18.8691 106.274 19.7509 106.287 21.5146V26.4023H105.023V21.5078C105.018 20.9746 104.895 20.5804 104.654 20.3252C104.417 20.0699 104.045 19.9423 103.539 19.9423C103.129 19.9423 102.769 20.0517 102.459 20.2705C102.149 20.4892 101.908 20.7763 101.735 21.1318V26.4023H100.47V15.9023H101.735V19.9013ZM107.846 22.6357C107.846 21.9111 107.987 21.2594 108.27 20.6806C108.557 20.1018 108.953 19.6552 109.459 19.3408C109.97 19.0263 110.551 18.8691 111.202 18.8691C112.21 18.8691 113.023 19.2177 113.643 19.915C114.267 20.6123 114.579 21.5397 114.579 22.6972V22.7861C114.579 23.5061 114.44 24.1533 114.162 24.7275C113.889 25.2972 113.495 25.7415 112.98 26.0605C112.469 26.3795 111.881 26.539 111.216 26.539C110.213 26.539 109.4 26.1904 108.776 25.4931C108.156 24.7959 107.846 23.873 107.846 22.7246V22.6357ZM109.117 22.7861C109.117 23.6064 109.307 24.2649 109.685 24.7617C110.068 25.2584 110.578 25.5068 111.216 25.5068C111.859 25.5068 112.369 25.2561 112.747 24.7548C113.126 24.249 113.315 23.5426 113.315 22.6357C113.315 21.8245 113.121 21.1683 112.734 20.6669C112.351 20.1611 111.84 19.9082 111.202 19.9082C110.578 19.9082 110.074 20.1565 109.692 20.6533C109.309 21.15 109.117 21.861 109.117 22.7861ZM110.731 17.8095L110.724 16.7636C111.066 16.7408 111.316 16.6953 111.476 16.6269C111.635 16.5585 111.715 16.4355 111.715 16.2578C111.715 16.08 111.61 15.9479 111.401 15.8613C111.196 15.7701 110.922 15.7246 110.58 15.7246L110.628 15C111.307 15 111.822 15.1184 112.173 15.3554C112.524 15.5878 112.699 15.8977 112.699 16.2851C112.699 16.5631 112.611 16.7933 112.433 16.9755C112.255 17.1578 111.991 17.274 111.64 17.3242L111.633 17.8095H110.731ZM117.539 26.4023H116.275V19.0058H117.539V26.4023ZM116.172 17.0439C116.172 16.8388 116.234 16.6656 116.357 16.5244C116.484 16.3831 116.671 16.3125 116.917 16.3125C117.163 16.3125 117.35 16.3831 117.478 16.5244C117.605 16.6656 117.669 16.8388 117.669 17.0439C117.669 17.249 117.605 17.4199 117.478 17.5566C117.35 17.6933 117.163 17.7617 116.917 17.7617C116.671 17.7617 116.484 17.6933 116.357 17.5566C116.234 17.4199 116.172 17.249 116.172 17.0439ZM119.597 25.7392C119.597 25.5205 119.661 25.3382 119.788 25.1923C119.921 25.0465 120.116 24.9736 120.376 24.9736C120.636 24.9736 120.832 25.0465 120.964 25.1923C121.101 25.3382 121.169 25.5205 121.169 25.7392C121.169 25.9488 121.101 26.1243 120.964 26.2656C120.832 26.4069 120.636 26.4775 120.376 26.4775C120.116 26.4775 119.921 26.4069 119.788 26.2656C119.661 26.1243 119.597 25.9488 119.597 25.7392ZM123.288 25.7392C123.288 25.5205 123.352 25.3382 123.48 25.1923C123.612 25.0465 123.808 24.9736 124.068 24.9736C124.327 24.9736 124.523 25.0465 124.656 25.1923C124.792 25.3382 124.861 25.5205 124.861 25.7392C124.861 25.9488 124.792 26.1243 124.656 26.2656C124.523 26.4069 124.327 26.4775 124.068 26.4775C123.808 26.4775 123.612 26.4069 123.48 26.2656C123.352 26.1243 123.288 25.9488 123.288 25.7392ZM126.98 25.7392C126.98 25.5205 127.044 25.3382 127.171 25.1923C127.303 25.0465 127.499 24.9736 127.759 24.9736C128.019 24.9736 128.215 25.0465 128.347 25.1923C128.484 25.3382 128.552 25.5205 128.552 25.7392C128.552 25.9488 128.484 26.1243 128.347 26.2656C128.215 26.4069 128.019 26.4775 127.759 26.4775C127.499 26.4775 127.303 26.4069 127.171 26.2656C127.044 26.1243 126.98 25.9488 126.98 25.7392Z" fill="#8C8C8C"/>
<path d="M155.312 26.5V21.9473H154V20.915H155.312V16.5469H158.122C158.988 16.5469 159.753 16.7383 160.419 17.1211C161.084 17.5039 161.597 18.0485 161.957 18.7549C162.322 19.4613 162.506 20.2725 162.511 21.1885V21.8242C162.511 22.763 162.328 23.5856 161.964 24.292C161.604 24.9984 161.086 25.5407 160.412 25.9189C159.742 26.2972 158.961 26.4909 158.067 26.5H155.312ZM158.348 21.9473H156.625V25.4268H157.999C159.011 25.4268 159.797 25.1146 160.357 24.4902C160.922 23.8659 161.207 22.9863 161.212 21.8516V21.2158C161.212 20.0856 160.945 19.2083 160.412 18.584C159.883 17.9551 159.132 17.6361 158.156 17.627H156.625V20.915H158.348V21.9473ZM168.868 25.7686C168.376 26.3473 167.654 26.6367 166.701 26.6367C165.913 26.6367 165.311 26.4089 164.896 25.9531C164.486 25.4928 164.279 24.8138 164.274 23.916V19.1035H165.539V23.8818C165.539 25.0029 165.995 25.5635 166.906 25.5635C167.872 25.5635 168.515 25.2035 168.834 24.4834V19.1035H170.099V26.5H168.895L168.868 25.7686ZM167.843 16H169.374L167.542 18.0098H166.523L167.843 16ZM173.223 19.1035L173.264 20.0332C173.829 19.3223 174.567 18.9668 175.478 18.9668C177.042 18.9668 177.83 19.8486 177.844 21.6123V26.5H176.579V21.6055C176.574 21.0723 176.451 20.6781 176.21 20.4229C175.973 20.1676 175.601 20.04 175.096 20.04C174.685 20.04 174.325 20.1494 174.016 20.3682C173.706 20.5869 173.464 20.874 173.291 21.2295V26.5H172.026V19.1035H173.223ZM179.45 22.7402C179.45 21.5872 179.717 20.6712 180.25 19.9922C180.783 19.3086 181.489 18.9668 182.369 18.9668C183.271 18.9668 183.975 19.2858 184.481 19.9238L184.543 19.1035H185.698V26.3223C185.698 27.2793 185.413 28.0335 184.844 28.585C184.279 29.1364 183.517 29.4121 182.56 29.4121C182.027 29.4121 181.505 29.2982 180.995 29.0703C180.485 28.8424 180.095 28.5303 179.826 28.1338L180.482 27.375C181.025 28.0449 181.688 28.3799 182.472 28.3799C183.087 28.3799 183.565 28.2067 183.907 27.8604C184.253 27.514 184.427 27.0264 184.427 26.3975V25.7617C183.921 26.3451 183.23 26.6367 182.355 26.6367C181.489 26.6367 180.788 26.2881 180.25 25.5908C179.717 24.8936 179.45 23.9434 179.45 22.7402ZM180.722 22.8838C180.722 23.7178 180.893 24.374 181.234 24.8525C181.576 25.3265 182.055 25.5635 182.67 25.5635C183.467 25.5635 184.053 25.2012 184.427 24.4766V21.0996C184.039 20.3932 183.458 20.04 182.683 20.04C182.068 20.04 181.587 20.2793 181.241 20.7578C180.895 21.2363 180.722 21.945 180.722 22.8838Z" fill="#8C8C8C"/>
<path d="M197.541 22.6533C196.415 22.3297 195.595 21.9332 195.08 21.4638C194.57 20.9899 194.314 20.4065 194.314 19.7138C194.314 18.93 194.627 18.2828 195.251 17.7724C195.88 17.2574 196.696 17 197.698 17C198.382 17 198.99 17.1321 199.523 17.3964C200.061 17.6608 200.476 18.0253 200.768 18.4902C201.064 18.955 201.212 19.4632 201.212 20.0146H199.893C199.893 19.413 199.701 18.9414 199.318 18.5996C198.935 18.2532 198.395 18.08 197.698 18.08C197.051 18.08 196.545 18.2236 196.181 18.5107C195.821 18.7933 195.641 19.1875 195.641 19.6933C195.641 20.0989 195.811 20.443 196.153 20.7255C196.5 21.0035 197.085 21.2587 197.91 21.4912C198.74 21.7236 199.387 21.9811 199.851 22.2636C200.321 22.5416 200.667 22.8675 200.891 23.2412C201.118 23.6149 201.232 24.0546 201.232 24.5605C201.232 25.3671 200.918 26.0143 200.289 26.5019C199.66 26.985 198.819 27.2265 197.767 27.2265C197.083 27.2265 196.445 27.0966 195.852 26.8369C195.26 26.5725 194.802 26.2125 194.478 25.7568C194.159 25.3011 194 24.7838 194 24.205H195.319C195.319 24.8066 195.54 25.2828 195.982 25.6337C196.429 25.9801 197.024 26.1533 197.767 26.1533C198.459 26.1533 198.99 26.012 199.359 25.7294C199.728 25.4469 199.913 25.0618 199.913 24.5742C199.913 24.0865 199.742 23.7106 199.4 23.4462C199.059 23.1774 198.439 22.913 197.541 22.6533ZM207.289 27.0898C207.216 26.944 207.157 26.6842 207.111 26.3105C206.523 26.9212 205.822 27.2265 205.006 27.2265C204.277 27.2265 203.677 27.0214 203.208 26.6113C202.743 26.1966 202.511 25.6725 202.511 25.039C202.511 24.2688 202.802 23.6718 203.386 23.248C203.974 22.8196 204.799 22.6054 205.86 22.6054H207.091V22.0244C207.091 21.5823 206.959 21.2314 206.694 20.9716C206.43 20.7073 206.04 20.5752 205.525 20.5752C205.074 20.5752 204.696 20.6891 204.391 20.9169C204.085 21.1448 203.933 21.4205 203.933 21.7441H202.661C202.661 21.375 202.791 21.0195 203.051 20.6777C203.315 20.3313 203.67 20.0579 204.117 19.8574C204.568 19.6569 205.063 19.5566 205.601 19.5566C206.453 19.5566 207.12 19.7708 207.603 20.1992C208.087 20.623 208.337 21.2086 208.355 21.956V25.3603C208.355 26.0393 208.442 26.5794 208.615 26.9804V27.0898H207.289ZM205.19 26.1259C205.587 26.1259 205.963 26.0234 206.318 25.8183C206.674 25.6132 206.931 25.3466 207.091 25.0185V23.5009H206.1C204.55 23.5009 203.775 23.9544 203.775 24.8613C203.775 25.2578 203.907 25.5677 204.172 25.791C204.436 26.0143 204.776 26.1259 205.19 26.1259ZM211.712 27.0898H210.447V19.6933H211.712V27.0898ZM210.345 17.7314C210.345 17.5263 210.406 17.3531 210.529 17.2119C210.657 17.0706 210.844 17 211.09 17C211.336 17 211.523 17.0706 211.65 17.2119C211.778 17.3531 211.842 17.5263 211.842 17.7314C211.842 17.9365 211.778 18.1074 211.65 18.2441C211.523 18.3808 211.336 18.4492 211.09 18.4492C210.844 18.4492 210.657 18.3808 210.529 18.2441C210.406 18.1074 210.345 17.9365 210.345 17.7314Z" fill="#8C8C8C"/>
<path d="M158 64C158 57.3726 163.373 52 170 52C176.627 52 182 57.3726 182 64C182 70.6274 176.627 76 170 76C163.373 76 158 70.6274 158 64Z" fill="#F6F6F6"/>
<path d="M191 105C191 98.3726 196.373 93 203 93C209.627 93 215 98.3726 215 105C215 111.627 209.627 117 203 117C196.373 117 191 111.627 191 105Z" fill="#F6F6F6"/>
<path d="M158 146C158 139.373 163.373 134 170 134C176.627 134 182 139.373 182 146C182 152.627 176.627 158 170 158C163.373 158 158 152.627 158 146Z" fill="#F6F6F6"/>
<path d="M191 64C191 57.3726 196.373 52 203 52C209.627 52 215 57.3726 215 64C215 70.6274 209.627 76 203 76C196.373 76 191 70.6274 191 64Z" fill="#2EB553"/>
<path d="M158 105C158 98.3726 163.373 93 170 93C176.627 93 182 98.3726 182 105C182 111.627 176.627 117 170 117C163.373 117 158 111.627 158 105Z" fill="#2EB553"/>
<path d="M191 146C191 139.373 196.373 134 203 134C209.627 134 215 139.373 215 146C215 152.627 209.627 158 203 158C196.373 158 191 152.627 191 146Z" fill="#2EB553"/>
</g>
<defs>
<clipPath id="clip0_1_30">
<rect width="224" height="184" fill="white"/>
</clipPath>
</defs>
</svg>
