<svg width="224" height="184" viewBox="0 0 224 184" fill="none" xmlns="http://www.w3.org/2000/svg">
<path d="M0 5C0 2.23858 2.23858 0 5 0H219C221.761 0 224 2.23858 224 5V179C224 181.761 221.761 184 219 184H4.99999C2.23857 184 0 181.761 0 179V5Z" fill="white"/>
<path d="M24.8047 29H23.4854L18.4746 21.3301V29H17.1553V19.0469H18.4746L23.499 26.751V19.0469H24.8047V29ZM26.6025 25.2334C26.6025 24.5088 26.7438 23.8571 27.0264 23.2783C27.3135 22.6995 27.71 22.2529 28.2158 21.9385C28.7262 21.624 29.3073 21.4668 29.959 21.4668C30.9661 21.4668 31.7796 21.8154 32.3994 22.5127C33.0238 23.21 33.3359 24.1374 33.3359 25.2949V25.3838C33.3359 26.1038 33.1969 26.751 32.9189 27.3252C32.6455 27.8949 32.2513 28.3392 31.7363 28.6582C31.2259 28.9772 30.638 29.1367 29.9727 29.1367C28.9701 29.1367 28.1566 28.7881 27.5322 28.0908C26.9124 27.3936 26.6025 26.4707 26.6025 25.3223V25.2334ZM27.874 25.3838C27.874 26.2041 28.0632 26.8626 28.4414 27.3594C28.8242 27.8561 29.3346 28.1045 29.9727 28.1045C30.6152 28.1045 31.1257 27.8538 31.5039 27.3525C31.8822 26.8467 32.0713 26.1403 32.0713 25.2334C32.0713 24.4222 31.8776 23.766 31.4902 23.2646C31.1074 22.7588 30.597 22.5059 29.959 22.5059C29.3346 22.5059 28.8311 22.7542 28.4482 23.251C28.0654 23.7477 27.874 24.4587 27.874 25.3838ZM31.9824 20.373V20.4414H30.9365L29.9111 19.2793L28.8926 20.4414H27.8467V20.3594L29.5283 18.5H30.2939L31.9824 20.373ZM29.1865 30.6748C29.1865 30.4697 29.248 30.2965 29.3711 30.1553C29.4987 30.014 29.6855 29.9434 29.9316 29.9434C30.1777 29.9434 30.3646 30.014 30.4922 30.1553C30.6198 30.2965 30.6836 30.4697 30.6836 30.6748C30.6836 30.8799 30.6198 31.0508 30.4922 31.1875C30.3646 31.3242 30.1777 31.3926 29.9316 31.3926C29.6855 31.3926 29.4987 31.3242 29.3711 31.1875C29.248 31.0508 29.1865 30.8799 29.1865 30.6748ZM36.2959 29H35.0312V21.6035H36.2959V29ZM34.9287 19.6416C34.9287 19.4365 34.9902 19.2633 35.1133 19.1221C35.2409 18.9808 35.4277 18.9102 35.6738 18.9102C35.9199 18.9102 36.1068 18.9808 36.2344 19.1221C36.362 19.2633 36.4258 19.4365 36.4258 19.6416C36.4258 19.8467 36.362 20.0176 36.2344 20.1543C36.1068 20.291 35.9199 20.3594 35.6738 20.3594C35.4277 20.3594 35.2409 20.291 35.1133 20.1543C34.9902 20.0176 34.9287 19.8467 34.9287 19.6416ZM41.4912 25.2402C41.4912 24.1055 41.7601 23.194 42.2979 22.5059C42.8356 21.8132 43.5397 21.4668 44.4102 21.4668C45.276 21.4668 45.9619 21.763 46.4678 22.3555V18.5H47.7324V29H46.5703L46.5088 28.207C46.0029 28.8268 45.2988 29.1367 44.3965 29.1367C43.5397 29.1367 42.8402 28.7858 42.2979 28.084C41.7601 27.3822 41.4912 26.4661 41.4912 25.3359V25.2402ZM42.7559 25.3838C42.7559 26.2223 42.929 26.8786 43.2754 27.3525C43.6217 27.8265 44.1003 28.0635 44.7109 28.0635C45.513 28.0635 46.0986 27.7035 46.4678 26.9834V23.5859C46.0895 22.8887 45.5085 22.54 44.7246 22.54C44.1048 22.54 43.6217 22.7793 43.2754 23.2578C42.929 23.7363 42.7559 24.445 42.7559 25.3838ZM54.2676 28.2686C53.7754 28.8473 53.0531 29.1367 52.1006 29.1367C51.3122 29.1367 50.7106 28.9089 50.2959 28.4531C49.8857 27.9928 49.6784 27.3138 49.6738 26.416V21.6035H50.9385V26.3818C50.9385 27.5029 51.3942 28.0635 52.3057 28.0635C53.2718 28.0635 53.9144 27.7035 54.2334 26.9834V21.6035H55.498V29H54.2949L54.2676 28.2686ZM58.6221 21.6035L58.6631 22.5332C59.2282 21.8223 59.9665 21.4668 60.8779 21.4668C62.4411 21.4668 63.2295 22.3486 63.2432 24.1123V29H61.9785V24.1055C61.974 23.5723 61.8509 23.1781 61.6094 22.9229C61.3724 22.6676 61.001 22.54 60.4951 22.54C60.085 22.54 59.7249 22.6494 59.415 22.8682C59.1051 23.0869 58.8636 23.374 58.6904 23.7295V29H57.4258V21.6035H58.6221ZM64.8496 25.2402C64.8496 24.0872 65.1162 23.1712 65.6494 22.4922C66.1826 21.8086 66.889 21.4668 67.7686 21.4668C68.6709 21.4668 69.375 21.7858 69.8809 22.4238L69.9424 21.6035H71.0977V28.8223C71.0977 29.7793 70.8128 30.5335 70.2432 31.085C69.6781 31.6364 68.917 31.9121 67.96 31.9121C67.4268 31.9121 66.9049 31.7982 66.3945 31.5703C65.8841 31.3424 65.4945 31.0303 65.2256 30.6338L65.8818 29.875C66.4242 30.5449 67.0872 30.8799 67.8711 30.8799C68.4863 30.8799 68.9648 30.7067 69.3066 30.3604C69.653 30.014 69.8262 29.5264 69.8262 28.8975V28.2617C69.3203 28.8451 68.6299 29.1367 67.7549 29.1367C66.889 29.1367 66.1872 28.7881 65.6494 28.0908C65.1162 27.3936 64.8496 26.4434 64.8496 25.2402ZM66.1211 25.3838C66.1211 26.2178 66.292 26.874 66.6338 27.3525C66.9756 27.8265 67.4541 28.0635 68.0693 28.0635C68.8669 28.0635 69.4525 27.7012 69.8262 26.9766V23.5996C69.4388 22.8932 68.8577 22.54 68.083 22.54C67.4678 22.54 66.987 22.7793 66.6406 23.2578C66.2943 23.7363 66.1211 24.445 66.1211 25.3838ZM79.4512 28.1045C79.9023 28.1045 80.2965 27.9678 80.6338 27.6943C80.971 27.4209 81.1579 27.0791 81.1943 26.6689H82.3906C82.3678 27.0928 82.222 27.4961 81.9531 27.8789C81.6842 28.2617 81.3242 28.5671 80.873 28.7949C80.4264 29.0228 79.9525 29.1367 79.4512 29.1367C78.444 29.1367 77.6419 28.8018 77.0449 28.1318C76.4525 27.4574 76.1562 26.5368 76.1562 25.3701V25.1582C76.1562 24.4382 76.2884 23.7979 76.5527 23.2373C76.8171 22.6768 77.1953 22.2415 77.6875 21.9316C78.1842 21.6217 78.7699 21.4668 79.4443 21.4668C80.2738 21.4668 80.9619 21.7152 81.5088 22.2119C82.0602 22.7087 82.3542 23.3535 82.3906 24.1465H81.1943C81.1579 23.668 80.9756 23.276 80.6475 22.9707C80.3239 22.6608 79.9229 22.5059 79.4443 22.5059C78.8018 22.5059 78.3027 22.7383 77.9473 23.2031C77.5964 23.6634 77.4209 24.3311 77.4209 25.2061V25.4453C77.4209 26.2975 77.5964 26.9538 77.9473 27.4141C78.2982 27.8743 78.7995 28.1045 79.4512 28.1045ZM88.3789 29C88.306 28.8542 88.2467 28.5944 88.2012 28.2207C87.6133 28.8314 86.9115 29.1367 86.0957 29.1367C85.3665 29.1367 84.7673 28.9316 84.2979 28.5215C83.833 28.1068 83.6006 27.5827 83.6006 26.9492C83.6006 26.179 83.8923 25.582 84.4756 25.1582C85.0635 24.7298 85.8883 24.5156 86.9502 24.5156H88.1807V23.9346C88.1807 23.4925 88.0485 23.1416 87.7842 22.8818C87.5199 22.6175 87.1302 22.4854 86.6152 22.4854C86.1641 22.4854 85.7858 22.5993 85.4805 22.8271C85.1751 23.055 85.0225 23.3307 85.0225 23.6543H83.751C83.751 23.2852 83.8809 22.9297 84.1406 22.5879C84.4049 22.2415 84.7604 21.9681 85.207 21.7676C85.6582 21.5671 86.1527 21.4668 86.6904 21.4668C87.5426 21.4668 88.2103 21.681 88.6934 22.1094C89.1764 22.5332 89.4271 23.1188 89.4453 23.8662V27.2705C89.4453 27.9495 89.5319 28.4896 89.7051 28.8906V29H88.3789ZM86.2803 28.0361C86.6768 28.0361 87.0527 27.9336 87.4082 27.7285C87.7637 27.5234 88.0212 27.2568 88.1807 26.9287V25.4111H87.1895C85.64 25.4111 84.8652 25.8646 84.8652 26.7715C84.8652 27.168 84.9974 27.4779 85.2617 27.7012C85.526 27.9245 85.8656 28.0361 86.2803 28.0361ZM88.8984 20.373V20.4414H87.8525L86.8271 19.2793L85.8086 20.4414H84.7627V20.3594L86.4443 18.5H87.21L88.8984 20.373ZM95.9941 28.2686C95.502 28.8473 94.7796 29.1367 93.8271 29.1367C93.0387 29.1367 92.4372 28.9089 92.0225 28.4531C91.6123 27.9928 91.4049 27.3138 91.4004 26.416V21.6035H92.665V26.3818C92.665 27.5029 93.1208 28.0635 94.0322 28.0635C94.9984 28.0635 95.641 27.7035 95.96 26.9834V21.6035H97.2246V29H96.0215L95.9941 28.2686ZM103.89 22.499C104.45 21.8109 105.179 21.4668 106.077 21.4668C107.64 21.4668 108.429 22.3486 108.442 24.1123V29H107.178V24.1055C107.173 23.5723 107.05 23.1781 106.809 22.9229C106.572 22.6676 106.2 22.54 105.694 22.54C105.284 22.54 104.924 22.6494 104.614 22.8682C104.304 23.0869 104.063 23.374 103.89 23.7295V29H102.625V18.5H103.89V22.499ZM110.001 25.2334C110.001 24.5088 110.142 23.8571 110.425 23.2783C110.712 22.6995 111.108 22.2529 111.614 21.9385C112.125 21.624 112.706 21.4668 113.357 21.4668C114.365 21.4668 115.178 21.8154 115.798 22.5127C116.422 23.21 116.734 24.1374 116.734 25.2949V25.3838C116.734 26.1038 116.595 26.751 116.317 27.3252C116.044 27.8949 115.65 28.3392 115.135 28.6582C114.624 28.9772 114.036 29.1367 113.371 29.1367C112.368 29.1367 111.555 28.7881 110.931 28.0908C110.311 27.3936 110.001 26.4707 110.001 25.3223V25.2334ZM111.272 25.3838C111.272 26.2041 111.462 26.8626 111.84 27.3594C112.223 27.8561 112.733 28.1045 113.371 28.1045C114.014 28.1045 114.524 27.8538 114.902 27.3525C115.281 26.8467 115.47 26.1403 115.47 25.2334C115.47 24.4222 115.276 23.766 114.889 23.2646C114.506 22.7588 113.995 22.5059 113.357 22.5059C112.733 22.5059 112.229 22.7542 111.847 23.251C111.464 23.7477 111.272 24.4587 111.272 25.3838ZM112.886 20.4072L112.879 19.3613C113.221 19.3385 113.471 19.293 113.631 19.2246C113.79 19.1562 113.87 19.0332 113.87 18.8555C113.87 18.6777 113.765 18.5456 113.556 18.459C113.351 18.3678 113.077 18.3223 112.735 18.3223L112.783 17.5977C113.462 17.5977 113.977 17.7161 114.328 17.9531C114.679 18.1855 114.854 18.4954 114.854 18.8828C114.854 19.1608 114.766 19.391 114.588 19.5732C114.41 19.7555 114.146 19.8717 113.795 19.9219L113.788 20.4072H112.886ZM119.694 29H118.43V21.6035H119.694V29ZM118.327 19.6416C118.327 19.4365 118.389 19.2633 118.512 19.1221C118.639 18.9808 118.826 18.9102 119.072 18.9102C119.318 18.9102 119.505 18.9808 119.633 19.1221C119.76 19.2633 119.824 19.4365 119.824 19.6416C119.824 19.8467 119.76 20.0176 119.633 20.1543C119.505 20.291 119.318 20.3594 119.072 20.3594C118.826 20.3594 118.639 20.291 118.512 20.1543C118.389 20.0176 118.327 19.8467 118.327 19.6416ZM121.752 28.3369C121.752 28.1182 121.816 27.9359 121.943 27.79C122.076 27.6442 122.271 27.5713 122.531 27.5713C122.791 27.5713 122.987 27.6442 123.119 27.79C123.256 27.9359 123.324 28.1182 123.324 28.3369C123.324 28.5465 123.256 28.722 123.119 28.8633C122.987 29.0046 122.791 29.0752 122.531 29.0752C122.271 29.0752 122.076 29.0046 121.943 28.8633C121.816 28.722 121.752 28.5465 121.752 28.3369ZM125.443 28.3369C125.443 28.1182 125.507 27.9359 125.635 27.79C125.767 27.6442 125.963 27.5713 126.223 27.5713C126.482 27.5713 126.678 27.6442 126.811 27.79C126.947 27.9359 127.016 28.1182 127.016 28.3369C127.016 28.5465 126.947 28.722 126.811 28.8633C126.678 29.0046 126.482 29.0752 126.223 29.0752C125.963 29.0752 125.767 29.0046 125.635 28.8633C125.507 28.722 125.443 28.5465 125.443 28.3369ZM129.135 28.3369C129.135 28.1182 129.199 27.9359 129.326 27.79C129.458 27.6442 129.654 27.5713 129.914 27.5713C130.174 27.5713 130.37 27.6442 130.502 27.79C130.639 27.9359 130.707 28.1182 130.707 28.3369C130.707 28.5465 130.639 28.722 130.502 28.8633C130.37 29.0046 130.174 29.0752 129.914 29.0752C129.654 29.0752 129.458 29.0046 129.326 28.8633C129.199 28.722 129.135 28.5465 129.135 28.3369Z" fill="#8C8C8C"/>
<path d="M16 60C16 53.3726 21.3726 48 28 48V48C34.6274 48 40 53.3726 40 60V60C40 66.6274 34.6274 72 28 72V72C21.3726 72 16 66.6274 16 60V60Z" fill="#F6F6F6"/>
<path d="M30.085 62.4023H25.915L24.9785 65H23.625L27.4258 55.0469H28.5742L32.3818 65H31.0352L30.085 62.4023ZM26.3115 61.3223H29.6953L28 56.667L26.3115 61.3223Z" fill="#8C8C8C"/>
<path d="M53.3604 64.5V59.9473H52.0479V58.915H53.3604V54.5469H56.1699C57.0358 54.5469 57.8014 54.7383 58.4668 55.1211C59.1322 55.5039 59.6449 56.0485 60.0049 56.7549C60.3695 57.4613 60.554 58.2725 60.5586 59.1885V59.8242C60.5586 60.763 60.3763 61.5856 60.0117 62.292C59.6517 62.9984 59.1344 63.5407 58.46 63.9189C57.79 64.2972 57.0085 64.4909 56.1152 64.5H53.3604ZM56.3955 59.9473H54.6729V63.4268H56.0469C57.0586 63.4268 57.8447 63.1146 58.4053 62.4902C58.9704 61.8659 59.2552 60.9863 59.2598 59.8516V59.2158C59.2598 58.0856 58.9932 57.2083 58.46 56.584C57.9313 55.9551 57.1794 55.6361 56.2041 55.627H54.6729V58.915H56.3955V59.9473ZM66.916 63.7686C66.4238 64.3473 65.7015 64.6367 64.749 64.6367C63.9606 64.6367 63.359 64.4089 62.9443 63.9531C62.5342 63.4928 62.3268 62.8138 62.3223 61.916V57.1035H63.5869V61.8818C63.5869 63.0029 64.0426 63.5635 64.9541 63.5635C65.9202 63.5635 66.5628 63.2035 66.8818 62.4834V57.1035H68.1465V64.5H66.9434L66.916 63.7686ZM65.8906 54H67.4219L65.5898 56.0098H64.5713L65.8906 54ZM71.2705 57.1035L71.3115 58.0332C71.8766 57.3223 72.6149 56.9668 73.5264 56.9668C75.0895 56.9668 75.8779 57.8486 75.8916 59.6123V64.5H74.627V59.6055C74.6224 59.0723 74.4993 58.6781 74.2578 58.4229C74.0208 58.1676 73.6494 58.04 73.1436 58.04C72.7334 58.04 72.3734 58.1494 72.0635 58.3682C71.7536 58.5869 71.512 58.874 71.3389 59.2295V64.5H70.0742V57.1035H71.2705ZM77.498 60.7402C77.498 59.5872 77.7646 58.6712 78.2979 57.9922C78.8311 57.3086 79.5374 56.9668 80.417 56.9668C81.3193 56.9668 82.0234 57.2858 82.5293 57.9238L82.5908 57.1035H83.7461V64.3223C83.7461 65.2793 83.4613 66.0335 82.8916 66.585C82.3265 67.1364 81.5654 67.4121 80.6084 67.4121C80.0752 67.4121 79.5534 67.2982 79.043 67.0703C78.5326 66.8424 78.1429 66.5303 77.874 66.1338L78.5303 65.375C79.0726 66.0449 79.7357 66.3799 80.5195 66.3799C81.1348 66.3799 81.6133 66.2067 81.9551 65.8604C82.3014 65.514 82.4746 65.0264 82.4746 64.3975V63.7617C81.9688 64.3451 81.2783 64.6367 80.4033 64.6367C79.5374 64.6367 78.8356 64.2881 78.2979 63.5908C77.7646 62.8936 77.498 61.9434 77.498 60.7402ZM78.7695 60.8838C78.7695 61.7178 78.9404 62.374 79.2822 62.8525C79.624 63.3265 80.1025 63.5635 80.7178 63.5635C81.5153 63.5635 82.1009 63.2012 82.4746 62.4766V59.0996C82.0872 58.3932 81.5062 58.04 80.7314 58.04C80.1162 58.04 79.6354 58.2793 79.2891 58.7578C78.9427 59.2363 78.7695 59.945 78.7695 60.8838Z" fill="#8C8C8C"/>
<path d="M16 92C16 85.3726 21.3726 80 28 80V80C34.6274 80 40 85.3726 40 92V92C40 98.6274 34.6274 104 28 104V104C21.3726 104 16 98.6274 16 92V92Z" fill="#2EB553"/>
<path d="M25.2939 97V87.0469H28.5479C29.6279 87.0469 30.4391 87.2702 30.9814 87.7168C31.5283 88.1634 31.8018 88.8242 31.8018 89.6992C31.8018 90.1641 31.6696 90.5765 31.4053 90.9365C31.141 91.292 30.7809 91.5677 30.3252 91.7637C30.863 91.9141 31.2868 92.2012 31.5967 92.625C31.9111 93.0443 32.0684 93.5456 32.0684 94.1289C32.0684 95.0221 31.779 95.724 31.2002 96.2344C30.6214 96.7448 29.8034 97 28.7461 97H25.2939ZM26.6064 92.3447V95.9268H28.7734C29.3841 95.9268 29.8649 95.7695 30.2158 95.4551C30.5713 95.1361 30.749 94.6986 30.749 94.1426C30.749 92.944 30.0973 92.3447 28.7939 92.3447H26.6064ZM26.6064 91.292H28.5889C29.1631 91.292 29.6211 91.1484 29.9629 90.8613C30.3092 90.5742 30.4824 90.1846 30.4824 89.6924C30.4824 89.1455 30.3229 88.749 30.0039 88.5029C29.6849 88.2523 29.1995 88.127 28.5479 88.127H26.6064V91.292Z" fill="white"/>
<path d="M56.0879 92.0635C54.9622 91.7399 54.1419 91.3434 53.627 90.874C53.1165 90.4001 52.8613 89.8167 52.8613 89.124C52.8613 88.3402 53.1735 87.693 53.7979 87.1826C54.4268 86.6676 55.2425 86.4102 56.2451 86.4102C56.9287 86.4102 57.5371 86.5423 58.0703 86.8066C58.6081 87.071 59.0228 87.4355 59.3145 87.9004C59.6107 88.3652 59.7588 88.8734 59.7588 89.4248H58.4395C58.4395 88.8232 58.248 88.3516 57.8652 88.0098C57.4824 87.6634 56.9424 87.4902 56.2451 87.4902C55.598 87.4902 55.0921 87.6338 54.7275 87.9209C54.3675 88.2035 54.1875 88.5977 54.1875 89.1035C54.1875 89.5091 54.3584 89.8532 54.7002 90.1357C55.0465 90.4137 55.6322 90.6689 56.457 90.9014C57.2865 91.1338 57.9336 91.3913 58.3984 91.6738C58.8678 91.9518 59.2142 92.2777 59.4375 92.6514C59.6654 93.0251 59.7793 93.4648 59.7793 93.9707C59.7793 94.7773 59.4648 95.4245 58.8359 95.9121C58.207 96.3952 57.3662 96.6367 56.3135 96.6367C55.6299 96.6367 54.9919 96.5068 54.3994 96.2471C53.807 95.9827 53.349 95.6227 53.0254 95.167C52.7064 94.7113 52.5469 94.194 52.5469 93.6152H53.8662C53.8662 94.2168 54.0872 94.693 54.5293 95.0439C54.9759 95.3903 55.5706 95.5635 56.3135 95.5635C57.0062 95.5635 57.5371 95.4222 57.9062 95.1396C58.2754 94.8571 58.46 94.472 58.46 93.9844C58.46 93.4967 58.2891 93.1208 57.9473 92.8564C57.6055 92.5876 56.9857 92.3232 56.0879 92.0635ZM65.8359 96.5C65.763 96.3542 65.7038 96.0944 65.6582 95.7207C65.0703 96.3314 64.3685 96.6367 63.5527 96.6367C62.8236 96.6367 62.2243 96.4316 61.7549 96.0215C61.29 95.6068 61.0576 95.0827 61.0576 94.4492C61.0576 93.679 61.3493 93.082 61.9326 92.6582C62.5205 92.2298 63.3454 92.0156 64.4072 92.0156H65.6377V91.4346C65.6377 90.9925 65.5055 90.6416 65.2412 90.3818C64.9769 90.1175 64.5872 89.9854 64.0723 89.9854C63.6211 89.9854 63.2428 90.0993 62.9375 90.3271C62.6322 90.555 62.4795 90.8307 62.4795 91.1543H61.208C61.208 90.7852 61.3379 90.4297 61.5977 90.0879C61.862 89.7415 62.2174 89.4681 62.6641 89.2676C63.1152 89.0671 63.6097 88.9668 64.1475 88.9668C64.9997 88.9668 65.6673 89.181 66.1504 89.6094C66.6335 90.0332 66.8841 90.6188 66.9023 91.3662V94.7705C66.9023 95.4495 66.9889 95.9896 67.1621 96.3906V96.5H65.8359ZM63.7373 95.5361C64.1338 95.5361 64.5098 95.4336 64.8652 95.2285C65.2207 95.0234 65.4782 94.7568 65.6377 94.4287V92.9111H64.6465C63.097 92.9111 62.3223 93.3646 62.3223 94.2715C62.3223 94.668 62.4544 94.9779 62.7188 95.2012C62.9831 95.4245 63.3226 95.5361 63.7373 95.5361ZM70.2588 96.5H68.9941V89.1035H70.2588V96.5ZM68.8916 87.1416C68.8916 86.9365 68.9531 86.7633 69.0762 86.6221C69.2038 86.4808 69.3906 86.4102 69.6367 86.4102C69.8828 86.4102 70.0697 86.4808 70.1973 86.6221C70.3249 86.7633 70.3887 86.9365 70.3887 87.1416C70.3887 87.3467 70.3249 87.5176 70.1973 87.6543C70.0697 87.791 69.8828 87.8594 69.6367 87.8594C69.3906 87.8594 69.2038 87.791 69.0762 87.6543C68.9531 87.5176 68.8916 87.3467 68.8916 87.1416Z" fill="#2EB553"/>
<path d="M5 1H219V-1H5V1ZM223 5V179H225V5H223ZM219 183H4.99999V185H219V183ZM1 179V5H-1V179H1ZM4.99999 183C2.79086 183 1 181.209 1 179H-1C-1 182.314 1.68628 185 4.99999 185V183ZM223 179C223 181.209 221.209 183 219 183V185C222.314 185 225 182.314 225 179H223ZM219 1C221.209 1 223 2.79086 223 5H225C225 1.68629 222.314 -1 219 -1V1ZM5 -1C1.68629 -1 -1 1.6863 -1 5H1C1 2.79086 2.79086 1 5 1V-1Z" fill="#E8E8E8"/>
</svg>
