<svg width="224" height="184" viewBox="0 0 224 184" fill="none" xmlns="http://www.w3.org/2000/svg">
<path d="M0 5C0 2.23858 2.23858 0 5 0H219C221.761 0 224 2.23858 224 5V179C224 181.761 221.761 184 219 184H4.99999C2.23857 184 0 181.761 0 179V5Z" fill="white"/>
<path d="M20.0879 24.5635C18.9622 24.2399 18.1419 23.8434 17.627 23.374C17.1165 22.9001 16.8613 22.3167 16.8613 21.624C16.8613 20.8402 17.1735 20.193 17.7979 19.6826C18.4268 19.1676 19.2425 18.9102 20.2451 18.9102C20.9287 18.9102 21.5371 19.0423 22.0703 19.3066C22.6081 19.571 23.0228 19.9355 23.3145 20.4004C23.6107 20.8652 23.7588 21.3734 23.7588 21.9248H22.4395C22.4395 21.3232 22.248 20.8516 21.8652 20.5098C21.4824 20.1634 20.9424 19.9902 20.2451 19.9902C19.598 19.9902 19.0921 20.1338 18.7275 20.4209C18.3675 20.7035 18.1875 21.0977 18.1875 21.6035C18.1875 22.0091 18.3584 22.3532 18.7002 22.6357C19.0465 22.9137 19.6322 23.1689 20.457 23.4014C21.2865 23.6338 21.9336 23.8913 22.3984 24.1738C22.8678 24.4518 23.2142 24.7777 23.4375 25.1514C23.6654 25.5251 23.7793 25.9648 23.7793 26.4707C23.7793 27.2773 23.4648 27.9245 22.8359 28.4121C22.207 28.8952 21.3662 29.1367 20.3135 29.1367C19.6299 29.1367 18.9919 29.0068 18.3994 28.7471C17.807 28.4827 17.349 28.1227 17.0254 27.667C16.7064 27.2113 16.5469 26.694 16.5469 26.1152H17.8662C17.8662 26.7168 18.0872 27.193 18.5293 27.5439C18.9759 27.8903 19.5706 28.0635 20.3135 28.0635C21.0062 28.0635 21.5371 27.9222 21.9062 27.6396C22.2754 27.3571 22.46 26.972 22.46 26.4844C22.46 25.9967 22.2891 25.6208 21.9473 25.3564C21.6055 25.0876 20.9857 24.8232 20.0879 24.5635ZM29.8359 29C29.763 28.8542 29.7038 28.5944 29.6582 28.2207C29.0703 28.8314 28.3685 29.1367 27.5527 29.1367C26.8236 29.1367 26.2243 28.9316 25.7549 28.5215C25.29 28.1068 25.0576 27.5827 25.0576 26.9492C25.0576 26.179 25.3493 25.582 25.9326 25.1582C26.5205 24.7298 27.3454 24.5156 28.4072 24.5156H29.6377V23.9346C29.6377 23.4925 29.5055 23.1416 29.2412 22.8818C28.9769 22.6175 28.5872 22.4854 28.0723 22.4854C27.6211 22.4854 27.2428 22.5993 26.9375 22.8271C26.6322 23.055 26.4795 23.3307 26.4795 23.6543H25.208C25.208 23.2852 25.3379 22.9297 25.5977 22.5879C25.862 22.2415 26.2174 21.9681 26.6641 21.7676C27.1152 21.5671 27.6097 21.4668 28.1475 21.4668C28.9997 21.4668 29.6673 21.681 30.1504 22.1094C30.6335 22.5332 30.8841 23.1188 30.9023 23.8662V27.2705C30.9023 27.9495 30.9889 28.4896 31.1621 28.8906V29H29.8359ZM27.7373 28.0361C28.1338 28.0361 28.5098 27.9336 28.8652 27.7285C29.2207 27.5234 29.4782 27.2568 29.6377 26.9287V25.4111H28.6465C27.097 25.4111 26.3223 25.8646 26.3223 26.7715C26.3223 27.168 26.4544 27.4779 26.7188 27.7012C26.9831 27.9245 27.3226 28.0361 27.7373 28.0361ZM30.3213 19.1016C30.3213 19.5345 30.1299 19.8809 29.7471 20.1406C29.3643 20.4004 28.8652 20.5303 28.25 20.5303C27.6302 20.5303 27.1289 20.4004 26.7461 20.1406C26.3633 19.8809 26.1719 19.5345 26.1719 19.1016H27.2109C27.2109 19.3522 27.2998 19.5482 27.4775 19.6895C27.6598 19.8262 27.9173 19.8945 28.25 19.8945C28.5736 19.8945 28.8242 19.8239 29.002 19.6826C29.1842 19.5368 29.2754 19.3431 29.2754 19.1016H30.3213ZM28.6191 17.6113H29.665L28.5439 18.9648H27.8467L28.6191 17.6113ZM39.1328 25.3838C39.1328 26.5094 38.8753 27.4163 38.3604 28.1045C37.8454 28.7926 37.1481 29.1367 36.2686 29.1367C35.3708 29.1367 34.6644 28.8519 34.1494 28.2822V31.8438H32.8848V21.6035H34.04L34.1016 22.4238C34.6165 21.7858 35.332 21.4668 36.248 21.4668C37.1367 21.4668 37.8385 21.8018 38.3535 22.4717C38.873 23.1416 39.1328 24.0736 39.1328 25.2676V25.3838ZM37.8682 25.2402C37.8682 24.4062 37.6904 23.7477 37.335 23.2646C36.9795 22.7816 36.4919 22.54 35.8721 22.54C35.1064 22.54 34.5322 22.8796 34.1494 23.5586V27.0928C34.5277 27.7673 35.1064 28.1045 35.8857 28.1045C36.4919 28.1045 36.9727 27.8652 37.3281 27.3867C37.6882 26.9036 37.8682 26.1882 37.8682 25.2402ZM46.7002 24.3037L48.3408 21.6035H49.8174L47.3975 25.2607L49.8926 29H48.4297L46.7207 26.2314L45.0117 29H43.542L46.0371 25.2607L43.6172 21.6035H45.0801L46.7002 24.3037ZM54.0967 29.1367C53.0941 29.1367 52.2783 28.8086 51.6494 28.1523C51.0205 27.4915 50.7061 26.6097 50.7061 25.5068V25.2744C50.7061 24.5407 50.8451 23.8867 51.123 23.3125C51.4056 22.7337 51.7975 22.2826 52.2988 21.959C52.8047 21.6309 53.3516 21.4668 53.9395 21.4668C54.901 21.4668 55.6484 21.7835 56.1816 22.417C56.7148 23.0505 56.9814 23.9574 56.9814 25.1377V25.6641H51.9707C51.9889 26.3932 52.2008 26.9834 52.6064 27.4346C53.0166 27.8812 53.5361 28.1045 54.165 28.1045C54.6117 28.1045 54.9899 28.0133 55.2998 27.8311C55.6097 27.6488 55.8809 27.4072 56.1133 27.1064L56.8857 27.708C56.266 28.6605 55.3363 29.1367 54.0967 29.1367ZM53.9395 22.5059C53.429 22.5059 53.0007 22.6927 52.6543 23.0664C52.3079 23.4355 52.0938 23.9551 52.0117 24.625H55.7168V24.5293C55.6803 23.8867 55.5072 23.39 55.1973 23.0391C54.8874 22.6836 54.4681 22.5059 53.9395 22.5059ZM53.4199 18.7119H54.459L56.4414 20.5098H55.0947L53.9395 19.4229L52.7773 20.5098H51.4238L53.4199 18.7119ZM56.9062 17.5293H58.2734L56.8994 19.2998H55.9355L56.9062 17.5293ZM64.6992 25.3838C64.6992 26.5094 64.4417 27.4163 63.9268 28.1045C63.4118 28.7926 62.7145 29.1367 61.835 29.1367C60.9372 29.1367 60.2308 28.8519 59.7158 28.2822V31.8438H58.4512V21.6035H59.6064L59.668 22.4238C60.1829 21.7858 60.8984 21.4668 61.8145 21.4668C62.7031 21.4668 63.4049 21.8018 63.9199 22.4717C64.4395 23.1416 64.6992 24.0736 64.6992 25.2676V25.3838ZM63.4346 25.2402C63.4346 24.4062 63.2568 23.7477 62.9014 23.2646C62.5459 22.7816 62.0583 22.54 61.4385 22.54C60.6729 22.54 60.0986 22.8796 59.7158 23.5586V27.0928C60.0941 27.7673 60.6729 28.1045 61.4521 28.1045C62.0583 28.1045 62.5391 27.8652 62.8945 27.3867C63.2546 26.9036 63.4346 26.1882 63.4346 25.2402ZM72.752 28.1045C73.2031 28.1045 73.5973 27.9678 73.9346 27.6943C74.2718 27.4209 74.4587 27.0791 74.4951 26.6689H75.6914C75.6686 27.0928 75.5228 27.4961 75.2539 27.8789C74.985 28.2617 74.625 28.5671 74.1738 28.7949C73.7272 29.0228 73.2533 29.1367 72.752 29.1367C71.7448 29.1367 70.9427 28.8018 70.3457 28.1318C69.7533 27.4574 69.457 26.5368 69.457 25.3701V25.1582C69.457 24.4382 69.5892 23.7979 69.8535 23.2373C70.1178 22.6768 70.4961 22.2415 70.9883 21.9316C71.485 21.6217 72.0706 21.4668 72.7451 21.4668C73.5745 21.4668 74.2627 21.7152 74.8096 22.2119C75.361 22.7087 75.6549 23.3535 75.6914 24.1465H74.4951C74.4587 23.668 74.2764 23.276 73.9482 22.9707C73.6247 22.6608 73.2236 22.5059 72.7451 22.5059C72.1025 22.5059 71.6035 22.7383 71.248 23.2031C70.8971 23.6634 70.7217 24.3311 70.7217 25.2061V25.4453C70.7217 26.2975 70.8971 26.9538 71.248 27.4141C71.599 27.8743 72.1003 28.1045 72.752 28.1045ZM81.6797 29C81.6068 28.8542 81.5475 28.5944 81.502 28.2207C80.9141 28.8314 80.2122 29.1367 79.3965 29.1367C78.6673 29.1367 78.068 28.9316 77.5986 28.5215C77.1338 28.1068 76.9014 27.5827 76.9014 26.9492C76.9014 26.179 77.193 25.582 77.7764 25.1582C78.3643 24.7298 79.1891 24.5156 80.251 24.5156H81.4814V23.9346C81.4814 23.4925 81.3493 23.1416 81.085 22.8818C80.8206 22.6175 80.431 22.4854 79.916 22.4854C79.4648 22.4854 79.0866 22.5993 78.7812 22.8271C78.4759 23.055 78.3232 23.3307 78.3232 23.6543H77.0518C77.0518 23.2852 77.1816 22.9297 77.4414 22.5879C77.7057 22.2415 78.0612 21.9681 78.5078 21.7676C78.959 21.5671 79.4535 21.4668 79.9912 21.4668C80.8434 21.4668 81.5111 21.681 81.9941 22.1094C82.4772 22.5332 82.7279 23.1188 82.7461 23.8662V27.2705C82.7461 27.9495 82.8327 28.4896 83.0059 28.8906V29H81.6797ZM79.5811 28.0361C79.9775 28.0361 80.3535 27.9336 80.709 27.7285C81.0645 27.5234 81.3219 27.2568 81.4814 26.9287V25.4111H80.4902C78.9408 25.4111 78.166 25.8646 78.166 26.7715C78.166 27.168 78.2982 27.4779 78.5625 27.7012C78.8268 27.9245 79.1663 28.0361 79.5811 28.0361ZM82.1992 20.373V20.4414H81.1533L80.1279 19.2793L79.1094 20.4414H78.0635V20.3594L79.7451 18.5H80.5107L82.1992 20.373ZM89.2949 28.2686C88.8027 28.8473 88.0804 29.1367 87.1279 29.1367C86.3395 29.1367 85.738 28.9089 85.3232 28.4531C84.9131 27.9928 84.7057 27.3138 84.7012 26.416V21.6035H85.9658V26.3818C85.9658 27.5029 86.4215 28.0635 87.333 28.0635C88.2992 28.0635 88.9417 27.7035 89.2607 26.9834V21.6035H90.5254V29H89.3223L89.2949 28.2686ZM97.6416 19.8125V21.6035H99.0225V22.5811H97.6416V27.168C97.6416 27.4642 97.7031 27.6875 97.8262 27.8379C97.9492 27.9837 98.1589 28.0566 98.4551 28.0566C98.6009 28.0566 98.8014 28.0293 99.0566 27.9746V29C98.724 29.0911 98.4004 29.1367 98.0859 29.1367C97.5208 29.1367 97.0947 28.9658 96.8076 28.624C96.5205 28.2822 96.377 27.7969 96.377 27.168V22.5811H95.0303V21.6035H96.377V19.8125H97.6416ZM101.771 22.499C102.331 21.8109 103.06 21.4668 103.958 21.4668C105.521 21.4668 106.31 22.3486 106.323 24.1123V29H105.059V24.1055C105.054 23.5723 104.931 23.1781 104.689 22.9229C104.452 22.6676 104.081 22.54 103.575 22.54C103.165 22.54 102.805 22.6494 102.495 22.8682C102.185 23.0869 101.944 23.374 101.771 23.7295V29H100.506V18.5H101.771V22.499ZM111.286 29.1367C110.284 29.1367 109.468 28.8086 108.839 28.1523C108.21 27.4915 107.896 26.6097 107.896 25.5068V25.2744C107.896 24.5407 108.035 23.8867 108.312 23.3125C108.595 22.7337 108.987 22.2826 109.488 21.959C109.994 21.6309 110.541 21.4668 111.129 21.4668C112.09 21.4668 112.838 21.7835 113.371 22.417C113.904 23.0505 114.171 23.9574 114.171 25.1377V25.6641H109.16C109.178 26.3932 109.39 26.9834 109.796 27.4346C110.206 27.8812 110.726 28.1045 111.354 28.1045C111.801 28.1045 112.179 28.0133 112.489 27.8311C112.799 27.6488 113.07 27.4072 113.303 27.1064L114.075 27.708C113.455 28.6605 112.526 29.1367 111.286 29.1367ZM111.129 22.5059C110.618 22.5059 110.19 22.6927 109.844 23.0664C109.497 23.4355 109.283 23.9551 109.201 24.625H112.906V24.5293C112.87 23.8867 112.697 23.39 112.387 23.0391C112.077 22.6836 111.658 22.5059 111.129 22.5059ZM115.306 25.2334C115.306 24.5088 115.447 23.8571 115.729 23.2783C116.017 22.6995 116.413 22.2529 116.919 21.9385C117.429 21.624 118.01 21.4668 118.662 21.4668C119.669 21.4668 120.483 21.8154 121.103 22.5127C121.727 23.21 122.039 24.1374 122.039 25.2949V25.3838C122.039 26.1038 121.9 26.751 121.622 27.3252C121.349 27.8949 120.954 28.3392 120.439 28.6582C119.929 28.9772 119.341 29.1367 118.676 29.1367C117.673 29.1367 116.86 28.7881 116.235 28.0908C115.616 27.3936 115.306 26.4707 115.306 25.3223V25.2334ZM116.577 25.3838C116.577 26.2041 116.766 26.8626 117.145 27.3594C117.527 27.8561 118.038 28.1045 118.676 28.1045C119.318 28.1045 119.829 27.8538 120.207 27.3525C120.585 26.8467 120.774 26.1403 120.774 25.2334C120.774 24.4222 120.581 23.766 120.193 23.2646C119.811 22.7588 119.3 22.5059 118.662 22.5059C118.038 22.5059 117.534 22.7542 117.151 23.251C116.769 23.7477 116.577 24.4587 116.577 25.3838ZM128.813 19.8125V21.6035H130.194V22.5811H128.813V27.168C128.813 27.4642 128.875 27.6875 128.998 27.8379C129.121 27.9837 129.331 28.0566 129.627 28.0566C129.773 28.0566 129.973 28.0293 130.229 27.9746V29C129.896 29.0911 129.572 29.1367 129.258 29.1367C128.693 29.1367 128.267 28.9658 127.979 28.624C127.692 28.2822 127.549 27.7969 127.549 27.168V22.5811H126.202V21.6035H127.549V19.8125H128.813ZM132.942 22.499C133.503 21.8109 134.232 21.4668 135.13 21.4668C136.693 21.4668 137.481 22.3486 137.495 24.1123V29H136.23V24.1055C136.226 23.5723 136.103 23.1781 135.861 22.9229C135.624 22.6676 135.253 22.54 134.747 22.54C134.337 22.54 133.977 22.6494 133.667 22.8682C133.357 23.0869 133.116 23.374 132.942 23.7295V29H131.678V18.5H132.942V22.499ZM147.284 21.0156C147.284 21.8359 147.116 22.4147 146.778 22.752C146.446 23.0846 145.915 23.2601 145.186 23.2783V29H143.982L143.955 28.2686C143.463 28.8473 142.741 29.1367 141.788 29.1367C141 29.1367 140.398 28.9089 139.983 28.4531C139.573 27.9928 139.366 27.3138 139.361 26.416V21.6035H140.626V26.3818C140.626 27.5029 141.082 28.0635 141.993 28.0635C142.959 28.0635 143.602 27.7035 143.921 26.9834V21.6035H145.186V22.499C145.495 22.4899 145.728 22.4466 145.883 22.3691C146.038 22.2871 146.147 22.1641 146.211 22C146.279 21.8359 146.313 21.5078 146.313 21.0156H147.284ZM143.019 18.6367H144.55L142.718 20.6465H141.699L143.019 18.6367ZM153.245 19.8125V21.6035H154.626V22.5811H153.245V27.168C153.245 27.4642 153.307 27.6875 153.43 27.8379C153.553 27.9837 153.762 28.0566 154.059 28.0566C154.204 28.0566 154.405 28.0293 154.66 27.9746V29C154.327 29.0911 154.004 29.1367 153.689 29.1367C153.124 29.1367 152.698 28.9658 152.411 28.624C152.124 28.2822 151.98 27.7969 151.98 27.168V22.5811H150.634V21.6035H151.98V19.8125H153.245ZM164.005 21.0156C164.005 21.8359 163.836 22.4147 163.499 22.752C163.166 23.0846 162.635 23.2601 161.906 23.2783V29H160.703L160.676 28.2686C160.184 28.8473 159.461 29.1367 158.509 29.1367C157.72 29.1367 157.119 28.9089 156.704 28.4531C156.294 27.9928 156.087 27.3138 156.082 26.416V21.6035H157.347V26.3818C157.347 27.5029 157.802 28.0635 158.714 28.0635C159.68 28.0635 160.323 27.7035 160.642 26.9834V21.6035H161.906V22.499C162.216 22.4899 162.449 22.4466 162.604 22.3691C162.758 22.2871 162.868 22.1641 162.932 22C163 21.8359 163.034 21.5078 163.034 21.0156H164.005ZM158.208 30.6748C158.208 30.4697 158.27 30.2965 158.393 30.1553C158.52 30.014 158.707 29.9434 158.953 29.9434C159.199 29.9434 159.386 30.014 159.514 30.1553C159.641 30.2965 159.705 30.4697 159.705 30.6748C159.705 30.8799 159.641 31.0508 159.514 31.1875C159.386 31.3242 159.199 31.3926 158.953 31.3926C158.707 31.3926 158.52 31.3242 158.393 31.1875C158.27 31.0508 158.208 30.8799 158.208 30.6748ZM175.469 20.5713H174.184V29H173.021L172.96 28.207C172.454 28.8268 171.75 29.1367 170.848 29.1367C169.991 29.1367 169.291 28.7858 168.749 28.084C168.211 27.3822 167.942 26.4661 167.942 25.3359V25.2402C167.942 24.1055 168.211 23.194 168.749 22.5059C169.287 21.8132 169.991 21.4668 170.861 21.4668C171.727 21.4668 172.413 21.763 172.919 22.3555V20.5713H171.114V19.5391H172.919V18.5H174.184V19.5391H175.469V20.5713ZM169.207 25.3838C169.207 26.2223 169.38 26.8786 169.727 27.3525C170.073 27.8265 170.551 28.0635 171.162 28.0635C171.964 28.0635 172.55 27.7035 172.919 26.9834V23.5859C172.541 22.8887 171.96 22.54 171.176 22.54C170.556 22.54 170.073 22.7793 169.727 23.2578C169.38 23.7363 169.207 24.445 169.207 25.3838ZM181.184 28.2686C180.691 28.8473 179.969 29.1367 179.017 29.1367C178.228 29.1367 177.627 28.9089 177.212 28.4531C176.802 27.9928 176.594 27.3138 176.59 26.416V21.6035H177.854V26.3818C177.854 27.5029 178.31 28.0635 179.222 28.0635C180.188 28.0635 180.83 27.7035 181.149 26.9834V21.6035H182.414V29H181.211L181.184 28.2686ZM180.158 18.5H181.689L179.857 20.5098H178.839L180.158 18.5ZM185.538 21.6035L185.579 22.5332C186.144 21.8223 186.882 21.4668 187.794 21.4668C189.357 21.4668 190.146 22.3486 190.159 24.1123V29H188.895V24.1055C188.89 23.5723 188.767 23.1781 188.525 22.9229C188.288 22.6676 187.917 22.54 187.411 22.54C187.001 22.54 186.641 22.6494 186.331 22.8682C186.021 23.0869 185.78 23.374 185.606 23.7295V29H184.342V21.6035H185.538ZM191.766 25.2402C191.766 24.0872 192.032 23.1712 192.565 22.4922C193.099 21.8086 193.805 21.4668 194.685 21.4668C195.587 21.4668 196.291 21.7858 196.797 22.4238L196.858 21.6035H198.014V28.8223C198.014 29.7793 197.729 30.5335 197.159 31.085C196.594 31.6364 195.833 31.9121 194.876 31.9121C194.343 31.9121 193.821 31.7982 193.311 31.5703C192.8 31.3424 192.41 31.0303 192.142 30.6338L192.798 29.875C193.34 30.5449 194.003 30.8799 194.787 30.8799C195.402 30.8799 195.881 30.7067 196.223 30.3604C196.569 30.014 196.742 29.5264 196.742 28.8975V28.2617C196.236 28.8451 195.546 29.1367 194.671 29.1367C193.805 29.1367 193.103 28.7881 192.565 28.0908C192.032 27.3936 191.766 26.4434 191.766 25.2402ZM193.037 25.3838C193.037 26.2178 193.208 26.874 193.55 27.3525C193.892 27.8265 194.37 28.0635 194.985 28.0635C195.783 28.0635 196.368 27.7012 196.742 26.9766V23.5996C196.355 22.8932 195.774 22.54 194.999 22.54C194.384 22.54 193.903 22.7793 193.557 23.2578C193.21 23.7363 193.037 24.445 193.037 25.3838ZM199.887 28.3369C199.887 28.1182 199.951 27.9359 200.078 27.79C200.21 27.6442 200.406 27.5713 200.666 27.5713C200.926 27.5713 201.122 27.6442 201.254 27.79C201.391 27.9359 201.459 28.1182 201.459 28.3369C201.459 28.5465 201.391 28.722 201.254 28.8633C201.122 29.0046 200.926 29.0752 200.666 29.0752C200.406 29.0752 200.21 29.0046 200.078 28.8633C199.951 28.722 199.887 28.5465 199.887 28.3369ZM199.894 22.3008C199.894 22.082 199.957 21.8997 200.085 21.7539C200.217 21.6081 200.413 21.5352 200.673 21.5352C200.933 21.5352 201.129 21.6081 201.261 21.7539C201.397 21.8997 201.466 22.082 201.466 22.3008C201.466 22.5104 201.397 22.6859 201.261 22.8271C201.129 22.9684 200.933 23.0391 200.673 23.0391C200.413 23.0391 200.217 22.9684 200.085 22.8271C199.957 22.6859 199.894 22.5104 199.894 22.3008Z" fill="#8C8C8C"/>
<path d="M31.3096 69.5H29.6553V61.5088L27.2148 62.3428V60.9414L31.0977 59.5127H31.3096V69.5ZM35.9102 67.75C36.2201 67.75 36.4593 67.8389 36.6279 68.0166C36.7965 68.1898 36.8809 68.4085 36.8809 68.6729C36.8809 68.9326 36.7965 69.1491 36.6279 69.3223C36.4593 69.4909 36.2201 69.5752 35.9102 69.5752C35.6139 69.5752 35.3792 69.4909 35.2061 69.3223C35.0329 69.1536 34.9463 68.9372 34.9463 68.6729C34.9463 68.4085 35.0306 68.1898 35.1992 68.0166C35.3678 67.8389 35.6048 67.75 35.9102 67.75Z" fill="#2EB553"/>
<path d="M52.4766 65.8418C52.3535 66.8945 51.9639 67.708 51.3076 68.2822C50.6559 68.8519 49.7878 69.1367 48.7031 69.1367C47.5273 69.1367 46.584 68.7152 45.873 67.8721C45.1667 67.029 44.8135 65.901 44.8135 64.4883V63.5312C44.8135 62.6061 44.9775 61.7926 45.3057 61.0908C45.6383 60.389 46.1077 59.8512 46.7139 59.4775C47.32 59.0993 48.0218 58.9102 48.8193 58.9102C49.8766 58.9102 50.7243 59.2064 51.3623 59.7988C52.0003 60.3867 52.3717 61.2025 52.4766 62.2461H51.1572C51.0433 61.4531 50.7949 60.8789 50.4121 60.5234C50.0339 60.168 49.5029 59.9902 48.8193 59.9902C47.9808 59.9902 47.3223 60.3001 46.8438 60.9199C46.3698 61.5397 46.1328 62.4215 46.1328 63.5654V64.5293C46.1328 65.6094 46.3584 66.4684 46.8096 67.1064C47.2607 67.7445 47.8919 68.0635 48.7031 68.0635C49.4323 68.0635 49.9906 67.8994 50.3779 67.5713C50.7699 67.2386 51.0296 66.6621 51.1572 65.8418H52.4766ZM58.6426 69C58.5697 68.8542 58.5104 68.5944 58.4648 68.2207C57.877 68.8314 57.1751 69.1367 56.3594 69.1367C55.6302 69.1367 55.0309 68.9316 54.5615 68.5215C54.0967 68.1068 53.8643 67.5827 53.8643 66.9492C53.8643 66.179 54.1559 65.582 54.7393 65.1582C55.3271 64.7298 56.152 64.5156 57.2139 64.5156H58.4443V63.9346C58.4443 63.4925 58.3122 63.1416 58.0479 62.8818C57.7835 62.6175 57.3939 62.4854 56.8789 62.4854C56.4277 62.4854 56.0495 62.5993 55.7441 62.8271C55.4388 63.055 55.2861 63.3307 55.2861 63.6543H54.0146C54.0146 63.2852 54.1445 62.9297 54.4043 62.5879C54.6686 62.2415 55.0241 61.9681 55.4707 61.7676C55.9219 61.5671 56.4163 61.4668 56.9541 61.4668C57.8063 61.4668 58.474 61.681 58.957 62.1094C59.4401 62.5332 59.6908 63.1188 59.709 63.8662V67.2705C59.709 67.9495 59.7956 68.4896 59.9688 68.8906V69H58.6426ZM56.5439 68.0361C56.9404 68.0361 57.3164 67.9336 57.6719 67.7285C58.0273 67.5234 58.2848 67.2568 58.4443 66.9287V65.4111H57.4531C55.9036 65.4111 55.1289 65.8646 55.1289 66.7715C55.1289 67.168 55.2611 67.4779 55.5254 67.7012C55.7897 67.9245 56.1292 68.0361 56.5439 68.0361ZM59.1621 60.373V60.4414H58.1162L57.0908 59.2793L56.0723 60.4414H55.0264V60.3594L56.708 58.5H57.4736L59.1621 60.373ZM66.2578 68.2686C65.7656 68.8473 65.0433 69.1367 64.0908 69.1367C63.3024 69.1367 62.7008 68.9089 62.2861 68.4531C61.876 67.9928 61.6686 67.3138 61.6641 66.416V61.6035H62.9287V66.3818C62.9287 67.5029 63.3844 68.0635 64.2959 68.0635C65.262 68.0635 65.9046 67.7035 66.2236 66.9834V61.6035H67.4883V69H66.2852L66.2578 68.2686ZM76.915 69H75.6436V60.5713L73.0938 61.5078V60.3594L76.7168 58.999H76.915V69Z" fill="#8C8C8C"/>
<path d="M21 49H203V47H21V49ZM207 53V76H209V53H207ZM203 80H21V82H203V80ZM17 76V53H15V76H17ZM21 80C18.7909 80 17 78.2091 17 76H15C15 79.3137 17.6863 82 21 82V80ZM207 76C207 78.2091 205.209 80 203 80V82C206.314 82 209 79.3137 209 76H207ZM203 49C205.209 49 207 50.7909 207 53H209C209 49.6863 206.314 47 203 47V49ZM21 47C17.6863 47 15 49.6863 15 53H17C17 50.7909 18.7909 49 21 49V47Z" fill="#E8E8E8"/>
<path d="M33.5039 110.5H26.8115V109.358L30.127 105.742C30.6055 105.209 30.945 104.765 31.1455 104.409C31.3506 104.049 31.4531 103.689 31.4531 103.329C31.4531 102.855 31.3187 102.472 31.0498 102.181C30.7855 101.889 30.4277 101.743 29.9766 101.743C29.4388 101.743 29.0218 101.907 28.7256 102.235C28.4294 102.563 28.2812 103.012 28.2812 103.582H26.6201C26.6201 102.976 26.7568 102.431 27.0303 101.948C27.3083 101.461 27.7025 101.082 28.2129 100.813C28.7279 100.545 29.3203 100.41 29.9902 100.41C30.9564 100.41 31.7174 100.654 32.2734 101.142C32.834 101.625 33.1143 102.295 33.1143 103.151C33.1143 103.648 32.973 104.17 32.6904 104.717C32.4124 105.259 31.9544 105.877 31.3164 106.569L28.8828 109.174H33.5039V110.5ZM35.9102 108.75C36.2201 108.75 36.4593 108.839 36.6279 109.017C36.7965 109.19 36.8809 109.409 36.8809 109.673C36.8809 109.933 36.7965 110.149 36.6279 110.322C36.4593 110.491 36.2201 110.575 35.9102 110.575C35.6139 110.575 35.3792 110.491 35.2061 110.322C35.0329 110.154 34.9463 109.937 34.9463 109.673C34.9463 109.409 35.0306 109.19 35.1992 109.017C35.3678 108.839 35.6048 108.75 35.9102 108.75Z" fill="#2EB553"/>
<path d="M52.4766 106.842C52.3535 107.895 51.9639 108.708 51.3076 109.282C50.6559 109.852 49.7878 110.137 48.7031 110.137C47.5273 110.137 46.584 109.715 45.873 108.872C45.1667 108.029 44.8135 106.901 44.8135 105.488V104.531C44.8135 103.606 44.9775 102.793 45.3057 102.091C45.6383 101.389 46.1077 100.851 46.7139 100.478C47.32 100.099 48.0218 99.9102 48.8193 99.9102C49.8766 99.9102 50.7243 100.206 51.3623 100.799C52.0003 101.387 52.3717 102.202 52.4766 103.246H51.1572C51.0433 102.453 50.7949 101.879 50.4121 101.523C50.0339 101.168 49.5029 100.99 48.8193 100.99C47.9808 100.99 47.3223 101.3 46.8438 101.92C46.3698 102.54 46.1328 103.422 46.1328 104.565V105.529C46.1328 106.609 46.3584 107.468 46.8096 108.106C47.2607 108.744 47.8919 109.063 48.7031 109.063C49.4323 109.063 49.9906 108.899 50.3779 108.571C50.7699 108.239 51.0296 107.662 51.1572 106.842H52.4766ZM58.6426 110C58.5697 109.854 58.5104 109.594 58.4648 109.221C57.877 109.831 57.1751 110.137 56.3594 110.137C55.6302 110.137 55.0309 109.932 54.5615 109.521C54.0967 109.107 53.8643 108.583 53.8643 107.949C53.8643 107.179 54.1559 106.582 54.7393 106.158C55.3271 105.73 56.152 105.516 57.2139 105.516H58.4443V104.935C58.4443 104.493 58.3122 104.142 58.0479 103.882C57.7835 103.618 57.3939 103.485 56.8789 103.485C56.4277 103.485 56.0495 103.599 55.7441 103.827C55.4388 104.055 55.2861 104.331 55.2861 104.654H54.0146C54.0146 104.285 54.1445 103.93 54.4043 103.588C54.6686 103.242 55.0241 102.968 55.4707 102.768C55.9219 102.567 56.4163 102.467 56.9541 102.467C57.8063 102.467 58.474 102.681 58.957 103.109C59.4401 103.533 59.6908 104.119 59.709 104.866V108.271C59.709 108.95 59.7956 109.49 59.9688 109.891V110H58.6426ZM56.5439 109.036C56.9404 109.036 57.3164 108.934 57.6719 108.729C58.0273 108.523 58.2848 108.257 58.4443 107.929V106.411H57.4531C55.9036 106.411 55.1289 106.865 55.1289 107.771C55.1289 108.168 55.2611 108.478 55.5254 108.701C55.7897 108.924 56.1292 109.036 56.5439 109.036ZM59.1621 101.373V101.441H58.1162L57.0908 100.279L56.0723 101.441H55.0264V101.359L56.708 99.5H57.4736L59.1621 101.373ZM66.2578 109.269C65.7656 109.847 65.0433 110.137 64.0908 110.137C63.3024 110.137 62.7008 109.909 62.2861 109.453C61.876 108.993 61.6686 108.314 61.6641 107.416V102.604H62.9287V107.382C62.9287 108.503 63.3844 109.063 64.2959 109.063C65.262 109.063 65.9046 108.703 66.2236 107.983V102.604H67.4883V110H66.2852L66.2578 109.269ZM79.2803 110H72.7588V109.091L76.2041 105.263C76.7145 104.684 77.0654 104.215 77.2568 103.854C77.4528 103.49 77.5508 103.114 77.5508 102.727C77.5508 102.207 77.3936 101.781 77.0791 101.448C76.7646 101.116 76.3454 100.949 75.8213 100.949C75.1924 100.949 74.7025 101.129 74.3516 101.489C74.0052 101.845 73.832 102.341 73.832 102.979H72.5674C72.5674 102.063 72.8613 101.323 73.4492 100.758C74.0417 100.193 74.8324 99.9102 75.8213 99.9102C76.7464 99.9102 77.4779 100.154 78.0156 100.642C78.5534 101.125 78.8223 101.77 78.8223 102.576C78.8223 103.556 78.1979 104.723 76.9492 106.076L74.2832 108.968H79.2803V110Z" fill="#8C8C8C"/>
<path d="M21 90H203V88H21V90ZM207 94V117H209V94H207ZM203 121H21V123H203V121ZM17 117V94H15V117H17ZM21 121C18.7909 121 17 119.209 17 117H15C15 120.314 17.6863 123 21 123V121ZM207 117C207 119.209 205.209 121 203 121V123C206.314 123 209 120.314 209 117H207ZM203 90C205.209 90 207 91.7909 207 94H209C209 90.6863 206.314 88 203 88V90ZM21 88C17.6863 88 15 90.6863 15 94H17C17 91.7909 18.7909 90 21 90V88Z" fill="#E8E8E8"/>
<path d="M28.7324 145.765H29.7441C30.2546 145.76 30.6579 145.628 30.9541 145.368C31.2549 145.108 31.4053 144.732 31.4053 144.24C31.4053 143.766 31.2799 143.399 31.0293 143.14C30.7832 142.875 30.4049 142.743 29.8945 142.743C29.4479 142.743 29.0811 142.873 28.7939 143.133C28.5068 143.388 28.3633 143.723 28.3633 144.138H26.7021C26.7021 143.627 26.8366 143.162 27.1055 142.743C27.3789 142.324 27.7572 141.998 28.2402 141.766C28.7279 141.529 29.2725 141.41 29.874 141.41C30.8675 141.41 31.6468 141.661 32.2119 142.162C32.7816 142.659 33.0664 143.352 33.0664 144.24C33.0664 144.687 32.9229 145.108 32.6357 145.505C32.3532 145.897 31.9863 146.193 31.5352 146.394C32.082 146.58 32.4967 146.874 32.7793 147.275C33.0664 147.676 33.21 148.155 33.21 148.711C33.21 149.604 32.9023 150.315 32.2871 150.844C31.6764 151.372 30.8721 151.637 29.874 151.637C28.917 151.637 28.1331 151.382 27.5225 150.871C26.9118 150.361 26.6064 149.682 26.6064 148.834H28.2676C28.2676 149.271 28.4134 149.627 28.7051 149.9C29.0013 150.174 29.3978 150.311 29.8945 150.311C30.4095 150.311 30.8151 150.174 31.1113 149.9C31.4076 149.627 31.5557 149.23 31.5557 148.711C31.5557 148.187 31.4007 147.784 31.0908 147.501C30.7809 147.218 30.3206 147.077 29.71 147.077H28.7324V145.765ZM35.9102 149.75C36.2201 149.75 36.4593 149.839 36.6279 150.017C36.7965 150.19 36.8809 150.409 36.8809 150.673C36.8809 150.933 36.7965 151.149 36.6279 151.322C36.4593 151.491 36.2201 151.575 35.9102 151.575C35.6139 151.575 35.3792 151.491 35.2061 151.322C35.0329 151.154 34.9463 150.937 34.9463 150.673C34.9463 150.409 35.0306 150.19 35.1992 150.017C35.3678 149.839 35.6048 149.75 35.9102 149.75Z" fill="#2EB553"/>
<path d="M52.4766 147.842C52.3535 148.895 51.9639 149.708 51.3076 150.282C50.6559 150.852 49.7878 151.137 48.7031 151.137C47.5273 151.137 46.584 150.715 45.873 149.872C45.1667 149.029 44.8135 147.901 44.8135 146.488V145.531C44.8135 144.606 44.9775 143.793 45.3057 143.091C45.6383 142.389 46.1077 141.851 46.7139 141.478C47.32 141.099 48.0218 140.91 48.8193 140.91C49.8766 140.91 50.7243 141.206 51.3623 141.799C52.0003 142.387 52.3717 143.202 52.4766 144.246H51.1572C51.0433 143.453 50.7949 142.879 50.4121 142.523C50.0339 142.168 49.5029 141.99 48.8193 141.99C47.9808 141.99 47.3223 142.3 46.8438 142.92C46.3698 143.54 46.1328 144.422 46.1328 145.565V146.529C46.1328 147.609 46.3584 148.468 46.8096 149.106C47.2607 149.744 47.8919 150.063 48.7031 150.063C49.4323 150.063 49.9906 149.899 50.3779 149.571C50.7699 149.239 51.0296 148.662 51.1572 147.842H52.4766ZM58.6426 151C58.5697 150.854 58.5104 150.594 58.4648 150.221C57.877 150.831 57.1751 151.137 56.3594 151.137C55.6302 151.137 55.0309 150.932 54.5615 150.521C54.0967 150.107 53.8643 149.583 53.8643 148.949C53.8643 148.179 54.1559 147.582 54.7393 147.158C55.3271 146.73 56.152 146.516 57.2139 146.516H58.4443V145.935C58.4443 145.493 58.3122 145.142 58.0479 144.882C57.7835 144.618 57.3939 144.485 56.8789 144.485C56.4277 144.485 56.0495 144.599 55.7441 144.827C55.4388 145.055 55.2861 145.331 55.2861 145.654H54.0146C54.0146 145.285 54.1445 144.93 54.4043 144.588C54.6686 144.242 55.0241 143.968 55.4707 143.768C55.9219 143.567 56.4163 143.467 56.9541 143.467C57.8063 143.467 58.474 143.681 58.957 144.109C59.4401 144.533 59.6908 145.119 59.709 145.866V149.271C59.709 149.95 59.7956 150.49 59.9688 150.891V151H58.6426ZM56.5439 150.036C56.9404 150.036 57.3164 149.934 57.6719 149.729C58.0273 149.523 58.2848 149.257 58.4443 148.929V147.411H57.4531C55.9036 147.411 55.1289 147.865 55.1289 148.771C55.1289 149.168 55.2611 149.478 55.5254 149.701C55.7897 149.924 56.1292 150.036 56.5439 150.036ZM59.1621 142.373V142.441H58.1162L57.0908 141.279L56.0723 142.441H55.0264V142.359L56.708 140.5H57.4736L59.1621 142.373ZM66.2578 150.269C65.7656 150.847 65.0433 151.137 64.0908 151.137C63.3024 151.137 62.7008 150.909 62.2861 150.453C61.876 149.993 61.6686 149.314 61.6641 148.416V143.604H62.9287V148.382C62.9287 149.503 63.3844 150.063 64.2959 150.063C65.262 150.063 65.9046 149.703 66.2236 148.983V143.604H67.4883V151H66.2852L66.2578 150.269ZM74.5977 145.408H75.5479C76.1449 145.399 76.6143 145.242 76.9561 144.937C77.2979 144.631 77.4688 144.219 77.4688 143.699C77.4688 142.533 76.8877 141.949 75.7256 141.949C75.1787 141.949 74.7412 142.106 74.4131 142.421C74.0895 142.731 73.9277 143.143 73.9277 143.658H72.6631C72.6631 142.87 72.9502 142.216 73.5244 141.696C74.1032 141.172 74.8369 140.91 75.7256 140.91C76.6644 140.91 77.4004 141.159 77.9336 141.655C78.4668 142.152 78.7334 142.842 78.7334 143.727C78.7334 144.16 78.5921 144.579 78.3096 144.984C78.0316 145.39 77.651 145.693 77.168 145.894C77.7148 146.067 78.1364 146.354 78.4326 146.755C78.7334 147.156 78.8838 147.646 78.8838 148.225C78.8838 149.118 78.5921 149.826 78.0088 150.351C77.4255 150.875 76.6667 151.137 75.7324 151.137C74.7982 151.137 74.0371 150.884 73.4492 150.378C72.8659 149.872 72.5742 149.204 72.5742 148.375H73.8457C73.8457 148.899 74.0166 149.318 74.3584 149.633C74.7002 149.947 75.1582 150.104 75.7324 150.104C76.3431 150.104 76.8102 149.945 77.1338 149.626C77.4574 149.307 77.6191 148.849 77.6191 148.252C77.6191 147.673 77.4414 147.229 77.0859 146.919C76.7305 146.609 76.2178 146.45 75.5479 146.44H74.5977V145.408Z" fill="#8C8C8C"/>
<path d="M21 131H203V129H21V131ZM207 135V158H209V135H207ZM203 162H21V164H203V162ZM17 158V135H15V158H17ZM21 162C18.7909 162 17 160.209 17 158H15C15 161.314 17.6863 164 21 164V162ZM207 158C207 160.209 205.209 162 203 162V164C206.314 164 209 161.314 209 158H207ZM203 131C205.209 131 207 132.791 207 135H209C209 131.686 206.314 129 203 129V131ZM21 129C17.6863 129 15 131.686 15 135H17C17 132.791 18.7909 131 21 131V129Z" fill="#E8E8E8"/>
<path d="M5 1H219V-1H5V1ZM223 5V179H225V5H223ZM219 183H4.99999V185H219V183ZM1 179V5H-1V179H1ZM4.99999 183C2.79086 183 1 181.209 1 179H-1C-1 182.314 1.68628 185 4.99999 185V183ZM223 179C223 181.209 221.209 183 219 183V185C222.314 185 225 182.314 225 179H223ZM219 1C221.209 1 223 2.79086 223 5H225C225 1.68629 222.314 -1 219 -1V1ZM5 -1C1.68629 -1 -1 1.6863 -1 5H1C1 2.79086 2.79086 1 5 1V-1Z" fill="#E8E8E8"/>
</svg>
